{"glyphs":{"0":{"ha":875,"x_min":76,"x_max":799,"o":"m 438 -15 q 295 9 361 -15 q 180 90 229 33 q 103 243 131 146 q 76 486 76 340 l 76 514 q 103 740 76 649 q 180 885 131 831 q 295 964 229 940 q 438 988 361 988 q 580 964 514 988 q 695 885 646 940 q 772 740 744 831 q 799 514 799 649 l 799 486 q 772 243 799 340 q 695 90 744 146 q 580 9 646 33 q 438 -15 514 -15 m 438 129 q 511 144 476 129 q 573 199 546 160 q 616 308 600 239 q 632 486 632 378 l 632 514 q 605 716 632 644 q 533 815 578 788 q 438 843 489 843 q 342 815 386 843 q 270 716 297 788 q 243 514 243 644 l 243 486 q 259 308 243 378 q 302 199 275 239 q 364 144 329 160 q 438 129 399 129 z "},"1":{"ha":688,"x_min":69,"x_max":653,"o":"m 69 0 l 69 144 l 299 144 l 299 796 l 69 633 l 69 806 l 304 972 l 465 972 l 465 144 l 653 144 l 653 0 l 69 0 z "},"2":{"ha":819,"x_min":49,"x_max":757,"o":"m 49 0 l 49 131 l 411 444 q 507 535 471 497 q 560 608 543 574 q 576 681 576 642 q 534 796 576 751 q 417 840 492 840 q 278 792 328 840 q 229 646 229 744 l 63 646 q 106 826 63 749 q 229 945 150 903 q 417 988 308 988 q 595 948 522 988 q 706 839 668 908 q 743 681 743 769 q 715 558 743 615 q 640 448 688 500 q 528 346 592 396 l 281 144 l 757 144 l 757 0 l 49 0 z "},"3":{"ha":826,"x_min":56,"x_max":750,"o":"m 403 -15 q 213 22 290 -15 q 96 126 136 60 q 56 278 56 192 l 222 278 q 266 170 222 208 q 403 132 310 132 q 538 170 493 132 q 583 278 583 208 q 542 390 583 349 q 403 431 500 431 l 306 431 l 306 569 l 403 569 q 528 605 486 569 q 569 707 569 640 q 530 807 569 774 q 403 840 490 840 q 276 806 317 840 q 235 708 235 771 l 68 708 q 106 856 68 793 q 219 953 144 918 q 403 988 294 988 q 586 952 513 988 q 698 858 660 917 q 736 726 736 799 q 692 587 736 643 q 569 507 647 531 q 702 423 654 482 q 750 264 750 364 q 710 122 750 186 q 594 22 671 58 q 403 -15 517 -15 z "},"4":{"ha":854,"x_min":28,"x_max":792,"o":"m 507 0 l 507 219 l 28 219 l 28 343 l 500 972 l 674 972 l 674 364 l 792 364 l 792 219 l 674 219 l 674 0 l 507 0 m 194 364 l 507 364 l 507 781 l 194 364 z "},"5":{"ha":819,"x_min":76,"x_max":757,"o":"m 410 -15 q 262 7 324 -15 q 160 67 200 29 q 99 152 119 104 q 76 250 79 200 l 243 250 q 292 166 250 200 q 410 132 335 132 q 542 182 494 132 q 590 328 590 232 q 564 442 590 400 q 496 503 538 485 q 410 522 454 522 q 310 501 350 522 q 247 444 271 481 l 97 444 l 97 972 l 701 972 l 701 828 l 261 828 l 261 601 q 336 651 293 632 q 444 669 379 669 q 609 631 539 669 q 718 516 679 592 q 757 329 757 440 q 713 147 757 224 q 592 27 669 69 q 410 -15 514 -15 z "},"6":{"ha":854,"x_min":76,"x_max":785,"o":"m 444 -15 q 174 93 272 -15 q 76 438 76 201 l 76 465 q 126 769 76 654 q 263 935 176 883 q 458 988 350 988 q 605 963 542 988 q 709 888 668 939 q 764 757 750 838 l 597 757 q 547 821 582 801 q 458 840 513 840 q 345 813 396 840 q 265 716 294 785 q 232 521 235 647 q 337 608 268 582 q 472 633 406 633 q 640 597 571 633 q 747 492 710 561 q 785 324 785 424 l 785 310 q 740 140 785 214 q 619 26 696 67 q 444 -15 542 -15 m 433 132 q 567 181 517 132 q 618 310 618 231 l 618 324 q 567 451 618 401 q 433 500 517 500 q 299 451 350 500 q 249 324 249 401 l 249 310 q 299 181 249 231 q 433 132 350 132 z "},"7":{"ha":743,"x_min":28,"x_max":694,"o":"m 181 0 l 519 828 l 28 828 l 28 972 l 694 972 l 694 842 l 361 0 l 181 0 z "},"8":{"ha":861,"x_min":69,"x_max":792,"o":"m 431 -15 q 233 20 314 -15 q 111 118 153 56 q 69 261 69 181 q 122 409 69 344 q 274 501 174 474 q 149 585 200 526 q 97 726 97 643 q 136 860 97 801 q 249 953 175 919 q 431 988 324 988 q 613 953 539 988 q 726 860 688 919 q 764 726 764 801 q 714 586 764 643 q 589 501 664 529 q 741 411 690 469 q 792 261 792 353 q 750 118 792 181 q 628 20 708 56 q 431 -15 547 -15 m 431 132 q 540 150 497 132 q 604 200 583 168 q 625 274 625 232 q 569 387 625 344 q 431 440 514 429 q 292 387 347 429 q 236 274 236 344 q 258 200 236 232 q 324 150 281 168 q 431 132 367 132 m 431 560 q 551 607 504 571 q 597 714 597 643 q 552 808 597 776 q 431 840 507 840 q 309 809 354 840 q 264 714 264 778 q 311 607 264 643 q 431 560 358 571 z "},"9":{"ha":854,"x_min":69,"x_max":778,"o":"m 403 -15 q 253 9 318 -15 q 146 84 188 33 q 90 215 104 135 l 257 215 q 308 151 272 171 q 403 132 344 132 q 510 160 461 132 q 590 257 560 188 q 622 451 621 326 q 517 365 586 390 q 382 339 449 339 q 215 376 285 339 q 107 482 144 413 q 69 649 69 551 l 69 663 q 114 833 69 760 q 235 947 158 906 q 410 988 313 988 q 608 940 526 988 q 734 793 690 893 q 778 535 778 693 l 778 507 q 728 203 778 318 q 593 37 678 89 q 403 -15 508 -15 m 421 472 q 555 522 504 472 q 606 649 606 571 l 606 663 q 553 790 606 739 q 421 840 501 840 q 287 791 338 840 q 236 663 236 742 l 236 649 q 287 522 236 571 q 421 472 338 472 z "},"A":{"ha":944,"x_min":21,"x_max":924,"o":"m 21 0 l 389 972 l 556 972 l 924 0 l 746 0 l 664 219 l 269 219 l 188 0 l 21 0 m 324 364 l 610 364 l 468 764 l 324 364 z "},"Á":{"ha":944,"x_min":21,"x_max":924,"o":"m 21 0 l 389 972 l 556 972 l 924 0 l 746 0 l 664 219 l 269 219 l 188 0 l 21 0 m 324 364 l 610 364 l 468 764 l 324 364 m 403 1042 l 556 1250 l 750 1250 l 542 1042 l 403 1042 z "},"Ă":{"ha":944,"x_min":21,"x_max":924,"o":"m 21 0 l 389 972 l 556 972 l 924 0 l 746 0 l 664 219 l 269 219 l 188 0 l 21 0 m 324 364 l 610 364 l 468 764 l 324 364 m 472 1035 q 331 1060 386 1035 q 249 1135 275 1086 q 222 1257 222 1185 l 375 1257 q 399 1167 375 1193 q 472 1140 424 1140 q 545 1167 521 1140 q 569 1257 569 1193 l 722 1257 q 696 1135 722 1185 q 614 1060 669 1086 q 472 1035 558 1035 z "},"Â":{"ha":944,"x_min":21,"x_max":924,"o":"m 21 0 l 389 972 l 556 972 l 924 0 l 746 0 l 664 219 l 269 219 l 188 0 l 21 0 m 324 364 l 610 364 l 468 764 l 324 364 m 236 1042 l 389 1250 l 556 1250 l 708 1042 l 569 1042 l 472 1139 l 375 1042 l 236 1042 z "},"Ä":{"ha":944,"x_min":21,"x_max":924,"o":"m 21 0 l 389 972 l 556 972 l 924 0 l 746 0 l 664 219 l 269 219 l 188 0 l 21 0 m 324 364 l 610 364 l 468 764 l 324 364 m 313 1049 q 242 1076 269 1049 q 215 1146 215 1103 q 242 1216 215 1189 q 313 1243 269 1243 q 383 1216 356 1243 q 410 1146 410 1189 q 383 1076 410 1103 q 313 1049 356 1049 m 632 1049 q 562 1076 589 1049 q 535 1146 535 1103 q 562 1216 535 1189 q 632 1243 589 1243 q 702 1216 675 1243 q 729 1146 729 1189 q 702 1076 729 1103 q 632 1049 675 1049 z "},"À":{"ha":944,"x_min":21,"x_max":924,"o":"m 21 0 l 389 972 l 556 972 l 924 0 l 746 0 l 664 219 l 269 219 l 188 0 l 21 0 m 324 364 l 610 364 l 468 764 l 324 364 m 403 1042 l 194 1250 l 389 1250 l 542 1042 l 403 1042 z "},"Ā":{"ha":944,"x_min":21,"x_max":924,"o":"m 21 0 l 389 972 l 556 972 l 924 0 l 746 0 l 664 219 l 269 219 l 188 0 l 21 0 m 324 364 l 610 364 l 468 764 l 324 364 m 264 1081 l 264 1211 l 681 1211 l 681 1081 l 264 1081 z "},"Ą":{"ha":944,"x_min":21,"x_max":924,"o":"m 21 0 l 389 972 l 556 972 l 924 0 l 746 0 l 664 219 l 269 219 l 188 0 l 21 0 m 324 364 l 610 364 l 468 764 l 324 364 m 843 -293 q 731 -258 767 -293 q 694 -169 694 -224 q 708 -108 694 -136 q 742 -59 721 -81 q 790 -22 764 -37 q 839 0 815 -7 l 924 0 q 887 -24 913 -3 q 839 -75 861 -44 q 817 -139 817 -106 q 831 -181 817 -165 q 885 -196 846 -196 q 902 -194 894 -196 q 924 -192 910 -193 l 924 -286 q 881 -292 899 -292 q 843 -293 863 -293 z "},"Å":{"ha":944,"x_min":21,"x_max":924,"o":"m 21 0 l 389 972 l 556 972 l 924 0 l 746 0 l 664 219 l 269 219 l 188 0 l 21 0 m 324 364 l 610 364 l 468 764 l 324 364 m 472 1014 q 384 1035 424 1014 q 322 1093 344 1057 q 299 1174 299 1129 q 322 1254 299 1218 q 384 1312 344 1290 q 472 1333 424 1333 q 560 1312 521 1333 q 623 1254 600 1290 q 646 1174 646 1218 q 623 1093 646 1129 q 560 1035 600 1057 q 472 1014 521 1014 m 472 1111 q 517 1128 500 1111 q 535 1174 535 1146 q 517 1219 535 1201 q 472 1236 500 1236 q 427 1219 444 1236 q 410 1174 410 1201 q 427 1128 410 1146 q 472 1111 444 1111 z "},"Ã":{"ha":944,"x_min":21,"x_max":924,"o":"m 21 0 l 389 972 l 556 972 l 924 0 l 746 0 l 664 219 l 269 219 l 188 0 l 21 0 m 324 364 l 610 364 l 468 764 l 324 364 m 569 1049 q 490 1064 521 1049 q 433 1095 458 1079 q 375 1111 407 1111 q 347 1103 360 1111 q 328 1083 335 1094 q 319 1070 322 1078 q 313 1056 315 1063 l 222 1097 q 235 1135 228 1117 q 251 1169 242 1154 q 298 1220 268 1197 q 375 1243 328 1243 q 455 1227 424 1243 q 513 1196 486 1211 q 569 1181 539 1181 q 597 1189 585 1181 q 617 1208 608 1197 q 625 1222 621 1215 q 632 1236 629 1229 l 722 1194 q 710 1155 717 1174 q 693 1121 703 1136 q 647 1071 676 1093 q 569 1049 617 1049 z "},"Æ":{"ha":1354,"x_min":14,"x_max":1278,"o":"m 14 0 l 583 972 l 1278 972 l 1278 828 l 792 828 l 792 572 l 1236 572 l 1236 428 l 792 428 l 792 144 l 1278 144 l 1278 0 l 625 0 l 625 219 l 319 219 l 192 0 l 14 0 m 401 364 l 625 364 l 625 764 l 401 364 z "},"B":{"ha":938,"x_min":125,"x_max":875,"o":"m 125 0 l 125 972 l 514 972 q 756 901 679 972 q 833 713 833 831 q 794 584 833 638 q 688 507 756 531 q 824 428 774 488 q 875 275 875 369 q 840 132 875 194 q 731 35 806 69 q 536 0 656 0 l 125 0 m 292 144 l 518 144 q 667 179 626 144 q 708 286 708 214 q 667 395 708 357 q 517 433 625 433 l 292 433 l 292 144 m 292 567 l 493 567 q 628 603 590 567 q 667 700 667 639 q 629 795 667 763 q 493 828 592 828 l 292 828 l 292 567 z "},"C":{"ha":958,"x_min":76,"x_max":896,"o":"m 500 -15 q 285 35 381 -15 q 133 195 189 86 q 76 479 76 304 l 76 507 q 110 724 76 633 q 201 874 143 815 q 335 960 258 932 q 500 988 413 988 q 650 967 581 988 q 772 907 719 947 q 857 807 825 867 q 896 667 889 747 l 721 667 q 644 799 703 757 q 500 840 585 840 q 382 809 439 840 q 288 706 325 778 q 251 507 251 633 l 251 479 q 274 312 251 379 q 333 206 296 244 q 413 149 369 167 q 500 132 457 132 q 655 178 600 132 q 721 306 710 225 l 896 306 q 855 158 888 219 q 769 59 822 97 q 647 3 715 21 q 500 -15 579 -15 z "},"Ć":{"ha":958,"x_min":76,"x_max":896,"o":"m 500 -15 q 285 35 381 -15 q 133 195 189 86 q 76 479 76 304 l 76 507 q 110 724 76 633 q 201 874 143 815 q 335 960 258 932 q 500 988 413 988 q 650 967 581 988 q 772 907 719 947 q 857 807 825 867 q 896 667 889 747 l 721 667 q 644 799 703 757 q 500 840 585 840 q 382 809 439 840 q 288 706 325 778 q 251 507 251 633 l 251 479 q 274 312 251 379 q 333 206 296 244 q 413 149 369 167 q 500 132 457 132 q 655 178 600 132 q 721 306 710 225 l 896 306 q 855 158 888 219 q 769 59 822 97 q 647 3 715 21 q 500 -15 579 -15 m 410 1042 l 563 1250 l 757 1250 l 549 1042 l 410 1042 z "},"Č":{"ha":958,"x_min":76,"x_max":896,"o":"m 500 -15 q 285 35 381 -15 q 133 195 189 86 q 76 479 76 304 l 76 507 q 110 724 76 633 q 201 874 143 815 q 335 960 258 932 q 500 988 413 988 q 650 967 581 988 q 772 907 719 947 q 857 807 825 867 q 896 667 889 747 l 721 667 q 644 799 703 757 q 500 840 585 840 q 382 809 439 840 q 288 706 325 778 q 251 507 251 633 l 251 479 q 274 312 251 379 q 333 206 296 244 q 413 149 369 167 q 500 132 457 132 q 655 178 600 132 q 721 306 710 225 l 896 306 q 855 158 888 219 q 769 59 822 97 q 647 3 715 21 q 500 -15 579 -15 m 396 1042 l 243 1250 l 382 1250 l 479 1153 l 576 1250 l 715 1250 l 563 1042 l 396 1042 z "},"Ç":{"ha":958,"x_min":76,"x_max":896,"o":"m 500 -15 q 285 35 381 -15 q 133 195 189 86 q 76 479 76 304 l 76 507 q 110 724 76 633 q 201 874 143 815 q 335 960 258 932 q 500 988 413 988 q 650 967 581 988 q 772 907 719 947 q 857 807 825 867 q 896 667 889 747 l 721 667 q 644 799 703 757 q 500 840 585 840 q 382 809 439 840 q 288 706 325 778 q 251 507 251 633 l 251 479 q 274 312 251 379 q 333 206 296 244 q 413 149 369 167 q 500 132 457 132 q 655 178 600 132 q 721 306 710 225 l 896 306 q 855 158 888 219 q 769 59 822 97 q 647 3 715 21 q 500 -15 579 -15 m 458 -293 q 419 -292 436 -293 q 392 -289 403 -290 q 379 -286 385 -287 q 368 -283 374 -285 l 368 -189 l 388 -192 q 410 -194 397 -193 q 438 -194 422 -194 q 489 -182 476 -194 q 501 -154 501 -169 q 488 -125 501 -136 q 429 -114 475 -114 l 453 14 l 553 14 l 543 -51 q 614 -96 596 -64 q 632 -160 632 -128 q 591 -257 632 -221 q 458 -293 550 -293 z "},"Ċ":{"ha":958,"x_min":76,"x_max":896,"o":"m 500 -15 q 285 35 381 -15 q 133 195 189 86 q 76 479 76 304 l 76 507 q 110 724 76 633 q 201 874 143 815 q 335 960 258 932 q 500 988 413 988 q 650 967 581 988 q 772 907 719 947 q 857 807 825 867 q 896 667 889 747 l 721 667 q 644 799 703 757 q 500 840 585 840 q 382 809 439 840 q 288 706 325 778 q 251 507 251 633 l 251 479 q 274 312 251 379 q 333 206 296 244 q 413 149 369 167 q 500 132 457 132 q 655 178 600 132 q 721 306 710 225 l 896 306 q 855 158 888 219 q 769 59 822 97 q 647 3 715 21 q 500 -15 579 -15 m 479 1043 q 405 1072 433 1043 q 376 1146 376 1100 q 405 1220 376 1192 q 479 1249 433 1249 q 553 1220 525 1249 q 582 1146 582 1192 q 553 1072 582 1100 q 479 1043 525 1043 z "},"D":{"ha":979,"x_min":125,"x_max":903,"o":"m 125 0 l 125 972 l 438 972 q 689 920 585 972 q 848 765 793 868 q 903 507 903 661 l 903 479 q 846 217 903 324 q 681 55 789 110 q 424 0 574 0 l 125 0 m 292 144 l 410 144 q 577 177 506 144 q 688 283 649 210 q 728 479 728 357 l 728 507 q 688 692 728 621 q 578 795 647 763 q 424 828 510 828 l 292 828 l 292 144 z "},"Ð":{"ha":1007,"x_min":42,"x_max":931,"o":"m 153 0 l 153 428 l 42 428 l 42 558 l 153 558 l 153 972 l 465 972 q 717 920 613 972 q 876 765 821 868 q 931 507 931 661 l 931 479 q 874 217 931 324 q 709 55 817 110 q 451 0 601 0 l 153 0 m 319 144 l 438 144 q 605 177 533 144 q 716 283 676 210 q 756 479 756 357 l 756 507 q 715 692 756 621 q 606 795 675 763 q 451 828 538 828 l 319 828 l 319 558 l 542 558 l 542 428 l 319 428 l 319 144 z "},"Ď":{"ha":979,"x_min":125,"x_max":903,"o":"m 125 0 l 125 972 l 438 972 q 689 920 585 972 q 848 765 793 868 q 903 507 903 661 l 903 479 q 846 217 903 324 q 681 55 789 110 q 424 0 574 0 l 125 0 m 292 144 l 410 144 q 577 177 506 144 q 688 283 649 210 q 728 479 728 357 l 728 507 q 688 692 728 621 q 578 795 647 763 q 424 828 510 828 l 292 828 l 292 144 m 407 1042 l 254 1250 l 393 1250 l 490 1153 l 588 1250 l 726 1250 l 574 1042 l 407 1042 z "},"Đ":{"ha":1007,"x_min":42,"x_max":931,"o":"m 153 0 l 153 428 l 42 428 l 42 558 l 153 558 l 153 972 l 465 972 q 717 920 613 972 q 876 765 821 868 q 931 507 931 661 l 931 479 q 874 217 931 324 q 709 55 817 110 q 451 0 601 0 l 153 0 m 319 144 l 438 144 q 605 177 533 144 q 716 283 676 210 q 756 479 756 357 l 756 507 q 715 692 756 621 q 606 795 675 763 q 451 828 538 828 l 319 828 l 319 558 l 542 558 l 542 428 l 319 428 l 319 144 z "},"E":{"ha":854,"x_min":125,"x_max":778,"o":"m 125 0 l 125 972 l 778 972 l 778 828 l 292 828 l 292 572 l 736 572 l 736 428 l 292 428 l 292 144 l 778 144 l 778 0 l 125 0 z "},"É":{"ha":854,"x_min":125,"x_max":778,"o":"m 125 0 l 125 972 l 778 972 l 778 828 l 292 828 l 292 572 l 736 572 l 736 428 l 292 428 l 292 144 l 778 144 l 778 0 l 125 0 m 382 1042 l 535 1250 l 729 1250 l 521 1042 l 382 1042 z "},"Ě":{"ha":854,"x_min":125,"x_max":778,"o":"m 125 0 l 125 972 l 778 972 l 778 828 l 292 828 l 292 572 l 736 572 l 736 428 l 292 428 l 292 144 l 778 144 l 778 0 l 125 0 m 368 1042 l 215 1250 l 354 1250 l 451 1153 l 549 1250 l 688 1250 l 535 1042 l 368 1042 z "},"Ê":{"ha":854,"x_min":125,"x_max":778,"o":"m 125 0 l 125 972 l 778 972 l 778 828 l 292 828 l 292 572 l 736 572 l 736 428 l 292 428 l 292 144 l 778 144 l 778 0 l 125 0 m 215 1042 l 368 1250 l 535 1250 l 688 1042 l 549 1042 l 451 1139 l 354 1042 l 215 1042 z "},"Ë":{"ha":854,"x_min":125,"x_max":778,"o":"m 125 0 l 125 972 l 778 972 l 778 828 l 292 828 l 292 572 l 736 572 l 736 428 l 292 428 l 292 144 l 778 144 l 778 0 l 125 0 m 292 1049 q 222 1076 249 1049 q 194 1146 194 1103 q 222 1216 194 1189 q 292 1243 249 1243 q 362 1216 335 1243 q 389 1146 389 1189 q 362 1076 389 1103 q 292 1049 335 1049 m 611 1049 q 541 1076 568 1049 q 514 1146 514 1103 q 541 1216 514 1189 q 611 1243 568 1243 q 681 1216 654 1243 q 708 1146 708 1189 q 681 1076 708 1103 q 611 1049 654 1049 z "},"Ė":{"ha":854,"x_min":125,"x_max":778,"o":"m 125 0 l 125 972 l 778 972 l 778 828 l 292 828 l 292 572 l 736 572 l 736 428 l 292 428 l 292 144 l 778 144 l 778 0 l 125 0 m 451 1043 q 377 1072 406 1043 q 349 1146 349 1100 q 377 1220 349 1192 q 451 1249 406 1249 q 526 1220 497 1249 q 554 1146 554 1192 q 526 1072 554 1100 q 451 1043 497 1043 z "},"È":{"ha":854,"x_min":125,"x_max":778,"o":"m 125 0 l 125 972 l 778 972 l 778 828 l 292 828 l 292 572 l 736 572 l 736 428 l 292 428 l 292 144 l 778 144 l 778 0 l 125 0 m 382 1042 l 174 1250 l 368 1250 l 521 1042 l 382 1042 z "},"Ē":{"ha":854,"x_min":125,"x_max":778,"o":"m 125 0 l 125 972 l 778 972 l 778 828 l 292 828 l 292 572 l 736 572 l 736 428 l 292 428 l 292 144 l 778 144 l 778 0 l 125 0 m 243 1081 l 243 1211 l 660 1211 l 660 1081 l 243 1081 z "},"Ę":{"ha":854,"x_min":125,"x_max":778,"o":"m 125 0 l 125 972 l 778 972 l 778 828 l 292 828 l 292 572 l 736 572 l 736 428 l 292 428 l 292 144 l 778 144 l 778 0 l 125 0 m 697 -293 q 585 -258 621 -293 q 549 -169 549 -224 q 562 -108 549 -136 q 597 -59 575 -81 q 644 -22 618 -37 q 693 0 669 -7 l 778 0 q 741 -24 767 -3 q 693 -75 715 -44 q 671 -139 671 -106 q 685 -181 671 -165 q 739 -196 700 -196 q 756 -194 749 -196 q 778 -192 764 -193 l 778 -286 q 735 -292 753 -292 q 697 -293 717 -293 z "},"F":{"ha":826,"x_min":125,"x_max":771,"o":"m 125 0 l 125 972 l 771 972 l 771 828 l 292 828 l 292 551 l 729 551 l 729 407 l 292 407 l 292 0 l 125 0 z "},"G":{"ha":993,"x_min":76,"x_max":924,"o":"m 514 -15 q 282 40 381 -15 q 130 206 183 96 q 76 479 76 317 l 76 507 q 108 711 76 622 q 197 862 139 800 q 335 956 254 924 q 514 988 415 988 q 653 967 589 988 q 768 909 718 947 q 852 813 818 871 q 903 681 886 756 l 722 681 q 669 776 703 742 q 596 826 636 811 q 514 840 556 840 q 376 804 436 840 q 284 694 317 768 q 251 507 251 621 l 251 479 q 271 325 251 390 q 326 217 290 260 q 409 153 361 174 q 514 132 457 132 q 639 157 586 132 q 724 235 692 182 q 763 368 756 288 l 542 368 l 542 507 l 924 507 l 924 451 q 895 247 924 335 q 814 101 867 160 q 685 14 761 43 q 514 -15 610 -15 z "},"Ğ":{"ha":993,"x_min":76,"x_max":924,"o":"m 514 -15 q 282 40 381 -15 q 130 206 183 96 q 76 479 76 317 l 76 507 q 108 711 76 622 q 197 862 139 800 q 335 956 254 924 q 514 988 415 988 q 653 967 589 988 q 768 909 718 947 q 852 813 818 871 q 903 681 886 756 l 722 681 q 669 776 703 742 q 596 826 636 811 q 514 840 556 840 q 376 804 436 840 q 284 694 317 768 q 251 507 251 621 l 251 479 q 271 325 251 390 q 326 217 290 260 q 409 153 361 174 q 514 132 457 132 q 639 157 586 132 q 724 235 692 182 q 763 368 756 288 l 542 368 l 542 507 l 924 507 l 924 451 q 895 247 924 335 q 814 101 867 160 q 685 14 761 43 q 514 -15 610 -15 z "},"Ģ":{"ha":993,"x_min":76,"x_max":924,"o":"m 514 -15 q 282 40 381 -15 q 130 206 183 96 q 76 479 76 317 l 76 507 q 108 711 76 622 q 197 862 139 800 q 335 956 254 924 q 514 988 415 988 q 653 967 589 988 q 768 909 718 947 q 852 813 818 871 q 903 681 886 756 l 722 681 q 669 776 703 742 q 596 826 636 811 q 514 840 556 840 q 376 804 436 840 q 284 694 317 768 q 251 507 251 621 l 251 479 q 271 325 251 390 q 326 217 290 260 q 409 153 361 174 q 514 132 457 132 q 639 157 586 132 q 724 235 692 182 q 763 368 756 288 l 542 368 l 542 507 l 924 507 l 924 451 q 895 247 924 335 q 814 101 867 160 q 685 14 761 43 q 514 -15 610 -15 m 428 -314 l 428 -62 l 567 -62 l 567 -189 l 496 -314 l 428 -314 z "},"Ġ":{"ha":993,"x_min":76,"x_max":924,"o":"m 514 -15 q 282 40 381 -15 q 130 206 183 96 q 76 479 76 317 l 76 507 q 108 711 76 622 q 197 862 139 800 q 335 956 254 924 q 514 988 415 988 q 653 967 589 988 q 768 909 718 947 q 852 813 818 871 q 903 681 886 756 l 722 681 q 669 776 703 742 q 596 826 636 811 q 514 840 556 840 q 376 804 436 840 q 284 694 317 768 q 251 507 251 621 l 251 479 q 271 325 251 390 q 326 217 290 260 q 409 153 361 174 q 514 132 457 132 q 639 157 586 132 q 724 235 692 182 q 763 368 756 288 l 542 368 l 542 507 l 924 507 l 924 451 q 895 247 924 335 q 814 101 867 160 q 685 14 761 43 q 514 -15 610 -15 m 497 1043 q 423 1072 451 1043 q 394 1146 394 1100 q 423 1220 394 1192 q 497 1249 451 1249 q 572 1220 543 1249 q 600 1146 600 1192 q 572 1072 600 1100 q 497 1043 543 1043 z "},"H":{"ha":1056,"x_min":125,"x_max":931,"o":"m 125 0 l 125 972 l 292 972 l 292 572 l 764 572 l 764 972 l 931 972 l 931 0 l 764 0 l 764 428 l 292 428 l 292 0 l 125 0 z "},"Ħ":{"ha":1056,"x_min":33,"x_max":1022,"o":"m 33 842 l 1022 842 l 1022 711 l 33 711 l 33 842 m 125 0 l 125 972 l 292 972 l 292 572 l 764 572 l 764 972 l 931 972 l 931 0 l 764 0 l 764 428 l 292 428 l 292 0 l 125 0 z "},"I":{"ha":444,"x_min":139,"x_max":306,"o":"m 139 0 l 139 972 l 306 972 l 306 0 l 139 0 z "},"Ĳ":{"ha":1222,"x_min":139,"x_max":1097,"o":"m 139 0 l 139 972 l 306 972 l 306 0 l 139 0 m 778 -15 q 611 19 678 -15 q 510 120 544 54 q 472 278 476 186 l 633 278 q 674 169 639 206 q 778 132 708 132 q 862 151 828 132 q 913 218 896 171 q 931 347 931 265 l 931 972 l 1097 972 l 1097 347 q 1060 137 1097 217 q 953 21 1024 57 q 778 -15 882 -15 z "},"Í":{"ha":444,"x_min":139,"x_max":500,"o":"m 139 0 l 139 972 l 306 972 l 306 0 l 139 0 m 153 1042 l 306 1250 l 500 1250 l 292 1042 l 153 1042 z "},"Î":{"ha":444,"x_min":-14,"x_max":458,"o":"m 139 0 l 139 972 l 306 972 l 306 0 l 139 0 m -14 1042 l 139 1250 l 306 1250 l 458 1042 l 319 1042 l 222 1139 l 125 1042 l -14 1042 z "},"Ï":{"ha":444,"x_min":-35,"x_max":479,"o":"m 139 0 l 139 972 l 306 972 l 306 0 l 139 0 m 63 1049 q -8 1076 19 1049 q -35 1146 -35 1103 q -8 1216 -35 1189 q 63 1243 19 1243 q 133 1216 106 1243 q 160 1146 160 1189 q 133 1076 160 1103 q 63 1049 106 1049 m 382 1049 q 312 1076 339 1049 q 285 1146 285 1103 q 312 1216 285 1189 q 382 1243 339 1243 q 452 1216 425 1243 q 479 1146 479 1189 q 452 1076 479 1103 q 382 1049 425 1049 z "},"İ":{"ha":444,"x_min":119,"x_max":325,"o":"m 139 0 l 139 972 l 306 972 l 306 0 l 139 0 m 222 1043 q 148 1072 176 1043 q 119 1146 119 1100 q 148 1220 119 1192 q 222 1249 176 1249 q 297 1220 268 1249 q 325 1146 325 1192 q 297 1072 325 1100 q 222 1043 268 1043 z "},"Ì":{"ha":444,"x_min":-56,"x_max":306,"o":"m 139 0 l 139 972 l 306 972 l 306 0 l 139 0 m 153 1042 l -56 1250 l 139 1250 l 292 1042 l 153 1042 z "},"Ī":{"ha":444,"x_min":14,"x_max":431,"o":"m 139 0 l 139 972 l 306 972 l 306 0 l 139 0 m 14 1081 l 14 1211 l 431 1211 l 431 1081 l 14 1081 z "},"Į":{"ha":444,"x_min":76,"x_max":306,"o":"m 139 0 l 139 972 l 306 972 l 306 0 l 139 0 m 225 -293 q 113 -258 149 -293 q 76 -169 76 -224 q 90 -108 76 -136 q 124 -59 103 -81 q 172 -22 146 -37 q 221 0 197 -7 l 306 0 q 269 -24 294 -3 q 221 -75 243 -44 q 199 -139 199 -106 q 213 -181 199 -165 q 267 -196 228 -196 q 284 -194 276 -196 q 306 -192 292 -193 l 306 -286 q 263 -292 281 -292 q 225 -293 244 -293 z "},"J":{"ha":778,"x_min":28,"x_max":653,"o":"m 333 -15 q 167 19 233 -15 q 66 120 100 54 q 28 278 32 186 l 189 278 q 229 169 194 206 q 333 132 264 132 q 417 151 383 132 q 469 218 451 171 q 486 347 486 265 l 486 972 l 653 972 l 653 347 q 616 137 653 217 q 508 21 579 57 q 333 -15 438 -15 z "},"K":{"ha":965,"x_min":125,"x_max":931,"o":"m 125 0 l 125 972 l 292 972 l 292 508 l 703 972 l 903 972 l 539 575 l 931 0 l 728 0 l 428 460 l 292 313 l 292 0 l 125 0 z "},"Ķ":{"ha":965,"x_min":125,"x_max":931,"o":"m 125 0 l 125 972 l 292 972 l 292 508 l 703 972 l 903 972 l 539 575 l 931 0 l 728 0 l 428 460 l 292 313 l 292 0 l 125 0 m 414 -314 l 414 -62 l 553 -62 l 553 -189 l 482 -314 l 414 -314 z "},"L":{"ha":792,"x_min":125,"x_max":764,"o":"m 125 0 l 125 972 l 292 972 l 292 144 l 764 144 l 764 0 l 125 0 z "},"Ĺ":{"ha":792,"x_min":125,"x_max":764,"o":"m 125 0 l 125 972 l 292 972 l 292 144 l 764 144 l 764 0 l 125 0 m 139 1042 l 292 1250 l 486 1250 l 278 1042 l 139 1042 z "},"Ľ":{"ha":792,"x_min":125,"x_max":782,"o":"m 125 0 l 125 972 l 292 972 l 292 144 l 764 144 l 764 0 l 125 0 m 624 683 l 639 854 l 639 972 l 782 972 l 782 854 l 689 683 l 624 683 z "},"Ļ":{"ha":792,"x_min":125,"x_max":764,"o":"m 125 0 l 125 972 l 292 972 l 292 144 l 764 144 l 764 0 l 125 0 m 326 -314 l 326 -62 l 465 -62 l 465 -189 l 394 -314 l 326 -314 z "},"Ł":{"ha":833,"x_min":28,"x_max":806,"o":"m 167 0 l 167 346 l 28 265 l 28 410 l 167 490 l 167 972 l 333 972 l 333 586 l 569 722 l 569 578 l 333 442 l 333 144 l 806 144 l 806 0 l 167 0 z "},"M":{"ha":1208,"x_min":125,"x_max":1083,"o":"m 125 0 l 125 972 l 297 972 l 607 396 l 917 972 l 1083 972 l 1083 0 l 917 0 l 917 681 l 660 201 l 549 201 l 292 681 l 292 0 l 125 0 z "},"N":{"ha":1056,"x_min":125,"x_max":931,"o":"m 125 0 l 125 972 l 286 972 l 764 278 l 764 972 l 931 972 l 931 0 l 769 0 l 292 694 l 292 0 l 125 0 z "},"Ń":{"ha":1056,"x_min":125,"x_max":931,"o":"m 125 0 l 125 972 l 286 972 l 764 278 l 764 972 l 931 972 l 931 0 l 769 0 l 292 694 l 292 0 l 125 0 m 458 1042 l 611 1250 l 806 1250 l 597 1042 l 458 1042 z "},"Ň":{"ha":1056,"x_min":125,"x_max":931,"o":"m 125 0 l 125 972 l 286 972 l 764 278 l 764 972 l 931 972 l 931 0 l 769 0 l 292 694 l 292 0 l 125 0 m 444 1042 l 292 1250 l 431 1250 l 528 1153 l 625 1250 l 764 1250 l 611 1042 l 444 1042 z "},"Ņ":{"ha":1056,"x_min":125,"x_max":931,"o":"m 125 0 l 125 972 l 286 972 l 764 278 l 764 972 l 931 972 l 931 0 l 769 0 l 292 694 l 292 0 l 125 0 m 458 -314 l 458 -62 l 597 -62 l 597 -189 l 526 -314 l 458 -314 z "},"Ñ":{"ha":1056,"x_min":125,"x_max":931,"o":"m 125 0 l 125 972 l 286 972 l 764 278 l 764 972 l 931 972 l 931 0 l 769 0 l 292 694 l 292 0 l 125 0 m 625 1049 q 545 1064 576 1049 q 488 1095 514 1079 q 431 1111 463 1111 q 403 1103 415 1111 q 383 1083 390 1094 q 374 1070 378 1078 q 368 1056 371 1063 l 278 1097 q 290 1135 283 1117 q 307 1169 297 1154 q 353 1220 324 1197 q 431 1243 383 1243 q 510 1227 479 1243 q 568 1196 542 1211 q 625 1181 594 1181 q 652 1189 640 1181 q 672 1208 664 1197 q 681 1222 676 1215 q 688 1236 685 1229 l 778 1194 q 765 1155 772 1174 q 749 1121 758 1136 q 702 1071 732 1093 q 625 1049 672 1049 z "},"Ŋ":{"ha":1056,"x_min":125,"x_max":931,"o":"m 694 -293 q 660 -292 679 -293 q 625 -289 640 -292 l 625 -156 q 649 -159 636 -158 q 674 -160 663 -160 q 731 -146 710 -160 q 760 -95 751 -132 q 769 7 769 -58 l 769 736 l 931 736 l 931 0 q 908 -179 931 -115 q 835 -268 886 -243 q 694 -293 783 -293 m 125 0 l 125 972 l 286 972 l 764 278 l 764 972 l 931 972 l 931 0 l 769 0 l 292 694 l 292 0 l 125 0 z "},"O":{"ha":1042,"x_min":76,"x_max":965,"o":"m 521 -15 q 352 13 432 -15 q 210 99 272 40 q 112 252 147 158 q 76 479 76 346 l 76 507 q 112 726 76 635 q 210 875 147 817 q 352 960 272 933 q 521 988 432 988 q 690 960 610 988 q 832 875 769 933 q 930 726 894 817 q 965 507 965 635 l 965 479 q 930 252 965 346 q 832 99 894 158 q 690 13 769 40 q 521 -15 610 -15 m 521 132 q 651 165 590 132 q 751 274 713 199 q 790 479 790 350 l 790 507 q 751 702 790 629 q 651 808 713 775 q 521 840 590 840 q 390 808 451 840 q 290 702 328 775 q 251 507 251 629 l 251 479 q 290 274 251 350 q 390 165 328 199 q 521 132 451 132 z "},"Ó":{"ha":1042,"x_min":76,"x_max":965,"o":"m 521 -15 q 352 13 432 -15 q 210 99 272 40 q 112 252 147 158 q 76 479 76 346 l 76 507 q 112 726 76 635 q 210 875 147 817 q 352 960 272 933 q 521 988 432 988 q 690 960 610 988 q 832 875 769 933 q 930 726 894 817 q 965 507 965 635 l 965 479 q 930 252 965 346 q 832 99 894 158 q 690 13 769 40 q 521 -15 610 -15 m 521 132 q 651 165 590 132 q 751 274 713 199 q 790 479 790 350 l 790 507 q 751 702 790 629 q 651 808 713 775 q 521 840 590 840 q 390 808 451 840 q 290 702 328 775 q 251 507 251 629 l 251 479 q 290 274 251 350 q 390 165 328 199 q 521 132 451 132 m 451 1042 l 604 1250 l 799 1250 l 590 1042 l 451 1042 z "},"Ô":{"ha":1042,"x_min":76,"x_max":965,"o":"m 521 -15 q 352 13 432 -15 q 210 99 272 40 q 112 252 147 158 q 76 479 76 346 l 76 507 q 112 726 76 635 q 210 875 147 817 q 352 960 272 933 q 521 988 432 988 q 690 960 610 988 q 832 875 769 933 q 930 726 894 817 q 965 507 965 635 l 965 479 q 930 252 965 346 q 832 99 894 158 q 690 13 769 40 q 521 -15 610 -15 m 521 132 q 651 165 590 132 q 751 274 713 199 q 790 479 790 350 l 790 507 q 751 702 790 629 q 651 808 713 775 q 521 840 590 840 q 390 808 451 840 q 290 702 328 775 q 251 507 251 629 l 251 479 q 290 274 251 350 q 390 165 328 199 q 521 132 451 132 m 285 1042 l 438 1250 l 604 1250 l 757 1042 l 618 1042 l 521 1139 l 424 1042 l 285 1042 z "},"Ö":{"ha":1042,"x_min":76,"x_max":965,"o":"m 521 -15 q 352 13 432 -15 q 210 99 272 40 q 112 252 147 158 q 76 479 76 346 l 76 507 q 112 726 76 635 q 210 875 147 817 q 352 960 272 933 q 521 988 432 988 q 690 960 610 988 q 832 875 769 933 q 930 726 894 817 q 965 507 965 635 l 965 479 q 930 252 965 346 q 832 99 894 158 q 690 13 769 40 q 521 -15 610 -15 m 521 132 q 651 165 590 132 q 751 274 713 199 q 790 479 790 350 l 790 507 q 751 702 790 629 q 651 808 713 775 q 521 840 590 840 q 390 808 451 840 q 290 702 328 775 q 251 507 251 629 l 251 479 q 290 274 251 350 q 390 165 328 199 q 521 132 451 132 m 361 1049 q 291 1076 318 1049 q 264 1146 264 1103 q 291 1216 264 1189 q 361 1243 318 1243 q 431 1216 404 1243 q 458 1146 458 1189 q 431 1076 458 1103 q 361 1049 404 1049 m 681 1049 q 610 1076 638 1049 q 583 1146 583 1103 q 610 1216 583 1189 q 681 1243 638 1243 q 751 1216 724 1243 q 778 1146 778 1189 q 751 1076 778 1103 q 681 1049 724 1049 z "},"Ò":{"ha":1042,"x_min":76,"x_max":965,"o":"m 521 -15 q 352 13 432 -15 q 210 99 272 40 q 112 252 147 158 q 76 479 76 346 l 76 507 q 112 726 76 635 q 210 875 147 817 q 352 960 272 933 q 521 988 432 988 q 690 960 610 988 q 832 875 769 933 q 930 726 894 817 q 965 507 965 635 l 965 479 q 930 252 965 346 q 832 99 894 158 q 690 13 769 40 q 521 -15 610 -15 m 521 132 q 651 165 590 132 q 751 274 713 199 q 790 479 790 350 l 790 507 q 751 702 790 629 q 651 808 713 775 q 521 840 590 840 q 390 808 451 840 q 290 702 328 775 q 251 507 251 629 l 251 479 q 290 274 251 350 q 390 165 328 199 q 521 132 451 132 m 451 1042 l 243 1250 l 438 1250 l 590 1042 l 451 1042 z "},"Ő":{"ha":1042,"x_min":76,"x_max":965,"o":"m 521 -15 q 352 13 432 -15 q 210 99 272 40 q 112 252 147 158 q 76 479 76 346 l 76 507 q 112 726 76 635 q 210 875 147 817 q 352 960 272 933 q 521 988 432 988 q 690 960 610 988 q 832 875 769 933 q 930 726 894 817 q 965 507 965 635 l 965 479 q 930 252 965 346 q 832 99 894 158 q 690 13 769 40 q 521 -15 610 -15 m 521 132 q 651 165 590 132 q 751 274 713 199 q 790 479 790 350 l 790 507 q 751 702 790 629 q 651 808 713 775 q 521 840 590 840 q 390 808 451 840 q 290 702 328 775 q 251 507 251 629 l 251 479 q 290 274 251 350 q 390 165 328 199 q 521 132 451 132 m 349 1042 l 504 1250 l 663 1250 l 476 1042 l 349 1042 m 567 1042 l 757 1250 l 918 1250 l 694 1042 l 567 1042 z "},"Ō":{"ha":1042,"x_min":76,"x_max":965,"o":"m 521 -15 q 352 13 432 -15 q 210 99 272 40 q 112 252 147 158 q 76 479 76 346 l 76 507 q 112 726 76 635 q 210 875 147 817 q 352 960 272 933 q 521 988 432 988 q 690 960 610 988 q 832 875 769 933 q 930 726 894 817 q 965 507 965 635 l 965 479 q 930 252 965 346 q 832 99 894 158 q 690 13 769 40 q 521 -15 610 -15 m 521 132 q 651 165 590 132 q 751 274 713 199 q 790 479 790 350 l 790 507 q 751 702 790 629 q 651 808 713 775 q 521 840 590 840 q 390 808 451 840 q 290 702 328 775 q 251 507 251 629 l 251 479 q 290 274 251 350 q 390 165 328 199 q 521 132 451 132 m 313 1081 l 313 1211 l 729 1211 l 729 1081 l 313 1081 z "},"Ø":{"ha":1042,"x_min":76,"x_max":965,"o":"m 521 -15 q 377 4 446 -15 q 250 65 308 24 l 185 -15 l 104 51 l 175 139 q 103 283 129 199 q 76 479 76 367 l 76 507 q 112 726 76 635 q 210 875 147 817 q 352 960 272 933 q 521 988 432 988 q 665 968 596 988 q 792 907 733 949 l 857 988 l 938 921 l 868 833 q 939 695 913 775 q 965 507 965 615 l 965 479 q 930 252 965 346 q 832 99 894 158 q 690 13 769 40 q 521 -15 610 -15 m 521 132 q 651 165 590 132 q 751 274 713 199 q 790 479 790 350 l 790 507 q 781 611 790 565 q 754 693 771 657 l 351 192 q 431 146 388 160 q 521 132 474 132 m 521 840 q 390 808 451 840 q 290 702 328 775 q 251 507 251 629 l 251 479 q 261 367 251 417 q 288 281 271 318 l 690 781 q 610 826 654 813 q 521 840 567 840 z "},"Õ":{"ha":1042,"x_min":76,"x_max":965,"o":"m 521 -15 q 352 13 432 -15 q 210 99 272 40 q 112 252 147 158 q 76 479 76 346 l 76 507 q 112 726 76 635 q 210 875 147 817 q 352 960 272 933 q 521 988 432 988 q 690 960 610 988 q 832 875 769 933 q 930 726 894 817 q 965 507 965 635 l 965 479 q 930 252 965 346 q 832 99 894 158 q 690 13 769 40 q 521 -15 610 -15 m 521 132 q 651 165 590 132 q 751 274 713 199 q 790 479 790 350 l 790 507 q 751 702 790 629 q 651 808 713 775 q 521 840 590 840 q 390 808 451 840 q 290 702 328 775 q 251 507 251 629 l 251 479 q 290 274 251 350 q 390 165 328 199 q 521 132 451 132 m 618 1049 q 538 1064 569 1049 q 481 1095 507 1079 q 424 1111 456 1111 q 396 1103 408 1111 q 376 1083 383 1094 q 367 1070 371 1078 q 361 1056 364 1063 l 271 1097 q 283 1135 276 1117 q 300 1169 290 1154 q 347 1220 317 1197 q 424 1243 376 1243 q 503 1227 472 1243 q 561 1196 535 1211 q 618 1181 588 1181 q 645 1189 633 1181 q 665 1208 657 1197 q 674 1222 669 1215 q 681 1236 678 1229 l 771 1194 q 758 1155 765 1174 q 742 1121 751 1136 q 695 1071 725 1093 q 618 1049 665 1049 z "},"Œ":{"ha":1528,"x_min":76,"x_max":1451,"o":"m 521 -15 q 352 13 432 -15 q 210 99 272 40 q 112 252 147 158 q 76 479 76 346 l 76 507 q 112 726 76 635 q 210 875 147 817 q 352 960 272 933 q 521 988 432 988 q 672 964 600 988 q 799 882 743 940 l 799 972 l 1451 972 l 1451 828 l 965 828 l 965 572 l 1410 572 l 1410 428 l 965 428 l 965 144 l 1451 144 l 1451 0 l 799 0 l 799 90 q 672 8 743 32 q 521 -15 600 -15 m 521 132 q 652 165 590 132 q 753 275 714 199 q 792 479 792 351 l 792 507 q 753 701 792 628 q 652 808 714 775 q 521 840 590 840 q 390 808 451 840 q 290 702 328 775 q 251 507 251 629 l 251 479 q 290 274 251 350 q 390 165 328 199 q 521 132 451 132 z "},"P":{"ha":917,"x_min":125,"x_max":861,"o":"m 125 0 l 125 972 l 479 972 q 694 934 610 972 q 820 826 779 896 q 861 663 861 757 q 820 499 861 568 q 694 391 779 429 q 479 353 610 353 l 292 353 l 292 0 l 125 0 m 292 497 l 465 497 q 646 538 597 497 q 694 663 694 579 q 646 786 694 744 q 465 828 597 828 l 292 828 l 292 497 z "},"Þ":{"ha":917,"x_min":125,"x_max":861,"o":"m 125 0 l 125 972 l 292 972 l 292 811 l 479 811 q 694 773 610 811 q 820 665 779 735 q 861 500 861 596 q 820 336 861 406 q 694 229 779 267 q 479 192 610 192 l 292 192 l 292 0 l 125 0 m 292 336 l 465 336 q 646 377 597 336 q 694 500 694 418 q 646 625 694 583 q 465 667 597 667 l 292 667 l 292 336 z "},"Q":{"ha":1042,"x_min":76,"x_max":965,"o":"m 521 -15 q 352 13 432 -15 q 210 99 272 40 q 112 252 147 158 q 76 479 76 346 l 76 507 q 112 726 76 635 q 210 875 147 817 q 352 960 272 933 q 521 988 432 988 q 690 960 610 988 q 832 875 769 933 q 930 726 894 817 q 965 507 965 635 l 965 479 q 938 281 965 365 q 864 136 911 196 l 951 50 l 860 -42 l 768 50 q 651 1 714 17 q 521 -15 588 -15 m 521 132 q 589 140 556 132 q 653 165 622 147 l 507 311 l 599 403 l 743 258 q 778 353 765 299 q 790 479 790 407 l 790 507 q 751 702 790 629 q 651 808 713 775 q 521 840 590 840 q 390 808 451 840 q 290 702 328 775 q 251 507 251 629 l 251 479 q 290 274 251 350 q 390 165 328 199 q 521 132 451 132 z "},"R":{"ha":951,"x_min":125,"x_max":889,"o":"m 125 0 l 125 972 l 493 972 q 697 933 615 972 q 819 826 778 894 q 861 669 861 758 q 807 497 861 569 q 644 392 753 424 l 889 0 l 706 0 l 490 372 l 292 372 l 292 0 l 125 0 m 292 511 l 465 511 q 644 553 593 511 q 694 669 694 594 q 644 786 694 744 q 465 828 593 828 l 292 828 l 292 511 z "},"Ŕ":{"ha":951,"x_min":125,"x_max":889,"o":"m 125 0 l 125 972 l 493 972 q 697 933 615 972 q 819 826 778 894 q 861 669 861 758 q 807 497 861 569 q 644 392 753 424 l 889 0 l 706 0 l 490 372 l 292 372 l 292 0 l 125 0 m 292 511 l 465 511 q 644 553 593 511 q 694 669 694 594 q 644 786 694 744 q 465 828 593 828 l 292 828 l 292 511 m 407 1042 l 560 1250 l 754 1250 l 546 1042 l 407 1042 z "},"Ř":{"ha":951,"x_min":125,"x_max":889,"o":"m 125 0 l 125 972 l 493 972 q 697 933 615 972 q 819 826 778 894 q 861 669 861 758 q 807 497 861 569 q 644 392 753 424 l 889 0 l 706 0 l 490 372 l 292 372 l 292 0 l 125 0 m 292 511 l 465 511 q 644 553 593 511 q 694 669 694 594 q 644 786 694 744 q 465 828 593 828 l 292 828 l 292 511 m 393 1042 l 240 1250 l 379 1250 l 476 1153 l 574 1250 l 713 1250 l 560 1042 l 393 1042 z "},"Ŗ":{"ha":951,"x_min":125,"x_max":889,"o":"m 125 0 l 125 972 l 493 972 q 697 933 615 972 q 819 826 778 894 q 861 669 861 758 q 807 497 861 569 q 644 392 753 424 l 889 0 l 706 0 l 490 372 l 292 372 l 292 0 l 125 0 m 292 511 l 465 511 q 644 553 593 511 q 694 669 694 594 q 644 786 694 744 q 465 828 593 828 l 292 828 l 292 511 m 407 -314 l 407 -62 l 546 -62 l 546 -189 l 475 -314 l 407 -314 z "},"S":{"ha":903,"x_min":69,"x_max":833,"o":"m 451 -15 q 244 21 326 -15 q 120 120 163 57 q 69 264 78 183 l 236 264 q 293 169 247 207 q 451 132 339 132 q 617 170 568 132 q 667 264 667 208 q 639 339 667 310 q 553 390 611 368 q 407 429 496 411 q 238 485 307 451 q 133 576 168 519 q 97 722 97 633 q 138 856 97 796 q 256 951 178 915 q 451 988 335 988 q 641 953 565 988 q 758 860 717 919 q 806 722 799 800 l 639 722 q 583 808 628 775 q 451 840 538 840 q 308 806 351 840 q 264 722 264 771 q 319 622 264 656 q 490 565 375 589 q 640 523 576 547 q 747 465 704 499 q 812 381 790 431 q 833 264 833 332 q 791 120 833 183 q 664 21 749 57 q 451 -15 579 -15 z "},"Ś":{"ha":903,"x_min":69,"x_max":833,"o":"m 451 -15 q 244 21 326 -15 q 120 120 163 57 q 69 264 78 183 l 236 264 q 293 169 247 207 q 451 132 339 132 q 617 170 568 132 q 667 264 667 208 q 639 339 667 310 q 553 390 611 368 q 407 429 496 411 q 238 485 307 451 q 133 576 168 519 q 97 722 97 633 q 138 856 97 796 q 256 951 178 915 q 451 988 335 988 q 641 953 565 988 q 758 860 717 919 q 806 722 799 800 l 639 722 q 583 808 628 775 q 451 840 538 840 q 308 806 351 840 q 264 722 264 771 q 319 622 264 656 q 490 565 375 589 q 640 523 576 547 q 747 465 704 499 q 812 381 790 431 q 833 264 833 332 q 791 120 833 183 q 664 21 749 57 q 451 -15 579 -15 m 382 1042 l 535 1250 l 729 1250 l 521 1042 l 382 1042 z "},"Š":{"ha":903,"x_min":69,"x_max":833,"o":"m 451 -15 q 244 21 326 -15 q 120 120 163 57 q 69 264 78 183 l 236 264 q 293 169 247 207 q 451 132 339 132 q 617 170 568 132 q 667 264 667 208 q 639 339 667 310 q 553 390 611 368 q 407 429 496 411 q 238 485 307 451 q 133 576 168 519 q 97 722 97 633 q 138 856 97 796 q 256 951 178 915 q 451 988 335 988 q 641 953 565 988 q 758 860 717 919 q 806 722 799 800 l 639 722 q 583 808 628 775 q 451 840 538 840 q 308 806 351 840 q 264 722 264 771 q 319 622 264 656 q 490 565 375 589 q 640 523 576 547 q 747 465 704 499 q 812 381 790 431 q 833 264 833 332 q 791 120 833 183 q 664 21 749 57 q 451 -15 579 -15 m 368 1042 l 215 1250 l 354 1250 l 451 1153 l 549 1250 l 688 1250 l 535 1042 l 368 1042 z "},"Ş":{"ha":903,"x_min":69,"x_max":833,"o":"m 451 -15 q 244 21 326 -15 q 120 120 163 57 q 69 264 78 183 l 236 264 q 293 169 247 207 q 451 132 339 132 q 617 170 568 132 q 667 264 667 208 q 639 339 667 310 q 553 390 611 368 q 407 429 496 411 q 238 485 307 451 q 133 576 168 519 q 97 722 97 633 q 138 856 97 796 q 256 951 178 915 q 451 988 335 988 q 641 953 565 988 q 758 860 717 919 q 806 722 799 800 l 639 722 q 583 808 628 775 q 451 840 538 840 q 308 806 351 840 q 264 722 264 771 q 319 622 264 656 q 490 565 375 589 q 640 523 576 547 q 747 465 704 499 q 812 381 790 431 q 833 264 833 332 q 791 120 833 183 q 664 21 749 57 q 451 -15 579 -15 m 431 -293 q 392 -292 408 -293 q 364 -289 375 -290 q 351 -286 357 -287 q 340 -283 346 -285 l 340 -189 l 360 -192 q 382 -194 369 -193 q 410 -194 394 -194 q 461 -182 449 -194 q 474 -154 474 -169 q 460 -125 474 -136 q 401 -114 447 -114 l 425 14 l 525 14 l 515 -51 q 586 -96 568 -64 q 604 -160 604 -128 q 563 -257 604 -221 q 431 -293 522 -293 z "},"Ș":{"ha":903,"x_min":69,"x_max":833,"o":"m 451 -15 q 244 21 326 -15 q 120 120 163 57 q 69 264 78 183 l 236 264 q 293 169 247 207 q 451 132 339 132 q 617 170 568 132 q 667 264 667 208 q 639 339 667 310 q 553 390 611 368 q 407 429 496 411 q 238 485 307 451 q 133 576 168 519 q 97 722 97 633 q 138 856 97 796 q 256 951 178 915 q 451 988 335 988 q 641 953 565 988 q 758 860 717 919 q 806 722 799 800 l 639 722 q 583 808 628 775 q 451 840 538 840 q 308 806 351 840 q 264 722 264 771 q 319 622 264 656 q 490 565 375 589 q 640 523 576 547 q 747 465 704 499 q 812 381 790 431 q 833 264 833 332 q 791 120 833 183 q 664 21 749 57 q 451 -15 579 -15 m 382 -314 l 382 -62 l 521 -62 l 521 -189 l 450 -314 l 382 -314 z "},"ẞ":{"ha":926,"x_min":118,"x_max":864,"o":"m 483 985 q 642 960 578 985 q 746 891 706 935 q 807 793 786 847 q 833 681 828 739 l 635 535 q 771 492 721 526 q 842 405 821 458 q 864 283 864 351 q 842 166 864 218 q 778 76 821 114 q 674 19 736 39 q 529 0 611 0 l 467 0 l 467 140 l 514 140 q 652 181 610 140 q 694 289 694 221 q 651 397 694 360 q 511 433 608 433 l 451 433 l 451 544 l 665 704 q 617 801 660 763 q 494 839 575 839 q 340 780 390 839 q 289 607 289 721 l 289 0 l 118 0 l 118 626 q 162 813 118 732 q 288 939 206 893 q 483 985 369 985 z "},"T":{"ha":875,"x_min":28,"x_max":847,"o":"m 354 0 l 354 828 l 28 828 l 28 972 l 847 972 l 847 828 l 521 828 l 521 0 l 354 0 z "},"Ť":{"ha":875,"x_min":28,"x_max":847,"o":"m 354 0 l 354 828 l 28 828 l 28 972 l 847 972 l 847 828 l 521 828 l 521 0 l 354 0 m 354 1042 l 201 1250 l 340 1250 l 438 1153 l 535 1250 l 674 1250 l 521 1042 l 354 1042 z "},"Ț":{"ha":875,"x_min":28,"x_max":847,"o":"m 354 0 l 354 828 l 28 828 l 28 972 l 847 972 l 847 828 l 521 828 l 521 0 l 354 0 m 368 -314 l 368 -62 l 507 -62 l 507 -189 l 436 -314 l 368 -314 z "},"U":{"ha":1014,"x_min":111,"x_max":903,"o":"m 507 -15 q 297 29 386 -15 q 160 163 208 74 q 111 389 111 253 l 111 972 l 278 972 l 278 399 q 336 197 278 261 q 507 132 394 132 q 678 197 621 132 q 736 397 736 261 l 736 972 l 903 972 l 903 389 q 854 163 903 253 q 717 29 806 74 q 507 -15 628 -15 z "},"Ú":{"ha":1014,"x_min":111,"x_max":903,"o":"m 507 -15 q 297 29 386 -15 q 160 163 208 74 q 111 389 111 253 l 111 972 l 278 972 l 278 399 q 336 197 278 261 q 507 132 394 132 q 678 197 621 132 q 736 397 736 261 l 736 972 l 903 972 l 903 389 q 854 163 903 253 q 717 29 806 74 q 507 -15 628 -15 m 438 1042 l 590 1250 l 785 1250 l 576 1042 l 438 1042 z "},"Ŭ":{"ha":1014,"x_min":111,"x_max":903,"o":"m 507 -15 q 297 29 386 -15 q 160 163 208 74 q 111 389 111 253 l 111 972 l 278 972 l 278 399 q 336 197 278 261 q 507 132 394 132 q 678 197 621 132 q 736 397 736 261 l 736 972 l 903 972 l 903 389 q 854 163 903 253 q 717 29 806 74 q 507 -15 628 -15 z "},"Û":{"ha":1014,"x_min":111,"x_max":903,"o":"m 507 -15 q 297 29 386 -15 q 160 163 208 74 q 111 389 111 253 l 111 972 l 278 972 l 278 399 q 336 197 278 261 q 507 132 394 132 q 678 197 621 132 q 736 397 736 261 l 736 972 l 903 972 l 903 389 q 854 163 903 253 q 717 29 806 74 q 507 -15 628 -15 m 271 1042 l 424 1250 l 590 1250 l 743 1042 l 604 1042 l 507 1139 l 410 1042 l 271 1042 z "},"Ü":{"ha":1014,"x_min":111,"x_max":903,"o":"m 507 -15 q 297 29 386 -15 q 160 163 208 74 q 111 389 111 253 l 111 972 l 278 972 l 278 399 q 336 197 278 261 q 507 132 394 132 q 678 197 621 132 q 736 397 736 261 l 736 972 l 903 972 l 903 389 q 854 163 903 253 q 717 29 806 74 q 507 -15 628 -15 m 347 1049 q 277 1076 304 1049 q 250 1146 250 1103 q 277 1216 250 1189 q 347 1243 304 1243 q 417 1216 390 1243 q 444 1146 444 1189 q 417 1076 444 1103 q 347 1049 390 1049 m 667 1049 q 597 1076 624 1049 q 569 1146 569 1103 q 597 1216 569 1189 q 667 1243 624 1243 q 737 1216 710 1243 q 764 1146 764 1189 q 737 1076 764 1103 q 667 1049 710 1049 z "},"Ù":{"ha":1014,"x_min":111,"x_max":903,"o":"m 507 -15 q 297 29 386 -15 q 160 163 208 74 q 111 389 111 253 l 111 972 l 278 972 l 278 399 q 336 197 278 261 q 507 132 394 132 q 678 197 621 132 q 736 397 736 261 l 736 972 l 903 972 l 903 389 q 854 163 903 253 q 717 29 806 74 q 507 -15 628 -15 m 438 1042 l 229 1250 l 424 1250 l 576 1042 l 438 1042 z "},"Ű":{"ha":1014,"x_min":111,"x_max":904,"o":"m 507 -15 q 297 29 386 -15 q 160 163 208 74 q 111 389 111 253 l 111 972 l 278 972 l 278 399 q 336 197 278 261 q 507 132 394 132 q 678 197 621 132 q 736 397 736 261 l 736 972 l 903 972 l 903 389 q 854 163 903 253 q 717 29 806 74 q 507 -15 628 -15 m 335 1042 l 490 1250 l 649 1250 l 463 1042 l 335 1042 m 553 1042 l 743 1250 l 904 1250 l 681 1042 l 553 1042 z "},"Ū":{"ha":1014,"x_min":111,"x_max":903,"o":"m 507 -15 q 297 29 386 -15 q 160 163 208 74 q 111 389 111 253 l 111 972 l 278 972 l 278 399 q 336 197 278 261 q 507 132 394 132 q 678 197 621 132 q 736 397 736 261 l 736 972 l 903 972 l 903 389 q 854 163 903 253 q 717 29 806 74 q 507 -15 628 -15 m 299 1081 l 299 1211 l 715 1211 l 715 1081 l 299 1081 z "},"Ų":{"ha":1014,"x_min":111,"x_max":903,"o":"m 507 -15 q 297 29 386 -15 q 160 163 208 74 q 111 389 111 253 l 111 972 l 278 972 l 278 399 q 336 197 278 261 q 507 132 394 132 q 678 197 621 132 q 736 397 736 261 l 736 972 l 903 972 l 903 389 q 854 163 903 253 q 717 29 806 74 q 507 -15 628 -15 m 560 -293 q 447 -258 483 -293 q 411 -169 411 -224 q 424 -108 411 -136 q 459 -59 438 -81 q 506 -22 481 -37 q 556 0 532 -7 l 640 0 q 603 -24 629 -3 q 556 -75 578 -44 q 533 -139 533 -106 q 548 -181 533 -165 q 601 -196 563 -196 q 619 -194 611 -196 q 640 -192 626 -193 l 640 -286 q 597 -292 615 -292 q 560 -293 579 -293 z "},"Ů":{"ha":1014,"x_min":111,"x_max":903,"o":"m 507 -15 q 297 29 386 -15 q 160 163 208 74 q 111 389 111 253 l 111 972 l 278 972 l 278 399 q 336 197 278 261 q 507 132 394 132 q 678 197 621 132 q 736 397 736 261 l 736 972 l 903 972 l 903 389 q 854 163 903 253 q 717 29 806 74 q 507 -15 628 -15 m 507 1014 q 419 1035 458 1014 q 356 1093 379 1057 q 333 1174 333 1129 q 356 1254 333 1218 q 419 1312 379 1290 q 507 1333 458 1333 q 595 1312 556 1333 q 658 1254 635 1290 q 681 1174 681 1218 q 658 1093 681 1129 q 595 1035 635 1057 q 507 1014 556 1014 m 507 1111 q 552 1128 535 1111 q 569 1174 569 1146 q 552 1219 569 1201 q 507 1236 535 1236 q 462 1219 479 1236 q 444 1174 444 1201 q 462 1128 444 1146 q 507 1111 479 1111 z "},"V":{"ha":944,"x_min":21,"x_max":924,"o":"m 396 0 l 21 972 l 199 972 l 483 210 l 757 972 l 924 972 l 563 0 l 396 0 z "},"W":{"ha":1347,"x_min":35,"x_max":1313,"o":"m 292 0 l 35 972 l 207 972 l 392 250 l 604 972 l 743 972 l 968 250 l 1151 972 l 1313 972 l 1056 0 l 889 0 l 668 722 l 458 0 l 292 0 z "},"Ẃ":{"ha":1347,"x_min":35,"x_max":1313,"o":"m 292 0 l 35 972 l 207 972 l 392 250 l 604 972 l 743 972 l 968 250 l 1151 972 l 1313 972 l 1056 0 l 889 0 l 668 722 l 458 0 l 292 0 m 604 1042 l 757 1250 l 951 1250 l 743 1042 l 604 1042 z "},"Ŵ":{"ha":1347,"x_min":35,"x_max":1313,"o":"m 292 0 l 35 972 l 207 972 l 392 250 l 604 972 l 743 972 l 968 250 l 1151 972 l 1313 972 l 1056 0 l 889 0 l 668 722 l 458 0 l 292 0 m 438 1042 l 590 1250 l 757 1250 l 910 1042 l 771 1042 l 674 1139 l 576 1042 l 438 1042 z "},"Ẅ":{"ha":1347,"x_min":35,"x_max":1313,"o":"m 292 0 l 35 972 l 207 972 l 392 250 l 604 972 l 743 972 l 968 250 l 1151 972 l 1313 972 l 1056 0 l 889 0 l 668 722 l 458 0 l 292 0 m 514 1049 q 444 1076 471 1049 q 417 1146 417 1103 q 444 1216 417 1189 q 514 1243 471 1243 q 584 1216 557 1243 q 611 1146 611 1189 q 584 1076 611 1103 q 514 1049 557 1049 m 833 1049 q 763 1076 790 1049 q 736 1146 736 1103 q 763 1216 736 1189 q 833 1243 790 1243 q 903 1216 876 1243 q 931 1146 931 1189 q 903 1076 931 1103 q 833 1049 876 1049 z "},"Ẁ":{"ha":1347,"x_min":35,"x_max":1313,"o":"m 292 0 l 35 972 l 207 972 l 392 250 l 604 972 l 743 972 l 968 250 l 1151 972 l 1313 972 l 1056 0 l 889 0 l 668 722 l 458 0 l 292 0 m 604 1042 l 396 1250 l 590 1250 l 743 1042 l 604 1042 z "},"X":{"ha":944,"x_min":35,"x_max":910,"o":"m 35 0 l 369 508 l 49 972 l 238 972 l 474 632 l 713 972 l 896 972 l 576 511 l 910 0 l 718 0 l 471 389 l 221 0 l 35 0 z "},"Y":{"ha":917,"x_min":14,"x_max":903,"o":"m 389 0 l 389 375 l 14 972 l 211 972 l 475 542 l 719 972 l 903 972 l 556 375 l 556 0 l 389 0 z "},"Ý":{"ha":917,"x_min":14,"x_max":903,"o":"m 389 0 l 389 375 l 14 972 l 211 972 l 475 542 l 719 972 l 903 972 l 556 375 l 556 0 l 389 0 m 389 1042 l 542 1250 l 736 1250 l 528 1042 l 389 1042 z "},"Ŷ":{"ha":917,"x_min":14,"x_max":903,"o":"m 389 0 l 389 375 l 14 972 l 211 972 l 475 542 l 719 972 l 903 972 l 556 375 l 556 0 l 389 0 m 222 1042 l 375 1250 l 542 1250 l 694 1042 l 556 1042 l 458 1139 l 361 1042 l 222 1042 z "},"Ÿ":{"ha":917,"x_min":14,"x_max":903,"o":"m 389 0 l 389 375 l 14 972 l 211 972 l 475 542 l 719 972 l 903 972 l 556 375 l 556 0 l 389 0 m 299 1049 q 228 1076 256 1049 q 201 1146 201 1103 q 228 1216 201 1189 q 299 1243 256 1243 q 369 1216 342 1243 q 396 1146 396 1189 q 369 1076 396 1103 q 299 1049 342 1049 m 618 1049 q 548 1076 575 1049 q 521 1146 521 1103 q 548 1216 521 1189 q 618 1243 575 1243 q 688 1216 661 1243 q 715 1146 715 1189 q 688 1076 715 1103 q 618 1049 661 1049 z "},"Ỳ":{"ha":917,"x_min":14,"x_max":903,"o":"m 389 0 l 389 375 l 14 972 l 211 972 l 475 542 l 719 972 l 903 972 l 556 375 l 556 0 l 389 0 m 389 1042 l 181 1250 l 375 1250 l 528 1042 l 389 1042 z "},"Z":{"ha":847,"x_min":56,"x_max":792,"o":"m 56 0 l 56 131 l 578 828 l 69 828 l 69 972 l 778 972 l 778 842 l 256 144 l 792 144 l 792 0 l 56 0 z "},"Ź":{"ha":847,"x_min":56,"x_max":792,"o":"m 56 0 l 56 131 l 578 828 l 69 828 l 69 972 l 778 972 l 778 842 l 256 144 l 792 144 l 792 0 l 56 0 m 354 1042 l 507 1250 l 701 1250 l 493 1042 l 354 1042 z "},"Ž":{"ha":847,"x_min":56,"x_max":792,"o":"m 56 0 l 56 131 l 578 828 l 69 828 l 69 972 l 778 972 l 778 842 l 256 144 l 792 144 l 792 0 l 56 0 m 340 1042 l 188 1250 l 326 1250 l 424 1153 l 521 1250 l 660 1250 l 507 1042 l 340 1042 z "},"Ż":{"ha":847,"x_min":56,"x_max":792,"o":"m 56 0 l 56 131 l 578 828 l 69 828 l 69 972 l 778 972 l 778 842 l 256 144 l 792 144 l 792 0 l 56 0 m 424 1043 q 349 1072 378 1043 q 321 1146 321 1100 q 349 1220 321 1192 q 424 1249 378 1249 q 498 1220 469 1249 q 526 1146 526 1192 q 498 1072 526 1100 q 424 1043 469 1043 z "},"a":{"ha":792,"x_min":63,"x_max":710,"o":"m 313 -15 q 177 15 233 -15 q 92 97 121 44 q 63 215 63 150 q 128 378 63 325 q 319 432 193 432 l 549 432 l 549 472 q 512 587 549 556 q 396 618 475 618 q 292 596 325 618 q 253 535 258 574 l 104 535 q 144 647 108 599 q 247 724 181 696 q 403 751 313 751 q 560 724 493 751 q 665 637 628 696 q 701 481 701 578 l 701 188 q 703 85 701 129 q 710 0 704 42 l 571 0 q 565 54 567 32 q 563 110 563 76 q 472 22 536 58 q 313 -15 407 -15 m 354 118 q 451 136 407 118 q 522 190 494 154 q 549 278 549 226 l 549 318 l 347 318 q 253 293 289 318 q 218 219 218 268 q 251 146 218 174 q 354 118 283 118 z "},"á":{"ha":792,"x_min":63,"x_max":710,"o":"m 313 -15 q 177 15 233 -15 q 92 97 121 44 q 63 215 63 150 q 128 378 63 325 q 319 432 193 432 l 549 432 l 549 472 q 512 587 549 556 q 396 618 475 618 q 292 596 325 618 q 253 535 258 574 l 104 535 q 144 647 108 599 q 247 724 181 696 q 403 751 313 751 q 560 724 493 751 q 665 637 628 696 q 701 481 701 578 l 701 188 q 703 85 701 129 q 710 0 704 42 l 571 0 q 565 54 567 32 q 563 110 563 76 q 472 22 536 58 q 313 -15 407 -15 m 354 118 q 451 136 407 118 q 522 190 494 154 q 549 278 549 226 l 549 318 l 347 318 q 253 293 289 318 q 218 219 218 268 q 251 146 218 174 q 354 118 283 118 m 340 806 l 493 1028 l 674 1028 l 465 806 l 340 806 z "},"ă":{"ha":792,"x_min":63,"x_max":710,"o":"m 313 -15 q 177 15 233 -15 q 92 97 121 44 q 63 215 63 150 q 128 378 63 325 q 319 432 193 432 l 549 432 l 549 472 q 512 587 549 556 q 396 618 475 618 q 292 596 325 618 q 253 535 258 574 l 104 535 q 144 647 108 599 q 247 724 181 696 q 403 751 313 751 q 560 724 493 751 q 665 637 628 696 q 701 481 701 578 l 701 188 q 703 85 701 129 q 710 0 704 42 l 571 0 q 565 54 567 32 q 563 110 563 76 q 472 22 536 58 q 313 -15 407 -15 m 354 118 q 451 136 407 118 q 522 190 494 154 q 549 278 549 226 l 549 318 l 347 318 q 253 293 289 318 q 218 219 218 268 q 251 146 218 174 q 354 118 283 118 m 403 819 q 234 870 288 819 q 181 1014 181 921 l 322 1014 q 342 942 322 964 q 403 919 363 919 q 463 942 443 919 q 483 1014 483 964 l 625 1014 q 571 870 625 921 q 403 819 517 819 z "},"â":{"ha":792,"x_min":63,"x_max":710,"o":"m 313 -15 q 177 15 233 -15 q 92 97 121 44 q 63 215 63 150 q 128 378 63 325 q 319 432 193 432 l 549 432 l 549 472 q 512 587 549 556 q 396 618 475 618 q 292 596 325 618 q 253 535 258 574 l 104 535 q 144 647 108 599 q 247 724 181 696 q 403 751 313 751 q 560 724 493 751 q 665 637 628 696 q 701 481 701 578 l 701 188 q 703 85 701 129 q 710 0 704 42 l 571 0 q 565 54 567 32 q 563 110 563 76 q 472 22 536 58 q 313 -15 407 -15 m 354 118 q 451 136 407 118 q 522 190 494 154 q 549 278 549 226 l 549 318 l 347 318 q 253 293 289 318 q 218 219 218 268 q 251 146 218 174 q 354 118 283 118 m 174 806 l 326 1028 l 479 1028 l 632 806 l 507 806 l 403 917 l 299 806 l 174 806 z "},"ä":{"ha":792,"x_min":63,"x_max":710,"o":"m 313 -15 q 177 15 233 -15 q 92 97 121 44 q 63 215 63 150 q 128 378 63 325 q 319 432 193 432 l 549 432 l 549 472 q 512 587 549 556 q 396 618 475 618 q 292 596 325 618 q 253 535 258 574 l 104 535 q 144 647 108 599 q 247 724 181 696 q 403 751 313 751 q 560 724 493 751 q 665 637 628 696 q 701 481 701 578 l 701 188 q 703 85 701 129 q 710 0 704 42 l 571 0 q 565 54 567 32 q 563 110 563 76 q 472 22 536 58 q 313 -15 407 -15 m 354 118 q 451 136 407 118 q 522 190 494 154 q 549 278 549 226 l 549 318 l 347 318 q 253 293 289 318 q 218 219 218 268 q 251 146 218 174 q 354 118 283 118 m 258 825 q 192 851 218 825 q 167 917 167 876 q 192 983 167 957 q 258 1008 218 1008 q 324 983 299 1008 q 350 917 350 957 q 324 851 350 876 q 258 825 299 825 m 547 825 q 481 851 507 825 q 456 917 456 876 q 481 983 456 957 q 547 1008 507 1008 q 613 983 588 1008 q 639 917 639 957 q 613 851 639 876 q 547 825 588 825 z "},"à":{"ha":792,"x_min":63,"x_max":710,"o":"m 313 -15 q 177 15 233 -15 q 92 97 121 44 q 63 215 63 150 q 128 378 63 325 q 319 432 193 432 l 549 432 l 549 472 q 512 587 549 556 q 396 618 475 618 q 292 596 325 618 q 253 535 258 574 l 104 535 q 144 647 108 599 q 247 724 181 696 q 403 751 313 751 q 560 724 493 751 q 665 637 628 696 q 701 481 701 578 l 701 188 q 703 85 701 129 q 710 0 704 42 l 571 0 q 565 54 567 32 q 563 110 563 76 q 472 22 536 58 q 313 -15 407 -15 m 354 118 q 451 136 407 118 q 522 190 494 154 q 549 278 549 226 l 549 318 l 347 318 q 253 293 289 318 q 218 219 218 268 q 251 146 218 174 q 354 118 283 118 m 340 806 l 132 1028 l 313 1028 l 465 806 l 340 806 z "},"ā":{"ha":792,"x_min":63,"x_max":710,"o":"m 313 -15 q 177 15 233 -15 q 92 97 121 44 q 63 215 63 150 q 128 378 63 325 q 319 432 193 432 l 549 432 l 549 472 q 512 587 549 556 q 396 618 475 618 q 292 596 325 618 q 253 535 258 574 l 104 535 q 144 647 108 599 q 247 724 181 696 q 403 751 313 751 q 560 724 493 751 q 665 637 628 696 q 701 481 701 578 l 701 188 q 703 85 701 129 q 710 0 704 42 l 571 0 q 565 54 567 32 q 563 110 563 76 q 472 22 536 58 q 313 -15 407 -15 m 354 118 q 451 136 407 118 q 522 190 494 154 q 549 278 549 226 l 549 318 l 347 318 q 253 293 289 318 q 218 219 218 268 q 251 146 218 174 q 354 118 283 118 m 208 858 l 208 975 l 597 975 l 597 858 l 208 858 z "},"ą":{"ha":792,"x_min":63,"x_max":710,"o":"m 313 -15 q 177 15 233 -15 q 92 97 121 44 q 63 215 63 150 q 128 378 63 325 q 319 432 193 432 l 549 432 l 549 472 q 512 587 549 556 q 396 618 475 618 q 292 596 325 618 q 253 535 258 574 l 104 535 q 144 647 108 599 q 247 724 181 696 q 403 751 313 751 q 560 724 493 751 q 665 637 628 696 q 701 481 701 578 l 701 188 q 703 85 701 129 q 710 0 704 42 l 571 0 q 565 54 567 32 q 563 110 563 76 q 472 22 536 58 q 313 -15 407 -15 m 354 118 q 451 136 407 118 q 522 190 494 154 q 549 278 549 226 l 549 318 l 347 318 q 253 293 289 318 q 218 219 218 268 q 251 146 218 174 q 354 118 283 118 m 629 -293 q 517 -258 553 -293 q 481 -169 481 -224 q 494 -108 481 -136 q 528 -59 507 -81 q 576 -22 550 -37 q 625 0 601 -7 l 710 0 q 673 -24 699 -3 q 625 -75 647 -44 q 603 -139 603 -106 q 617 -181 603 -165 q 671 -196 632 -196 q 688 -194 681 -196 q 710 -192 696 -193 l 710 -286 q 667 -292 685 -292 q 629 -293 649 -293 z "},"å":{"ha":792,"x_min":63,"x_max":710,"o":"m 313 -15 q 177 15 233 -15 q 92 97 121 44 q 63 215 63 150 q 128 378 63 325 q 319 432 193 432 l 549 432 l 549 472 q 512 587 549 556 q 396 618 475 618 q 292 596 325 618 q 253 535 258 574 l 104 535 q 144 647 108 599 q 247 724 181 696 q 403 751 313 751 q 560 724 493 751 q 665 637 628 696 q 701 481 701 578 l 701 188 q 703 85 701 129 q 710 0 704 42 l 571 0 q 565 54 567 32 q 563 110 563 76 q 472 22 536 58 q 313 -15 407 -15 m 354 118 q 451 136 407 118 q 522 190 494 154 q 549 278 549 226 l 549 318 l 347 318 q 253 293 289 318 q 218 219 218 268 q 251 146 218 174 q 354 118 283 118 m 403 792 q 284 835 332 792 q 236 944 236 879 q 284 1053 236 1010 q 403 1097 332 1097 q 522 1053 474 1097 q 569 944 569 1010 q 522 835 569 879 q 403 792 474 792 m 403 886 q 444 903 428 886 q 461 944 461 919 q 444 986 461 969 q 403 1003 428 1003 q 361 986 378 1003 q 344 944 344 969 q 361 903 344 919 q 403 886 378 886 z "},"ã":{"ha":792,"x_min":63,"x_max":710,"o":"m 313 -15 q 177 15 233 -15 q 92 97 121 44 q 63 215 63 150 q 128 378 63 325 q 319 432 193 432 l 549 432 l 549 472 q 512 587 549 556 q 396 618 475 618 q 292 596 325 618 q 253 535 258 574 l 104 535 q 144 647 108 599 q 247 724 181 696 q 403 751 313 751 q 560 724 493 751 q 665 637 628 696 q 701 481 701 578 l 701 188 q 703 85 701 129 q 710 0 704 42 l 571 0 q 565 54 567 32 q 563 110 563 76 q 472 22 536 58 q 313 -15 407 -15 m 354 118 q 451 136 407 118 q 522 190 494 154 q 549 278 549 226 l 549 318 l 347 318 q 253 293 289 318 q 218 219 218 268 q 251 146 218 174 q 354 118 283 118 m 542 1000 l 625 965 q 613 928 619 946 q 597 896 607 911 q 555 848 582 869 q 486 826 528 826 q 416 842 444 826 q 366 873 388 857 q 319 889 344 889 q 294 881 304 889 q 276 861 283 872 q 269 847 272 853 q 264 833 267 842 l 181 868 q 192 905 186 888 q 208 938 199 922 q 251 985 224 964 q 319 1007 278 1007 q 389 991 361 1007 q 440 960 417 975 q 486 944 463 944 q 512 953 501 944 q 529 972 522 961 q 536 986 533 981 q 542 1000 539 992 z "},"æ":{"ha":1299,"x_min":63,"x_max":1243,"o":"m 313 -15 q 177 15 233 -15 q 92 97 121 44 q 63 215 63 150 q 128 377 63 325 q 319 429 193 429 l 549 429 l 549 472 q 512 587 549 556 q 396 618 475 618 q 292 596 325 618 q 253 535 258 574 l 104 535 q 144 647 108 599 q 247 724 181 696 q 403 751 313 751 q 551 722 486 751 q 647 638 615 692 q 755 726 692 700 q 896 751 818 751 q 1153 661 1064 751 q 1243 403 1243 571 l 1243 317 l 704 317 q 736 202 707 246 q 811 138 765 158 q 910 118 857 118 q 1026 143 989 118 q 1076 208 1063 168 l 1229 208 q 1120 42 1207 100 q 910 -15 1033 -15 q 740 21 814 -15 q 625 128 665 57 q 508 22 585 60 q 313 -15 431 -15 m 354 118 q 451 136 407 118 q 522 190 494 154 q 549 276 549 225 l 549 318 l 347 318 q 253 293 289 318 q 218 219 218 268 q 251 146 218 174 q 354 118 283 118 m 903 618 q 807 600 851 618 q 735 542 763 582 q 704 433 707 501 l 1090 433 q 1064 545 1089 506 q 997 601 1039 585 q 903 618 956 618 z "},"b":{"ha":854,"x_min":97,"x_max":799,"o":"m 489 -15 q 331 26 397 -15 q 239 124 265 68 l 239 0 l 97 0 l 97 972 l 250 972 l 250 619 q 345 714 285 676 q 489 751 406 751 q 715 661 632 751 q 799 389 799 571 l 799 361 q 760 152 799 236 q 651 26 721 68 q 489 -15 582 -15 m 453 118 q 590 178 538 118 q 643 361 643 238 l 643 389 q 592 562 643 506 q 453 618 540 618 q 353 596 400 618 q 278 531 307 574 q 250 424 250 488 l 250 326 q 278 210 250 257 q 353 141 307 164 q 453 118 400 118 z "},"c":{"ha":771,"x_min":56,"x_max":722,"o":"m 403 -15 q 225 26 304 -15 q 101 151 146 68 q 56 361 56 235 l 56 389 q 103 589 56 508 q 231 710 151 669 q 403 751 310 751 q 567 718 500 751 q 673 628 635 685 q 722 500 711 571 l 567 500 q 517 585 553 551 q 403 618 481 618 q 308 594 351 618 q 238 520 264 571 q 211 389 211 469 l 211 361 q 238 220 211 274 q 308 142 264 167 q 403 118 351 118 q 508 147 468 118 q 567 236 549 176 l 722 236 q 665 102 708 158 q 554 15 621 46 q 403 -15 488 -15 z "},"ć":{"ha":771,"x_min":56,"x_max":722,"o":"m 403 -15 q 225 26 304 -15 q 101 151 146 68 q 56 361 56 235 l 56 389 q 103 589 56 508 q 231 710 151 669 q 403 751 310 751 q 567 718 500 751 q 673 628 635 685 q 722 500 711 571 l 567 500 q 517 585 553 551 q 403 618 481 618 q 308 594 351 618 q 238 520 264 571 q 211 389 211 469 l 211 361 q 238 220 211 274 q 308 142 264 167 q 403 118 351 118 q 508 147 468 118 q 567 236 549 176 l 722 236 q 665 102 708 158 q 554 15 621 46 q 403 -15 488 -15 m 324 806 l 476 1028 l 657 1028 l 449 806 l 324 806 z "},"č":{"ha":771,"x_min":56,"x_max":722,"o":"m 403 -15 q 225 26 304 -15 q 101 151 146 68 q 56 361 56 235 l 56 389 q 103 589 56 508 q 231 710 151 669 q 403 751 310 751 q 567 718 500 751 q 673 628 635 685 q 722 500 711 571 l 567 500 q 517 585 553 551 q 403 618 481 618 q 308 594 351 618 q 238 520 264 571 q 211 389 211 469 l 211 361 q 238 220 211 274 q 308 142 264 167 q 403 118 351 118 q 508 147 468 118 q 567 236 549 176 l 722 236 q 665 102 708 158 q 554 15 621 46 q 403 -15 488 -15 m 310 806 l 157 1028 l 282 1028 l 386 917 l 490 1028 l 615 1028 l 463 806 l 310 806 z "},"ç":{"ha":771,"x_min":56,"x_max":722,"o":"m 403 -15 q 225 26 304 -15 q 101 151 146 68 q 56 361 56 235 l 56 389 q 103 589 56 508 q 231 710 151 669 q 403 751 310 751 q 567 718 500 751 q 673 628 635 685 q 722 500 711 571 l 567 500 q 517 585 553 551 q 403 618 481 618 q 308 594 351 618 q 238 520 264 571 q 211 389 211 469 l 211 361 q 238 220 211 274 q 308 142 264 167 q 403 118 351 118 q 508 147 468 118 q 567 236 549 176 l 722 236 q 665 102 708 158 q 554 15 621 46 q 403 -15 488 -15 m 361 -293 q 322 -292 339 -293 q 294 -289 306 -290 q 282 -286 288 -287 q 271 -283 276 -285 l 271 -192 l 290 -194 q 313 -197 300 -196 q 340 -197 325 -197 q 393 -183 379 -197 q 407 -154 407 -169 q 393 -124 407 -136 q 335 -111 379 -111 l 358 14 l 453 14 l 443 -51 q 517 -96 499 -64 q 535 -160 535 -128 q 494 -257 535 -221 q 361 -293 453 -293 z "},"ċ":{"ha":771,"x_min":56,"x_max":722,"o":"m 403 -15 q 225 26 304 -15 q 101 151 146 68 q 56 361 56 235 l 56 389 q 103 589 56 508 q 231 710 151 669 q 403 751 310 751 q 567 718 500 751 q 673 628 635 685 q 722 500 711 571 l 567 500 q 517 585 553 551 q 403 618 481 618 q 308 594 351 618 q 238 520 264 571 q 211 389 211 469 l 211 361 q 238 220 211 274 q 308 142 264 167 q 403 118 351 118 q 508 147 468 118 q 567 236 549 176 l 722 236 q 665 102 708 158 q 554 15 621 46 q 403 -15 488 -15 m 386 819 q 316 847 343 819 q 289 917 289 874 q 316 987 289 960 q 386 1014 343 1014 q 456 987 429 1014 q 483 917 483 960 q 456 847 483 874 q 386 819 429 819 z "},"d":{"ha":854,"x_min":56,"x_max":757,"o":"m 367 -15 q 203 26 274 -15 q 94 152 133 68 q 56 361 56 236 l 56 389 q 94 588 56 507 q 203 710 133 668 q 365 751 274 751 q 509 714 449 751 q 604 618 569 676 l 604 972 l 757 972 l 757 0 l 615 0 l 615 124 q 523 26 590 68 q 367 -15 456 -15 m 401 118 q 501 141 456 118 q 576 210 547 164 q 604 326 604 257 l 604 425 q 576 531 604 489 q 501 596 547 574 q 401 618 454 618 q 263 562 314 618 q 211 389 211 506 l 211 361 q 264 178 211 239 q 401 118 317 118 z "},"ð":{"ha":840,"x_min":56,"x_max":778,"o":"m 417 -15 q 240 26 322 -15 q 106 147 157 67 q 56 347 56 228 l 56 375 q 85 524 56 460 q 163 633 114 589 q 270 701 211 678 q 389 724 329 724 q 494 710 446 724 q 583 668 543 696 q 503 778 551 733 q 385 854 454 822 l 350 789 l 276 822 l 308 885 q 259 902 285 894 q 207 917 233 910 l 246 1038 q 310 1018 279 1028 q 369 997 340 1008 l 403 1060 l 476 1026 l 443 965 q 639 826 565 907 q 745 641 713 746 q 778 403 778 536 l 778 375 q 727 156 778 242 q 594 27 676 69 q 417 -15 511 -15 m 417 118 q 520 143 474 118 q 594 219 567 168 q 622 347 622 269 l 622 375 q 594 494 622 446 q 520 566 567 542 q 417 590 474 590 q 314 566 361 590 q 239 494 267 542 q 211 375 211 446 l 211 347 q 239 219 211 269 q 314 143 267 168 q 417 118 361 118 z "},"ď":{"ha":854,"x_min":56,"x_max":1033,"o":"m 367 -15 q 203 26 274 -15 q 94 152 133 68 q 56 361 56 236 l 56 389 q 94 588 56 507 q 203 710 133 668 q 365 751 274 751 q 509 714 449 751 q 604 618 569 676 l 604 972 l 757 972 l 757 0 l 615 0 l 615 124 q 523 26 590 68 q 367 -15 456 -15 m 401 118 q 501 141 456 118 q 576 210 547 164 q 604 326 604 257 l 604 425 q 576 531 604 489 q 501 596 547 574 q 401 618 454 618 q 263 562 314 618 q 211 389 211 506 l 211 361 q 264 178 211 239 q 401 118 317 118 m 875 683 l 890 854 l 890 972 l 1033 972 l 1033 854 l 940 683 l 875 683 z "},"đ":{"ha":854,"x_min":56,"x_max":888,"o":"m 407 886 l 888 886 l 888 794 l 407 794 l 407 886 m 367 -15 q 203 26 274 -15 q 94 152 133 68 q 56 361 56 236 l 56 389 q 94 588 56 507 q 203 710 133 668 q 365 751 274 751 q 509 714 449 751 q 604 618 569 676 l 604 972 l 757 972 l 757 0 l 615 0 l 615 124 q 523 26 590 68 q 367 -15 456 -15 m 401 118 q 501 141 456 118 q 576 210 547 164 q 604 326 604 257 l 604 425 q 576 531 604 489 q 501 596 547 574 q 401 618 454 618 q 263 562 314 618 q 211 389 211 506 l 211 361 q 264 178 211 239 q 401 118 317 118 z "},"e":{"ha":806,"x_min":56,"x_max":750,"o":"m 417 -15 q 238 26 319 -15 q 106 150 156 67 q 56 361 56 233 l 56 389 q 103 592 56 511 q 231 712 151 672 q 403 751 310 751 q 660 661 571 751 q 750 403 750 571 l 750 325 l 211 325 q 243 204 214 250 q 318 138 272 158 q 417 118 364 118 q 533 143 496 118 q 583 208 569 168 l 736 208 q 627 42 714 99 q 417 -15 540 -15 m 410 618 q 314 600 358 618 q 242 543 269 582 q 211 439 214 504 l 597 439 q 571 547 596 508 q 504 602 546 586 q 410 618 463 618 z "},"é":{"ha":806,"x_min":56,"x_max":750,"o":"m 417 -15 q 238 26 319 -15 q 106 150 156 67 q 56 361 56 233 l 56 389 q 103 592 56 511 q 231 712 151 672 q 403 751 310 751 q 660 661 571 751 q 750 403 750 571 l 750 325 l 211 325 q 243 204 214 250 q 318 138 272 158 q 417 118 364 118 q 533 143 496 118 q 583 208 569 168 l 736 208 q 627 42 714 99 q 417 -15 540 -15 m 410 618 q 314 600 358 618 q 242 543 269 582 q 211 439 214 504 l 597 439 q 571 547 596 508 q 504 602 546 586 q 410 618 463 618 m 340 806 l 493 1028 l 674 1028 l 465 806 l 340 806 z "},"ě":{"ha":806,"x_min":56,"x_max":750,"o":"m 417 -15 q 238 26 319 -15 q 106 150 156 67 q 56 361 56 233 l 56 389 q 103 592 56 511 q 231 712 151 672 q 403 751 310 751 q 660 661 571 751 q 750 403 750 571 l 750 325 l 211 325 q 243 204 214 250 q 318 138 272 158 q 417 118 364 118 q 533 143 496 118 q 583 208 569 168 l 736 208 q 627 42 714 99 q 417 -15 540 -15 m 410 618 q 314 600 358 618 q 242 543 269 582 q 211 439 214 504 l 597 439 q 571 547 596 508 q 504 602 546 586 q 410 618 463 618 m 326 806 l 174 1028 l 299 1028 l 403 917 l 507 1028 l 632 1028 l 479 806 l 326 806 z "},"ê":{"ha":806,"x_min":56,"x_max":750,"o":"m 417 -15 q 238 26 319 -15 q 106 150 156 67 q 56 361 56 233 l 56 389 q 103 592 56 511 q 231 712 151 672 q 403 751 310 751 q 660 661 571 751 q 750 403 750 571 l 750 325 l 211 325 q 243 204 214 250 q 318 138 272 158 q 417 118 364 118 q 533 143 496 118 q 583 208 569 168 l 736 208 q 627 42 714 99 q 417 -15 540 -15 m 410 618 q 314 600 358 618 q 242 543 269 582 q 211 439 214 504 l 597 439 q 571 547 596 508 q 504 602 546 586 q 410 618 463 618 m 174 806 l 326 1028 l 479 1028 l 632 806 l 507 806 l 403 917 l 299 806 l 174 806 z "},"ë":{"ha":806,"x_min":56,"x_max":750,"o":"m 417 -15 q 238 26 319 -15 q 106 150 156 67 q 56 361 56 233 l 56 389 q 103 592 56 511 q 231 712 151 672 q 403 751 310 751 q 660 661 571 751 q 750 403 750 571 l 750 325 l 211 325 q 243 204 214 250 q 318 138 272 158 q 417 118 364 118 q 533 143 496 118 q 583 208 569 168 l 736 208 q 627 42 714 99 q 417 -15 540 -15 m 410 618 q 314 600 358 618 q 242 543 269 582 q 211 439 214 504 l 597 439 q 571 547 596 508 q 504 602 546 586 q 410 618 463 618 m 258 825 q 192 851 218 825 q 167 917 167 876 q 192 983 167 957 q 258 1008 218 1008 q 324 983 299 1008 q 350 917 350 957 q 324 851 350 876 q 258 825 299 825 m 547 825 q 481 851 507 825 q 456 917 456 876 q 481 983 456 957 q 547 1008 507 1008 q 613 983 588 1008 q 639 917 639 957 q 613 851 639 876 q 547 825 588 825 z "},"ė":{"ha":806,"x_min":56,"x_max":750,"o":"m 417 -15 q 238 26 319 -15 q 106 150 156 67 q 56 361 56 233 l 56 389 q 103 592 56 511 q 231 712 151 672 q 403 751 310 751 q 660 661 571 751 q 750 403 750 571 l 750 325 l 211 325 q 243 204 214 250 q 318 138 272 158 q 417 118 364 118 q 533 143 496 118 q 583 208 569 168 l 736 208 q 627 42 714 99 q 417 -15 540 -15 m 410 618 q 314 600 358 618 q 242 543 269 582 q 211 439 214 504 l 597 439 q 571 547 596 508 q 504 602 546 586 q 410 618 463 618 m 403 819 q 333 847 360 819 q 306 917 306 874 q 333 987 306 960 q 403 1014 360 1014 q 473 987 446 1014 q 500 917 500 960 q 473 847 500 874 q 403 819 446 819 z "},"è":{"ha":806,"x_min":56,"x_max":750,"o":"m 417 -15 q 238 26 319 -15 q 106 150 156 67 q 56 361 56 233 l 56 389 q 103 592 56 511 q 231 712 151 672 q 403 751 310 751 q 660 661 571 751 q 750 403 750 571 l 750 325 l 211 325 q 243 204 214 250 q 318 138 272 158 q 417 118 364 118 q 533 143 496 118 q 583 208 569 168 l 736 208 q 627 42 714 99 q 417 -15 540 -15 m 410 618 q 314 600 358 618 q 242 543 269 582 q 211 439 214 504 l 597 439 q 571 547 596 508 q 504 602 546 586 q 410 618 463 618 m 340 806 l 132 1028 l 313 1028 l 465 806 l 340 806 z "},"ē":{"ha":806,"x_min":56,"x_max":750,"o":"m 417 -15 q 238 26 319 -15 q 106 150 156 67 q 56 361 56 233 l 56 389 q 103 592 56 511 q 231 712 151 672 q 403 751 310 751 q 660 661 571 751 q 750 403 750 571 l 750 325 l 211 325 q 243 204 214 250 q 318 138 272 158 q 417 118 364 118 q 533 143 496 118 q 583 208 569 168 l 736 208 q 627 42 714 99 q 417 -15 540 -15 m 410 618 q 314 600 358 618 q 242 543 269 582 q 211 439 214 504 l 597 439 q 571 547 596 508 q 504 602 546 586 q 410 618 463 618 m 208 858 l 208 975 l 597 975 l 597 858 l 208 858 z "},"ę":{"ha":806,"x_min":56,"x_max":750,"o":"m 417 -15 q 238 26 319 -15 q 106 150 156 67 q 56 361 56 233 l 56 389 q 103 592 56 511 q 231 712 151 672 q 403 751 310 751 q 660 661 571 751 q 750 403 750 571 l 750 325 l 211 325 q 243 204 214 250 q 318 138 272 158 q 417 118 364 118 q 533 143 496 118 q 583 208 569 168 l 736 208 q 627 42 714 99 q 417 -15 540 -15 m 410 618 q 314 600 358 618 q 242 543 269 582 q 211 439 214 504 l 597 439 q 571 547 596 508 q 504 602 546 586 q 410 618 463 618 m 456 -293 q 343 -258 379 -293 q 307 -169 307 -224 q 320 -108 307 -136 q 355 -59 333 -81 q 402 -22 376 -37 q 451 0 428 -7 l 536 0 q 499 -24 525 -3 q 451 -75 474 -44 q 429 -139 429 -106 q 444 -181 429 -165 q 497 -196 458 -196 q 515 -194 507 -196 q 536 -192 522 -193 l 536 -286 q 493 -292 511 -292 q 456 -293 475 -293 z "},"f":{"ha":507,"x_min":42,"x_max":486,"o":"m 139 0 l 139 606 l 42 606 l 42 736 l 139 736 l 139 757 q 163 880 139 831 q 242 954 188 929 q 382 979 296 979 q 429 978 403 979 q 486 975 456 978 l 486 842 q 441 845 465 844 q 396 846 417 846 q 315 824 338 846 q 292 750 292 803 l 292 736 l 472 736 l 472 606 l 292 606 l 292 0 l 139 0 z "},"g":{"ha":854,"x_min":56,"x_max":757,"o":"m 403 -293 q 222 -265 289 -293 q 123 -188 154 -237 q 83 -76 92 -139 l 239 -76 q 284 -137 250 -110 q 403 -165 318 -165 q 556 -115 507 -165 q 604 28 604 -65 l 604 132 q 510 36 569 74 q 367 -1 450 -1 q 203 40 274 -1 q 94 164 133 82 q 56 368 56 246 l 56 396 q 94 589 56 510 q 203 710 133 668 q 365 751 274 751 q 523 710 457 751 q 615 613 589 668 l 615 736 l 757 736 l 757 35 q 668 -207 757 -121 q 403 -293 579 -293 m 401 132 q 501 155 456 132 q 576 223 547 178 q 604 335 604 268 l 604 432 q 576 533 604 492 q 501 596 547 574 q 401 618 454 618 q 263 563 314 618 q 211 396 211 508 l 211 368 q 264 191 211 250 q 401 132 317 132 z "},"ğ":{"ha":854,"x_min":56,"x_max":757,"o":"m 403 -293 q 222 -265 289 -293 q 123 -188 154 -237 q 83 -76 92 -139 l 239 -76 q 284 -137 250 -110 q 403 -165 318 -165 q 556 -115 507 -165 q 604 28 604 -65 l 604 132 q 510 36 569 74 q 367 -1 450 -1 q 203 40 274 -1 q 94 164 133 82 q 56 368 56 246 l 56 396 q 94 589 56 510 q 203 710 133 668 q 365 751 274 751 q 523 710 457 751 q 615 613 589 668 l 615 736 l 757 736 l 757 35 q 668 -207 757 -121 q 403 -293 579 -293 m 401 132 q 501 155 456 132 q 576 223 547 178 q 604 335 604 268 l 604 432 q 576 533 604 492 q 501 596 547 574 q 401 618 454 618 q 263 563 314 618 q 211 396 211 508 l 211 368 q 264 191 211 250 q 401 132 317 132 z "},"ģ":{"ha":854,"x_min":56,"x_max":757,"o":"m 403 -293 q 222 -265 289 -293 q 123 -188 154 -237 q 83 -76 92 -139 l 239 -76 q 284 -137 250 -110 q 403 -165 318 -165 q 556 -115 507 -165 q 604 28 604 -65 l 604 132 q 510 36 569 74 q 367 -1 450 -1 q 203 40 274 -1 q 94 164 133 82 q 56 368 56 246 l 56 396 q 94 589 56 510 q 203 710 133 668 q 365 751 274 751 q 523 710 457 751 q 615 613 589 668 l 615 736 l 757 736 l 757 35 q 668 -207 757 -121 q 403 -293 579 -293 m 401 132 q 501 155 456 132 q 576 223 547 178 q 604 335 604 268 l 604 432 q 576 533 604 492 q 501 596 547 574 q 401 618 454 618 q 263 563 314 618 q 211 396 211 508 l 211 368 q 264 191 211 250 q 401 132 317 132 m 497 1103 l 497 851 l 358 851 l 358 978 l 429 1103 l 497 1103 z "},"ġ":{"ha":854,"x_min":56,"x_max":757,"o":"m 403 -293 q 222 -265 289 -293 q 123 -188 154 -237 q 83 -76 92 -139 l 239 -76 q 284 -137 250 -110 q 403 -165 318 -165 q 556 -115 507 -165 q 604 28 604 -65 l 604 132 q 510 36 569 74 q 367 -1 450 -1 q 203 40 274 -1 q 94 164 133 82 q 56 368 56 246 l 56 396 q 94 589 56 510 q 203 710 133 668 q 365 751 274 751 q 523 710 457 751 q 615 613 589 668 l 615 736 l 757 736 l 757 35 q 668 -207 757 -121 q 403 -293 579 -293 m 401 132 q 501 155 456 132 q 576 223 547 178 q 604 335 604 268 l 604 432 q 576 533 604 492 q 501 596 547 574 q 401 618 454 618 q 263 563 314 618 q 211 396 211 508 l 211 368 q 264 191 211 250 q 401 132 317 132 m 428 819 q 358 847 385 819 q 331 917 331 874 q 358 987 331 960 q 428 1014 385 1014 q 498 987 471 1014 q 525 917 525 960 q 498 847 525 874 q 428 819 471 819 z "},"h":{"ha":840,"x_min":97,"x_max":750,"o":"m 97 0 l 97 972 l 250 972 l 250 619 q 297 684 267 654 q 372 733 326 714 q 479 751 417 751 q 682 678 614 751 q 750 465 750 606 l 750 0 l 597 0 l 597 431 q 558 571 597 524 q 431 618 519 618 q 327 591 367 618 q 269 522 288 564 q 250 431 250 479 l 250 0 l 97 0 z "},"ħ":{"ha":840,"x_min":-18,"x_max":750,"o":"m -18 886 l 463 886 l 463 794 l -18 794 l -18 886 m 97 0 l 97 972 l 250 972 l 250 619 q 297 684 267 654 q 372 733 326 714 q 479 751 417 751 q 682 678 614 751 q 750 465 750 606 l 750 0 l 597 0 l 597 431 q 558 571 597 524 q 431 618 519 618 q 327 591 367 618 q 269 522 288 564 q 250 431 250 479 l 250 0 l 97 0 z "},"i":{"ha":375,"x_min":90,"x_max":285,"o":"m 111 0 l 111 736 l 264 736 l 264 0 l 111 0 m 188 819 q 117 847 144 819 q 90 917 90 874 q 117 987 90 960 q 188 1014 144 1014 q 258 987 231 1014 q 285 917 285 960 q 258 847 285 874 q 188 819 231 819 z "},"ı":{"ha":375,"x_min":111,"x_max":264,"o":"m 111 0 l 111 736 l 264 736 l 264 0 l 111 0 z "},"í":{"ha":375,"x_min":111,"x_max":458,"o":"m 111 0 l 111 736 l 264 736 l 264 0 l 111 0 m 125 806 l 278 1028 l 458 1028 l 250 806 l 125 806 z "},"î":{"ha":375,"x_min":-42,"x_max":417,"o":"m 111 0 l 111 736 l 264 736 l 264 0 l 111 0 m -42 806 l 111 1028 l 264 1028 l 417 806 l 292 806 l 188 917 l 83 806 l -42 806 z "},"ï":{"ha":375,"x_min":-49,"x_max":424,"o":"m 111 0 l 111 736 l 264 736 l 264 0 l 111 0 m 43 825 q -23 851 3 825 q -49 917 -49 876 q -23 983 -49 957 q 43 1008 3 1008 q 109 983 83 1008 q 135 917 135 957 q 109 851 135 876 q 43 825 83 825 m 332 825 q 266 851 292 825 q 240 917 240 876 q 266 983 240 957 q 332 1008 292 1008 q 398 983 372 1008 q 424 917 424 957 q 398 851 424 876 q 332 825 372 825 z "},"ì":{"ha":375,"x_min":-83,"x_max":264,"o":"m 111 0 l 111 736 l 264 736 l 264 0 l 111 0 m 125 806 l -83 1028 l 97 1028 l 250 806 l 125 806 z "},"ĳ":{"ha":750,"x_min":90,"x_max":660,"o":"m 111 0 l 111 736 l 264 736 l 264 0 l 111 0 m 188 819 q 117 847 144 819 q 90 917 90 874 q 117 987 90 960 q 188 1014 144 1014 q 258 987 231 1014 q 285 917 285 960 q 258 847 285 874 q 188 819 231 819 m 403 -293 q 368 -292 388 -293 q 333 -289 349 -292 l 333 -156 q 358 -159 344 -158 q 382 -160 371 -160 q 441 -146 418 -160 q 475 -95 464 -132 q 486 7 486 -58 l 486 736 l 639 736 l 639 0 q 617 -179 639 -115 q 543 -268 594 -243 q 403 -293 492 -293 m 563 819 q 492 847 519 819 q 465 917 465 874 q 492 987 465 960 q 563 1014 519 1014 q 633 987 606 1014 q 660 917 660 960 q 633 847 660 874 q 563 819 606 819 z "},"ī":{"ha":375,"x_min":-7,"x_max":382,"o":"m 111 0 l 111 736 l 264 736 l 264 0 l 111 0 m -7 858 l -7 975 l 382 975 l 382 858 l -7 858 z "},"į":{"ha":375,"x_min":35,"x_max":285,"o":"m 111 0 l 111 736 l 264 736 l 264 0 l 111 0 m 188 819 q 117 847 144 819 q 90 917 90 874 q 117 987 90 960 q 188 1014 144 1014 q 258 987 231 1014 q 285 917 285 960 q 258 847 285 874 q 188 819 231 819 m 183 -293 q 71 -258 107 -293 q 35 -169 35 -224 q 48 -108 35 -136 q 83 -59 61 -81 q 130 -22 104 -37 q 179 0 156 -7 l 264 0 q 227 -24 253 -3 q 179 -75 201 -44 q 157 -139 157 -106 q 172 -181 157 -165 q 225 -196 186 -196 q 242 -194 235 -196 q 264 -192 250 -193 l 264 -286 q 221 -292 239 -292 q 183 -293 203 -293 z "},"j":{"ha":375,"x_min":-42,"x_max":285,"o":"m 28 -293 q -7 -292 13 -293 q -42 -289 -26 -292 l -42 -156 q -17 -159 -31 -158 q 7 -160 -4 -160 q 66 -146 43 -160 q 100 -95 89 -132 q 111 7 111 -58 l 111 736 l 264 736 l 264 0 q 242 -179 264 -115 q 168 -268 219 -243 q 28 -293 117 -293 m 188 819 q 117 847 144 819 q 90 917 90 874 q 117 987 90 960 q 188 1014 144 1014 q 258 987 231 1014 q 285 917 285 960 q 258 847 285 874 q 188 819 231 819 z "},"ȷ":{"ha":375,"x_min":-42,"x_max":264,"o":"m 28 -293 q -7 -292 13 -293 q -42 -289 -26 -292 l -42 -156 q -17 -159 -31 -158 q 7 -160 -4 -160 q 66 -146 43 -160 q 100 -95 89 -132 q 111 7 111 -58 l 111 736 l 264 736 l 264 0 q 242 -179 264 -115 q 168 -268 219 -243 q 28 -293 117 -293 z "},"k":{"ha":792,"x_min":97,"x_max":764,"o":"m 97 0 l 97 972 l 250 972 l 250 415 l 556 736 l 736 736 l 439 424 l 764 0 l 581 0 l 338 326 l 250 238 l 250 0 l 97 0 z "},"ķ":{"ha":792,"x_min":97,"x_max":764,"o":"m 97 0 l 97 972 l 250 972 l 250 415 l 556 736 l 736 736 l 439 424 l 764 0 l 581 0 l 338 326 l 250 238 l 250 0 l 97 0 m 326 -314 l 326 -62 l 465 -62 l 465 -189 l 394 -314 l 326 -314 z "},"l":{"ha":451,"x_min":104,"x_max":410,"o":"m 333 -7 q 203 16 254 -7 q 128 92 153 39 q 104 235 104 146 l 104 972 l 257 972 l 257 246 q 279 152 257 178 q 361 126 301 126 q 388 127 376 126 q 410 129 399 128 l 410 -3 q 388 -6 403 -4 q 359 -7 374 -7 q 333 -7 344 -7 z "},"ĺ":{"ha":451,"x_min":104,"x_max":458,"o":"m 333 -7 q 203 16 254 -7 q 128 92 153 39 q 104 235 104 146 l 104 972 l 257 972 l 257 246 q 279 152 257 178 q 361 126 301 126 q 388 127 376 126 q 410 129 399 128 l 410 -3 q 388 -6 403 -4 q 359 -7 374 -7 q 333 -7 344 -7 m 111 1042 l 264 1250 l 458 1250 l 250 1042 l 111 1042 z "},"ľ":{"ha":451,"x_min":104,"x_max":533,"o":"m 333 -7 q 203 16 254 -7 q 128 92 153 39 q 104 235 104 146 l 104 972 l 257 972 l 257 246 q 279 152 257 178 q 361 126 301 126 q 388 127 376 126 q 410 129 399 128 l 410 -3 q 388 -6 403 -4 q 359 -7 374 -7 q 333 -7 344 -7 m 375 683 l 390 854 l 390 972 l 533 972 l 533 854 l 440 683 l 375 683 z "},"ļ":{"ha":451,"x_min":104,"x_max":410,"o":"m 333 -7 q 203 16 254 -7 q 128 92 153 39 q 104 235 104 146 l 104 972 l 257 972 l 257 246 q 279 152 257 178 q 361 126 301 126 q 388 127 376 126 q 410 129 399 128 l 410 -3 q 388 -6 403 -4 q 359 -7 374 -7 q 333 -7 344 -7 m 157 -314 l 157 -62 l 296 -62 l 296 -189 l 225 -314 l 157 -314 z "},"ł":{"ha":493,"x_min":28,"x_max":444,"o":"m 368 -7 q 265 6 308 -7 q 193 47 221 18 q 152 122 165 75 q 139 235 139 168 l 139 444 l 28 381 l 28 511 l 139 575 l 139 972 l 292 972 l 292 663 l 444 751 l 444 621 l 292 532 l 292 246 q 314 152 292 178 q 396 126 336 126 q 422 127 411 126 q 444 129 433 128 l 444 -3 q 423 -6 438 -4 q 394 -7 408 -7 q 368 -7 379 -7 z "},"m":{"ha":1215,"x_min":97,"x_max":1125,"o":"m 97 0 l 97 736 l 239 736 l 239 611 q 319 710 264 668 q 447 751 375 751 q 590 713 539 751 q 661 611 642 674 q 751 713 693 674 q 885 751 808 751 q 1063 683 1000 751 q 1125 472 1125 615 l 1125 0 l 972 0 l 972 438 q 935 577 972 536 q 836 618 899 618 q 753 595 786 618 q 704 531 721 572 q 688 438 688 490 l 688 0 l 535 0 l 535 438 q 498 577 535 536 q 399 618 461 618 q 316 595 349 618 q 267 531 283 572 q 250 438 250 490 l 250 0 l 97 0 z "},"n":{"ha":840,"x_min":97,"x_max":750,"o":"m 97 0 l 97 736 l 239 736 l 239 613 q 325 710 265 668 q 479 751 385 751 q 682 678 614 751 q 750 465 750 606 l 750 0 l 597 0 l 597 431 q 558 571 597 524 q 431 618 519 618 q 327 591 367 618 q 269 522 288 564 q 250 431 250 479 l 250 0 l 97 0 z "},"ń":{"ha":840,"x_min":97,"x_max":750,"o":"m 97 0 l 97 736 l 239 736 l 239 613 q 325 710 265 668 q 479 751 385 751 q 682 678 614 751 q 750 465 750 606 l 750 0 l 597 0 l 597 431 q 558 571 597 524 q 431 618 519 618 q 327 591 367 618 q 269 522 288 564 q 250 431 250 479 l 250 0 l 97 0 m 358 806 l 511 1028 l 692 1028 l 483 806 l 358 806 z "},"ň":{"ha":840,"x_min":97,"x_max":750,"o":"m 97 0 l 97 736 l 239 736 l 239 613 q 325 710 265 668 q 479 751 385 751 q 682 678 614 751 q 750 465 750 606 l 750 0 l 597 0 l 597 431 q 558 571 597 524 q 431 618 519 618 q 327 591 367 618 q 269 522 288 564 q 250 431 250 479 l 250 0 l 97 0 m 344 806 l 192 1028 l 317 1028 l 421 917 l 525 1028 l 650 1028 l 497 806 l 344 806 z "},"ņ":{"ha":840,"x_min":97,"x_max":750,"o":"m 97 0 l 97 736 l 239 736 l 239 613 q 325 710 265 668 q 479 751 385 751 q 682 678 614 751 q 750 465 750 606 l 750 0 l 597 0 l 597 431 q 558 571 597 524 q 431 618 519 618 q 327 591 367 618 q 269 522 288 564 q 250 431 250 479 l 250 0 l 97 0 m 351 -314 l 351 -62 l 490 -62 l 490 -189 l 419 -314 l 351 -314 z "},"ñ":{"ha":840,"x_min":97,"x_max":750,"o":"m 97 0 l 97 736 l 239 736 l 239 613 q 325 710 265 668 q 479 751 385 751 q 682 678 614 751 q 750 465 750 606 l 750 0 l 597 0 l 597 431 q 558 571 597 524 q 431 618 519 618 q 327 591 367 618 q 269 522 288 564 q 250 431 250 479 l 250 0 l 97 0 m 560 1000 l 643 965 q 631 928 638 946 q 615 896 625 911 q 573 848 600 869 q 504 826 546 826 q 434 842 463 826 q 384 873 406 857 q 338 889 363 889 q 312 881 322 889 q 294 861 301 872 q 288 847 290 853 q 282 833 285 842 l 199 868 q 210 905 204 888 q 226 938 217 922 q 269 985 242 964 q 338 1007 296 1007 q 407 991 379 1007 q 458 960 435 975 q 504 944 481 944 q 530 953 519 944 q 547 972 540 961 q 554 986 551 981 q 560 1000 557 992 z "},"ŋ":{"ha":840,"x_min":97,"x_max":750,"o":"m 514 -293 q 479 -292 499 -293 q 444 -289 460 -292 l 444 -156 q 469 -159 456 -158 q 493 -160 482 -160 q 552 -146 529 -160 q 586 -95 575 -132 q 597 7 597 -58 l 597 181 l 750 181 l 750 0 q 728 -179 750 -115 q 654 -268 706 -243 q 514 -293 603 -293 m 97 0 l 97 736 l 239 736 l 239 613 q 325 710 265 668 q 479 751 385 751 q 682 678 614 751 q 750 465 750 606 l 750 0 l 597 0 l 597 431 q 558 571 597 524 q 431 618 519 618 q 327 591 367 618 q 269 522 288 564 q 250 431 250 479 l 250 0 l 97 0 z "},"o":{"ha":833,"x_min":56,"x_max":778,"o":"m 417 -15 q 233 27 315 -15 q 103 153 151 69 q 56 361 56 238 l 56 389 q 103 587 56 506 q 233 710 151 668 q 417 751 315 751 q 601 710 519 751 q 730 587 682 668 q 778 389 778 506 l 778 361 q 730 153 778 238 q 601 27 682 69 q 417 -15 519 -15 m 417 118 q 517 143 469 118 q 593 222 564 168 q 622 361 622 275 l 622 389 q 593 519 622 468 q 517 594 564 569 q 417 618 469 618 q 317 594 364 618 q 240 519 269 569 q 211 389 211 468 l 211 361 q 240 222 211 275 q 317 143 269 168 q 417 118 364 118 z "},"ó":{"ha":833,"x_min":56,"x_max":778,"o":"m 417 -15 q 233 27 315 -15 q 103 153 151 69 q 56 361 56 238 l 56 389 q 103 587 56 506 q 233 710 151 668 q 417 751 315 751 q 601 710 519 751 q 730 587 682 668 q 778 389 778 506 l 778 361 q 730 153 778 238 q 601 27 682 69 q 417 -15 519 -15 m 417 118 q 517 143 469 118 q 593 222 564 168 q 622 361 622 275 l 622 389 q 593 519 622 468 q 517 594 564 569 q 417 618 469 618 q 317 594 364 618 q 240 519 269 569 q 211 389 211 468 l 211 361 q 240 222 211 275 q 317 143 269 168 q 417 118 364 118 m 354 806 l 507 1028 l 688 1028 l 479 806 l 354 806 z "},"ô":{"ha":833,"x_min":56,"x_max":778,"o":"m 417 -15 q 233 27 315 -15 q 103 153 151 69 q 56 361 56 238 l 56 389 q 103 587 56 506 q 233 710 151 668 q 417 751 315 751 q 601 710 519 751 q 730 587 682 668 q 778 389 778 506 l 778 361 q 730 153 778 238 q 601 27 682 69 q 417 -15 519 -15 m 417 118 q 517 143 469 118 q 593 222 564 168 q 622 361 622 275 l 622 389 q 593 519 622 468 q 517 594 564 569 q 417 618 469 618 q 317 594 364 618 q 240 519 269 569 q 211 389 211 468 l 211 361 q 240 222 211 275 q 317 143 269 168 q 417 118 364 118 m 188 806 l 340 1028 l 493 1028 l 646 806 l 521 806 l 417 917 l 313 806 l 188 806 z "},"ö":{"ha":833,"x_min":56,"x_max":778,"o":"m 417 -15 q 233 27 315 -15 q 103 153 151 69 q 56 361 56 238 l 56 389 q 103 587 56 506 q 233 710 151 668 q 417 751 315 751 q 601 710 519 751 q 730 587 682 668 q 778 389 778 506 l 778 361 q 730 153 778 238 q 601 27 682 69 q 417 -15 519 -15 m 417 118 q 517 143 469 118 q 593 222 564 168 q 622 361 622 275 l 622 389 q 593 519 622 468 q 517 594 564 569 q 417 618 469 618 q 317 594 364 618 q 240 519 269 569 q 211 389 211 468 l 211 361 q 240 222 211 275 q 317 143 269 168 q 417 118 364 118 m 272 825 q 206 851 232 825 q 181 917 181 876 q 206 983 181 957 q 272 1008 232 1008 q 338 983 313 1008 q 364 917 364 957 q 338 851 364 876 q 272 825 313 825 m 561 825 q 495 851 521 825 q 469 917 469 876 q 495 983 469 957 q 561 1008 521 1008 q 627 983 601 1008 q 653 917 653 957 q 627 851 653 876 q 561 825 601 825 z "},"ò":{"ha":833,"x_min":56,"x_max":778,"o":"m 417 -15 q 233 27 315 -15 q 103 153 151 69 q 56 361 56 238 l 56 389 q 103 587 56 506 q 233 710 151 668 q 417 751 315 751 q 601 710 519 751 q 730 587 682 668 q 778 389 778 506 l 778 361 q 730 153 778 238 q 601 27 682 69 q 417 -15 519 -15 m 417 118 q 517 143 469 118 q 593 222 564 168 q 622 361 622 275 l 622 389 q 593 519 622 468 q 517 594 564 569 q 417 618 469 618 q 317 594 364 618 q 240 519 269 569 q 211 389 211 468 l 211 361 q 240 222 211 275 q 317 143 269 168 q 417 118 364 118 m 354 806 l 146 1028 l 326 1028 l 479 806 l 354 806 z "},"ő":{"ha":833,"x_min":56,"x_max":826,"o":"m 417 -15 q 233 27 315 -15 q 103 153 151 69 q 56 361 56 238 l 56 389 q 103 587 56 506 q 233 710 151 668 q 417 751 315 751 q 601 710 519 751 q 730 587 682 668 q 778 389 778 506 l 778 361 q 730 153 778 238 q 601 27 682 69 q 417 -15 519 -15 m 417 118 q 517 143 469 118 q 593 222 564 168 q 622 361 622 275 l 622 389 q 593 519 622 468 q 517 594 564 569 q 417 618 469 618 q 317 594 364 618 q 240 519 269 569 q 211 389 211 468 l 211 361 q 240 222 211 275 q 317 143 269 168 q 417 118 364 118 m 321 806 l 206 806 l 339 1028 l 511 1028 l 321 806 m 594 806 l 474 806 l 650 1028 l 826 1028 l 594 806 z "},"ō":{"ha":833,"x_min":56,"x_max":778,"o":"m 417 -15 q 233 27 315 -15 q 103 153 151 69 q 56 361 56 238 l 56 389 q 103 587 56 506 q 233 710 151 668 q 417 751 315 751 q 601 710 519 751 q 730 587 682 668 q 778 389 778 506 l 778 361 q 730 153 778 238 q 601 27 682 69 q 417 -15 519 -15 m 417 118 q 517 143 469 118 q 593 222 564 168 q 622 361 622 275 l 622 389 q 593 519 622 468 q 517 594 564 569 q 417 618 469 618 q 317 594 364 618 q 240 519 269 569 q 211 389 211 468 l 211 361 q 240 222 211 275 q 317 143 269 168 q 417 118 364 118 m 222 858 l 222 975 l 611 975 l 611 858 l 222 858 z "},"ø":{"ha":833,"x_min":56,"x_max":778,"o":"m 417 -15 q 200 47 290 -15 l 147 -15 l 83 40 l 138 104 q 77 214 99 150 q 56 361 56 278 l 56 389 q 103 587 56 506 q 233 710 151 668 q 417 751 315 751 q 633 689 544 751 l 686 751 l 750 696 l 696 633 q 756 526 735 588 q 778 389 778 465 l 778 361 q 730 153 778 238 q 601 27 682 69 q 417 -15 519 -15 m 417 118 q 517 143 469 118 q 593 222 564 168 q 622 361 622 275 l 622 389 q 615 457 622 426 q 594 513 607 488 l 293 157 q 352 128 321 138 q 417 118 383 118 m 417 618 q 317 594 364 618 q 240 519 269 569 q 211 389 211 468 l 211 361 q 218 286 211 321 q 239 224 225 251 l 540 579 q 481 608 513 599 q 417 618 450 618 z "},"õ":{"ha":833,"x_min":56,"x_max":778,"o":"m 417 -15 q 233 27 315 -15 q 103 153 151 69 q 56 361 56 238 l 56 389 q 103 587 56 506 q 233 710 151 668 q 417 751 315 751 q 601 710 519 751 q 730 587 682 668 q 778 389 778 506 l 778 361 q 730 153 778 238 q 601 27 682 69 q 417 -15 519 -15 m 417 118 q 517 143 469 118 q 593 222 564 168 q 622 361 622 275 l 622 389 q 593 519 622 468 q 517 594 564 569 q 417 618 469 618 q 317 594 364 618 q 240 519 269 569 q 211 389 211 468 l 211 361 q 240 222 211 275 q 317 143 269 168 q 417 118 364 118 m 556 1000 l 639 965 q 627 928 633 946 q 611 896 621 911 q 569 848 596 869 q 500 826 542 826 q 430 842 458 826 q 380 873 401 857 q 333 889 358 889 q 308 881 318 889 q 290 861 297 872 q 283 847 286 853 q 278 833 281 842 l 194 868 q 206 905 200 888 q 222 938 213 922 q 265 985 238 964 q 333 1007 292 1007 q 403 991 375 1007 q 453 960 431 975 q 500 944 476 944 q 526 953 515 944 q 543 972 536 961 q 550 986 547 981 q 556 1000 553 992 z "},"œ":{"ha":1375,"x_min":56,"x_max":1319,"o":"m 417 -15 q 233 27 315 -15 q 103 153 151 69 q 56 361 56 238 l 56 389 q 103 587 56 506 q 233 710 151 668 q 417 751 315 751 q 581 717 508 751 q 700 618 654 683 q 815 718 744 685 q 972 751 886 751 q 1230 661 1140 751 q 1319 403 1319 571 l 1319 325 l 781 325 q 813 204 783 250 q 888 138 842 158 q 986 118 933 118 q 1102 143 1065 118 q 1153 208 1139 168 l 1306 208 q 1197 42 1283 99 q 986 -15 1110 -15 q 822 18 896 -15 q 701 122 749 51 q 582 19 656 53 q 417 -15 508 -15 m 417 118 q 517 143 469 118 q 593 222 564 168 q 622 361 622 275 l 622 389 q 593 519 622 468 q 517 594 564 569 q 417 618 469 618 q 317 594 364 618 q 240 519 269 569 q 211 389 211 468 l 211 361 q 240 222 211 275 q 317 143 269 168 q 417 118 364 118 m 979 618 q 883 600 928 618 q 811 543 839 582 q 781 439 783 504 l 1167 439 q 1140 547 1165 508 q 1074 602 1115 586 q 979 618 1032 618 z "},"p":{"ha":854,"x_min":97,"x_max":799,"o":"m 97 -278 l 97 736 l 239 736 l 239 613 q 338 714 272 676 q 488 751 404 751 q 715 661 632 751 q 799 389 799 571 l 799 361 q 760 152 799 236 q 651 26 721 68 q 488 -15 582 -15 q 343 19 408 -15 q 250 117 278 54 l 250 -278 l 97 -278 m 451 118 q 590 178 538 118 q 643 361 643 238 l 643 389 q 592 562 643 506 q 451 618 540 618 q 353 596 400 618 q 278 531 307 574 q 250 424 250 488 l 250 326 q 278 210 250 257 q 353 141 307 164 q 451 118 399 118 z "},"þ":{"ha":854,"x_min":97,"x_max":799,"o":"m 97 -278 l 97 972 l 250 972 l 250 619 q 345 714 285 676 q 489 751 406 751 q 715 661 632 751 q 799 389 799 571 l 799 361 q 760 152 799 236 q 651 26 721 68 q 488 -15 582 -15 q 343 19 408 -15 q 250 115 278 54 l 250 -278 l 97 -278 m 453 118 q 590 178 538 118 q 643 361 643 238 l 643 389 q 592 562 643 506 q 453 618 540 618 q 347 594 393 618 q 276 526 301 569 q 250 424 250 482 l 250 326 q 278 210 250 257 q 353 141 307 164 q 453 118 400 118 z "},"q":{"ha":854,"x_min":56,"x_max":757,"o":"m 604 -278 l 604 118 q 510 22 569 60 q 367 -15 450 -15 q 203 26 274 -15 q 94 152 133 68 q 56 361 56 236 l 56 389 q 94 588 56 507 q 203 710 133 668 q 365 751 274 751 q 523 710 457 751 q 615 613 589 668 l 615 736 l 757 736 l 757 -278 l 604 -278 m 401 118 q 501 141 456 118 q 576 210 547 164 q 604 328 604 257 l 604 425 q 576 531 604 489 q 501 596 547 574 q 401 618 454 618 q 263 563 314 618 q 211 389 211 507 l 211 361 q 264 178 211 239 q 401 118 317 118 z "},"r":{"ha":542,"x_min":97,"x_max":514,"o":"m 97 0 l 97 736 l 239 736 l 239 611 q 281 681 254 650 q 348 732 308 713 q 438 751 388 751 q 490 749 472 751 q 514 743 507 746 l 514 604 q 471 615 490 611 q 424 618 451 618 q 325 591 364 618 q 268 522 286 564 q 250 431 250 479 l 250 0 l 97 0 z "},"ŕ":{"ha":542,"x_min":97,"x_max":542,"o":"m 97 0 l 97 736 l 239 736 l 239 611 q 281 681 254 650 q 348 732 308 713 q 438 751 388 751 q 490 749 472 751 q 514 743 507 746 l 514 604 q 471 615 490 611 q 424 618 451 618 q 325 591 364 618 q 268 522 286 564 q 250 431 250 479 l 250 0 l 97 0 m 208 806 l 361 1028 l 542 1028 l 333 806 l 208 806 z "},"ř":{"ha":542,"x_min":42,"x_max":514,"o":"m 97 0 l 97 736 l 239 736 l 239 611 q 281 681 254 650 q 348 732 308 713 q 438 751 388 751 q 490 749 472 751 q 514 743 507 746 l 514 604 q 471 615 490 611 q 424 618 451 618 q 325 591 364 618 q 268 522 286 564 q 250 431 250 479 l 250 0 l 97 0 m 194 806 l 42 1028 l 167 1028 l 271 917 l 375 1028 l 500 1028 l 347 806 l 194 806 z "},"ŗ":{"ha":542,"x_min":97,"x_max":514,"o":"m 97 0 l 97 736 l 239 736 l 239 611 q 281 681 254 650 q 348 732 308 713 q 438 751 388 751 q 490 749 472 751 q 514 743 507 746 l 514 604 q 471 615 490 611 q 424 618 451 618 q 325 591 364 618 q 268 522 286 564 q 250 431 250 479 l 250 0 l 97 0 m 104 -314 l 104 -62 l 243 -62 l 243 -189 l 172 -314 l 104 -314 z "},"s":{"ha":750,"x_min":56,"x_max":694,"o":"m 375 -15 q 236 3 294 -15 q 140 52 178 21 q 81 124 101 83 q 56 208 61 164 l 208 208 q 256 144 218 169 q 375 118 293 118 q 504 143 467 118 q 542 208 542 168 q 524 253 542 232 q 466 290 507 274 q 353 314 425 306 q 239 338 290 322 q 151 381 188 354 q 96 445 115 407 q 76 535 76 483 q 109 643 76 594 q 208 722 142 692 q 375 751 275 751 q 534 720 472 751 q 628 638 596 689 q 667 528 660 588 l 514 528 q 469 594 503 571 q 375 618 435 618 q 261 593 293 618 q 229 535 229 568 q 265 473 229 499 q 406 436 300 447 q 524 411 471 428 q 615 367 576 394 q 674 301 653 340 q 694 208 694 263 q 659 95 694 146 q 553 15 624 44 q 375 -15 482 -15 z "},"ś":{"ha":750,"x_min":56,"x_max":694,"o":"m 375 -15 q 236 3 294 -15 q 140 52 178 21 q 81 124 101 83 q 56 208 61 164 l 208 208 q 256 144 218 169 q 375 118 293 118 q 504 143 467 118 q 542 208 542 168 q 524 253 542 232 q 466 290 507 274 q 353 314 425 306 q 239 338 290 322 q 151 381 188 354 q 96 445 115 407 q 76 535 76 483 q 109 643 76 594 q 208 722 142 692 q 375 751 275 751 q 534 720 472 751 q 628 638 596 689 q 667 528 660 588 l 514 528 q 469 594 503 571 q 375 618 435 618 q 261 593 293 618 q 229 535 229 568 q 265 473 229 499 q 406 436 300 447 q 524 411 471 428 q 615 367 576 394 q 674 301 653 340 q 694 208 694 263 q 659 95 694 146 q 553 15 624 44 q 375 -15 482 -15 m 313 806 l 465 1028 l 646 1028 l 438 806 l 313 806 z "},"š":{"ha":750,"x_min":56,"x_max":694,"o":"m 375 -15 q 236 3 294 -15 q 140 52 178 21 q 81 124 101 83 q 56 208 61 164 l 208 208 q 256 144 218 169 q 375 118 293 118 q 504 143 467 118 q 542 208 542 168 q 524 253 542 232 q 466 290 507 274 q 353 314 425 306 q 239 338 290 322 q 151 381 188 354 q 96 445 115 407 q 76 535 76 483 q 109 643 76 594 q 208 722 142 692 q 375 751 275 751 q 534 720 472 751 q 628 638 596 689 q 667 528 660 588 l 514 528 q 469 594 503 571 q 375 618 435 618 q 261 593 293 618 q 229 535 229 568 q 265 473 229 499 q 406 436 300 447 q 524 411 471 428 q 615 367 576 394 q 674 301 653 340 q 694 208 694 263 q 659 95 694 146 q 553 15 624 44 q 375 -15 482 -15 m 299 806 l 146 1028 l 271 1028 l 375 917 l 479 1028 l 604 1028 l 451 806 l 299 806 z "},"ş":{"ha":750,"x_min":56,"x_max":694,"o":"m 375 -15 q 236 3 294 -15 q 140 52 178 21 q 81 124 101 83 q 56 208 61 164 l 208 208 q 256 144 218 169 q 375 118 293 118 q 504 143 467 118 q 542 208 542 168 q 524 253 542 232 q 466 290 507 274 q 353 314 425 306 q 239 338 290 322 q 151 381 188 354 q 96 445 115 407 q 76 535 76 483 q 109 643 76 594 q 208 722 142 692 q 375 751 275 751 q 534 720 472 751 q 628 638 596 689 q 667 528 660 588 l 514 528 q 469 594 503 571 q 375 618 435 618 q 261 593 293 618 q 229 535 229 568 q 265 473 229 499 q 406 436 300 447 q 524 411 471 428 q 615 367 576 394 q 674 301 653 340 q 694 208 694 263 q 659 95 694 146 q 553 15 624 44 q 375 -15 482 -15 m 350 -293 q 311 -292 328 -293 q 283 -289 294 -290 q 271 -286 276 -287 q 260 -283 265 -285 l 260 -192 l 279 -194 q 301 -197 289 -196 q 329 -197 314 -197 q 382 -183 368 -197 q 396 -154 396 -169 q 382 -124 396 -136 q 324 -111 368 -111 l 347 14 l 442 14 l 432 -51 q 506 -96 488 -64 q 524 -160 524 -128 q 483 -257 524 -221 q 350 -293 442 -293 z "},"ș":{"ha":750,"x_min":56,"x_max":694,"o":"m 375 -15 q 236 3 294 -15 q 140 52 178 21 q 81 124 101 83 q 56 208 61 164 l 208 208 q 256 144 218 169 q 375 118 293 118 q 504 143 467 118 q 542 208 542 168 q 524 253 542 232 q 466 290 507 274 q 353 314 425 306 q 239 338 290 322 q 151 381 188 354 q 96 445 115 407 q 76 535 76 483 q 109 643 76 594 q 208 722 142 692 q 375 751 275 751 q 534 720 472 751 q 628 638 596 689 q 667 528 660 588 l 514 528 q 469 594 503 571 q 375 618 435 618 q 261 593 293 618 q 229 535 229 568 q 265 473 229 499 q 406 436 300 447 q 524 411 471 428 q 615 367 576 394 q 674 301 653 340 q 694 208 694 263 q 659 95 694 146 q 553 15 624 44 q 375 -15 482 -15 m 306 -314 l 306 -62 l 444 -62 l 444 -189 l 374 -314 l 306 -314 z "},"ß":{"ha":813,"x_min":97,"x_max":750,"o":"m 97 0 l 97 667 q 178 904 97 821 q 403 988 260 988 q 562 956 497 988 q 660 868 626 924 q 694 743 694 813 q 658 617 694 672 q 556 538 622 561 q 669 490 626 526 q 731 403 713 454 q 750 299 750 353 l 750 285 q 715 123 750 188 q 607 26 681 58 q 417 -7 533 -7 q 382 -6 401 -7 q 347 -3 363 -6 l 347 128 q 382 124 363 125 q 417 124 401 124 q 552 167 507 124 q 597 290 597 211 l 597 304 q 551 426 597 383 q 410 469 506 469 l 382 469 l 382 586 l 403 586 q 500 619 458 586 q 542 721 542 653 q 507 821 542 788 q 403 854 472 854 q 290 805 329 854 q 250 667 250 756 l 250 0 l 97 0 z "},"t":{"ha":556,"x_min":42,"x_max":500,"o":"m 382 -7 q 247 17 299 -7 q 170 91 194 40 q 146 222 146 142 l 146 606 l 42 606 l 42 736 l 146 736 l 146 903 l 299 903 l 299 736 l 486 736 l 486 606 l 299 606 l 299 243 q 323 152 299 178 q 417 126 347 126 q 500 131 458 126 l 500 0 q 446 -5 474 -3 q 382 -7 418 -7 z "},"ť":{"ha":556,"x_min":42,"x_max":535,"o":"m 382 -7 q 247 17 299 -7 q 170 91 194 40 q 146 222 146 142 l 146 606 l 42 606 l 42 736 l 146 736 l 146 903 l 299 903 l 299 736 l 486 736 l 486 606 l 299 606 l 299 243 q 323 152 299 178 q 417 126 347 126 q 500 131 458 126 l 500 0 q 446 -5 474 -3 q 382 -7 418 -7 m 376 826 l 392 997 l 392 1115 l 535 1115 l 535 997 l 442 826 l 376 826 z "},"ț":{"ha":556,"x_min":42,"x_max":500,"o":"m 382 -7 q 247 17 299 -7 q 170 91 194 40 q 146 222 146 142 l 146 606 l 42 606 l 42 736 l 146 736 l 146 903 l 299 903 l 299 736 l 486 736 l 486 606 l 299 606 l 299 243 q 323 152 299 178 q 417 126 347 126 q 500 131 458 126 l 500 0 q 446 -5 474 -3 q 382 -7 418 -7 m 208 -314 l 208 -62 l 347 -62 l 347 -189 l 276 -314 l 208 -314 z "},"u":{"ha":826,"x_min":90,"x_max":729,"o":"m 354 -15 q 157 60 224 -15 q 90 292 90 136 l 90 736 l 243 736 l 243 306 q 281 165 243 213 q 403 118 319 118 q 502 144 464 118 q 558 214 540 171 q 576 306 576 257 l 576 736 l 729 736 l 729 0 l 588 0 l 588 125 q 502 26 561 68 q 354 -15 443 -15 z "},"ú":{"ha":826,"x_min":90,"x_max":729,"o":"m 354 -15 q 157 60 224 -15 q 90 292 90 136 l 90 736 l 243 736 l 243 306 q 281 165 243 213 q 403 118 319 118 q 502 144 464 118 q 558 214 540 171 q 576 306 576 257 l 576 736 l 729 736 l 729 0 l 588 0 l 588 125 q 502 26 561 68 q 354 -15 443 -15 m 351 806 l 504 1028 l 685 1028 l 476 806 l 351 806 z "},"ŭ":{"ha":826,"x_min":90,"x_max":729,"o":"m 354 -15 q 157 60 224 -15 q 90 292 90 136 l 90 736 l 243 736 l 243 306 q 281 165 243 213 q 403 118 319 118 q 502 144 464 118 q 558 214 540 171 q 576 306 576 257 l 576 736 l 729 736 l 729 0 l 588 0 l 588 125 q 502 26 561 68 q 354 -15 443 -15 m 414 819 q 245 870 299 819 q 192 1014 192 921 l 333 1014 q 353 942 333 964 q 414 919 374 919 q 474 942 454 919 q 494 1014 494 964 l 636 1014 q 582 870 636 921 q 414 819 528 819 z "},"û":{"ha":826,"x_min":90,"x_max":729,"o":"m 354 -15 q 157 60 224 -15 q 90 292 90 136 l 90 736 l 243 736 l 243 306 q 281 165 243 213 q 403 118 319 118 q 502 144 464 118 q 558 214 540 171 q 576 306 576 257 l 576 736 l 729 736 l 729 0 l 588 0 l 588 125 q 502 26 561 68 q 354 -15 443 -15 m 185 806 l 338 1028 l 490 1028 l 643 806 l 518 806 l 414 917 l 310 806 l 185 806 z "},"ü":{"ha":826,"x_min":90,"x_max":729,"o":"m 354 -15 q 157 60 224 -15 q 90 292 90 136 l 90 736 l 243 736 l 243 306 q 281 165 243 213 q 403 118 319 118 q 502 144 464 118 q 558 214 540 171 q 576 306 576 257 l 576 736 l 729 736 l 729 0 l 588 0 l 588 125 q 502 26 561 68 q 354 -15 443 -15 m 269 825 q 203 851 229 825 q 178 917 178 876 q 203 983 178 957 q 269 1008 229 1008 q 335 983 310 1008 q 361 917 361 957 q 335 851 361 876 q 269 825 310 825 m 558 825 q 492 851 518 825 q 467 917 467 876 q 492 983 467 957 q 558 1008 518 1008 q 624 983 599 1008 q 650 917 650 957 q 624 851 650 876 q 558 825 599 825 z "},"ù":{"ha":826,"x_min":90,"x_max":729,"o":"m 354 -15 q 157 60 224 -15 q 90 292 90 136 l 90 736 l 243 736 l 243 306 q 281 165 243 213 q 403 118 319 118 q 502 144 464 118 q 558 214 540 171 q 576 306 576 257 l 576 736 l 729 736 l 729 0 l 588 0 l 588 125 q 502 26 561 68 q 354 -15 443 -15 m 351 806 l 143 1028 l 324 1028 l 476 806 l 351 806 z "},"ű":{"ha":826,"x_min":90,"x_max":824,"o":"m 354 -15 q 157 60 224 -15 q 90 292 90 136 l 90 736 l 243 736 l 243 306 q 281 165 243 213 q 403 118 319 118 q 502 144 464 118 q 558 214 540 171 q 576 306 576 257 l 576 736 l 729 736 l 729 0 l 588 0 l 588 125 q 502 26 561 68 q 354 -15 443 -15 m 318 806 l 203 806 l 336 1028 l 508 1028 l 318 806 m 592 806 l 471 806 l 647 1028 l 824 1028 l 592 806 z "},"ū":{"ha":826,"x_min":90,"x_max":729,"o":"m 354 -15 q 157 60 224 -15 q 90 292 90 136 l 90 736 l 243 736 l 243 306 q 281 165 243 213 q 403 118 319 118 q 502 144 464 118 q 558 214 540 171 q 576 306 576 257 l 576 736 l 729 736 l 729 0 l 588 0 l 588 125 q 502 26 561 68 q 354 -15 443 -15 m 219 858 l 219 975 l 608 975 l 608 858 l 219 858 z "},"ų":{"ha":826,"x_min":90,"x_max":729,"o":"m 354 -15 q 157 60 224 -15 q 90 292 90 136 l 90 736 l 243 736 l 243 306 q 281 165 243 213 q 403 118 319 118 q 502 144 464 118 q 558 214 540 171 q 576 306 576 257 l 576 736 l 729 736 l 729 0 l 588 0 l 588 125 q 502 26 561 68 q 354 -15 443 -15 m 649 -293 q 536 -258 572 -293 q 500 -169 500 -224 q 513 -108 500 -136 q 548 -59 526 -81 q 595 -22 569 -37 q 644 0 621 -7 l 729 0 q 692 -24 718 -3 q 644 -75 667 -44 q 622 -139 622 -106 q 637 -181 622 -165 q 690 -196 651 -196 q 708 -194 700 -196 q 729 -192 715 -193 l 729 -286 q 686 -292 704 -292 q 649 -293 668 -293 z "},"ů":{"ha":826,"x_min":90,"x_max":729,"o":"m 354 -15 q 157 60 224 -15 q 90 292 90 136 l 90 736 l 243 736 l 243 306 q 281 165 243 213 q 403 118 319 118 q 502 144 464 118 q 558 214 540 171 q 576 306 576 257 l 576 736 l 729 736 l 729 0 l 588 0 l 588 125 q 502 26 561 68 q 354 -15 443 -15 m 414 792 q 295 835 343 792 q 247 944 247 879 q 295 1053 247 1010 q 414 1097 343 1097 q 533 1053 485 1097 q 581 944 581 1010 q 533 835 581 879 q 414 792 485 792 m 414 886 q 456 903 439 886 q 472 944 472 919 q 456 986 472 969 q 414 1003 439 1003 q 372 986 389 1003 q 356 944 356 969 q 372 903 356 919 q 414 886 389 886 z "},"v":{"ha":806,"x_min":28,"x_max":778,"o":"m 340 0 l 28 736 l 194 736 l 419 167 l 622 736 l 778 736 l 493 0 l 340 0 z "},"w":{"ha":1153,"x_min":42,"x_max":1111,"o":"m 243 0 l 42 736 l 203 736 l 338 194 l 507 736 l 646 736 l 826 194 l 961 736 l 1111 736 l 910 0 l 757 0 l 574 542 l 396 0 l 243 0 z "},"ẃ":{"ha":1153,"x_min":42,"x_max":1111,"o":"m 243 0 l 42 736 l 203 736 l 338 194 l 507 736 l 646 736 l 826 194 l 961 736 l 1111 736 l 910 0 l 757 0 l 574 542 l 396 0 l 243 0 m 514 806 l 667 1028 l 847 1028 l 639 806 l 514 806 z "},"ŵ":{"ha":1153,"x_min":42,"x_max":1111,"o":"m 243 0 l 42 736 l 203 736 l 338 194 l 507 736 l 646 736 l 826 194 l 961 736 l 1111 736 l 910 0 l 757 0 l 574 542 l 396 0 l 243 0 m 347 806 l 500 1028 l 653 1028 l 806 806 l 681 806 l 576 917 l 472 806 l 347 806 z "},"ẅ":{"ha":1153,"x_min":42,"x_max":1111,"o":"m 243 0 l 42 736 l 203 736 l 338 194 l 507 736 l 646 736 l 826 194 l 961 736 l 1111 736 l 910 0 l 757 0 l 574 542 l 396 0 l 243 0 m 432 825 q 366 851 392 825 q 340 917 340 876 q 366 983 340 957 q 432 1008 392 1008 q 498 983 472 1008 q 524 917 524 957 q 498 851 524 876 q 432 825 472 825 m 721 825 q 655 851 681 825 q 629 917 629 876 q 655 983 629 957 q 721 1008 681 1008 q 787 983 761 1008 q 813 917 813 957 q 787 851 813 876 q 721 825 761 825 z "},"ẁ":{"ha":1153,"x_min":42,"x_max":1111,"o":"m 243 0 l 42 736 l 203 736 l 338 194 l 507 736 l 646 736 l 826 194 l 961 736 l 1111 736 l 910 0 l 757 0 l 574 542 l 396 0 l 243 0 m 514 806 l 306 1028 l 486 1028 l 639 806 l 514 806 z "},"x":{"ha":778,"x_min":28,"x_max":750,"o":"m 28 0 l 293 383 l 42 736 l 214 736 l 393 489 l 569 736 l 736 736 l 488 389 l 750 0 l 575 0 l 388 286 l 197 0 l 28 0 z "},"y":{"ha":806,"x_min":28,"x_max":778,"o":"m 215 -293 q 174 -289 194 -293 l 174 -156 q 215 -160 194 -160 q 265 -145 246 -160 q 301 -96 285 -131 q 340 0 318 -61 l 28 736 l 194 736 l 419 167 l 622 736 l 778 736 l 493 0 q 417 -168 453 -103 q 335 -263 381 -233 q 215 -293 289 -293 z "},"ý":{"ha":806,"x_min":28,"x_max":778,"o":"m 215 -293 q 174 -289 194 -293 l 174 -156 q 215 -160 194 -160 q 265 -145 246 -160 q 301 -96 285 -131 q 340 0 318 -61 l 28 736 l 194 736 l 419 167 l 622 736 l 778 736 l 493 0 q 417 -168 453 -103 q 335 -263 381 -233 q 215 -293 289 -293 m 340 806 l 493 1028 l 674 1028 l 465 806 l 340 806 z "},"ŷ":{"ha":806,"x_min":28,"x_max":778,"o":"m 215 -293 q 174 -289 194 -293 l 174 -156 q 215 -160 194 -160 q 265 -145 246 -160 q 301 -96 285 -131 q 340 0 318 -61 l 28 736 l 194 736 l 419 167 l 622 736 l 778 736 l 493 0 q 417 -168 453 -103 q 335 -263 381 -233 q 215 -293 289 -293 m 174 806 l 326 1028 l 479 1028 l 632 806 l 507 806 l 403 917 l 299 806 l 174 806 z "},"ÿ":{"ha":806,"x_min":28,"x_max":778,"o":"m 215 -293 q 174 -289 194 -293 l 174 -156 q 215 -160 194 -160 q 265 -145 246 -160 q 301 -96 285 -131 q 340 0 318 -61 l 28 736 l 194 736 l 419 167 l 622 736 l 778 736 l 493 0 q 417 -168 453 -103 q 335 -263 381 -233 q 215 -293 289 -293 m 258 825 q 192 851 218 825 q 167 917 167 876 q 192 983 167 957 q 258 1008 218 1008 q 324 983 299 1008 q 350 917 350 957 q 324 851 350 876 q 258 825 299 825 m 547 825 q 481 851 507 825 q 456 917 456 876 q 481 983 456 957 q 547 1008 507 1008 q 613 983 588 1008 q 639 917 639 957 q 613 851 639 876 q 547 825 588 825 z "},"ỳ":{"ha":806,"x_min":28,"x_max":778,"o":"m 215 -293 q 174 -289 194 -293 l 174 -156 q 215 -160 194 -160 q 265 -145 246 -160 q 301 -96 285 -131 q 340 0 318 -61 l 28 736 l 194 736 l 419 167 l 622 736 l 778 736 l 493 0 q 417 -168 453 -103 q 335 -263 381 -233 q 215 -293 289 -293 m 340 806 l 132 1028 l 313 1028 l 465 806 l 340 806 z "},"z":{"ha":708,"x_min":49,"x_max":660,"o":"m 49 0 l 49 117 l 463 606 l 63 606 l 63 736 l 646 736 l 646 619 l 232 131 l 660 131 l 660 0 l 49 0 z "},"ź":{"ha":708,"x_min":49,"x_max":660,"o":"m 49 0 l 49 117 l 463 606 l 63 606 l 63 736 l 646 736 l 646 619 l 232 131 l 660 131 l 660 0 l 49 0 m 292 806 l 444 1028 l 625 1028 l 417 806 l 292 806 z "},"ž":{"ha":708,"x_min":49,"x_max":660,"o":"m 49 0 l 49 117 l 463 606 l 63 606 l 63 736 l 646 736 l 646 619 l 232 131 l 660 131 l 660 0 l 49 0 m 278 806 l 125 1028 l 250 1028 l 354 917 l 458 1028 l 583 1028 l 431 806 l 278 806 z "},"ż":{"ha":708,"x_min":49,"x_max":660,"o":"m 49 0 l 49 117 l 463 606 l 63 606 l 63 736 l 646 736 l 646 619 l 232 131 l 660 131 l 660 0 l 49 0 m 354 819 q 284 847 311 819 q 257 917 257 874 q 284 987 257 960 q 354 1014 311 1014 q 424 987 397 1014 q 451 917 451 960 q 424 847 451 874 q 354 819 397 819 z "},"ª":{"ha":792,"x_min":63,"x_max":710,"o":"m 313 -15 q 177 15 233 -15 q 92 97 121 44 q 63 215 63 150 q 128 378 63 325 q 319 432 193 432 l 549 432 l 549 472 q 512 587 549 556 q 396 618 475 618 q 292 596 325 618 q 253 535 258 574 l 104 535 q 144 647 108 599 q 247 724 181 696 q 403 751 313 751 q 560 724 493 751 q 665 637 628 696 q 701 481 701 578 l 701 188 q 703 85 701 129 q 710 0 704 42 l 571 0 q 565 54 567 32 q 563 110 563 76 q 472 22 536 58 q 313 -15 407 -15 m 354 118 q 451 136 407 118 q 522 190 494 154 q 549 278 549 226 l 549 318 l 347 318 q 253 293 289 318 q 218 219 218 268 q 251 146 218 174 q 354 118 283 118 z "},"º":{"ha":528,"x_min":35,"x_max":493,"o":"m 264 513 q 98 576 161 513 q 35 743 35 640 l 35 757 q 63 878 35 826 q 144 958 92 929 q 264 988 196 988 q 383 958 332 988 q 464 878 435 929 q 493 757 493 826 l 493 743 q 430 576 493 640 q 264 513 367 513 m 264 638 q 324 663 301 638 q 346 744 346 688 l 346 757 q 324 838 346 813 q 264 863 301 863 q 204 838 226 863 q 182 757 182 813 l 182 744 q 204 663 182 688 q 264 638 226 638 z "},"А":{"ha":944,"x_min":21,"x_max":924,"o":"m 21 0 l 389 972 l 556 972 l 924 0 l 746 0 l 664 219 l 269 219 l 188 0 l 21 0 m 324 364 l 610 364 l 468 764 l 324 364 z "},"Б":{"ha":931,"x_min":125,"x_max":875,"o":"m 125 0 l 125 972 l 785 972 l 785 828 l 292 828 l 292 606 l 493 606 q 782 523 689 606 q 875 303 875 440 q 782 83 875 165 q 493 0 689 0 l 125 0 m 292 144 l 479 144 q 660 185 611 144 q 708 304 708 225 q 660 422 708 382 q 479 461 611 461 l 292 461 l 292 144 z "},"В":{"ha":938,"x_min":125,"x_max":875,"o":"m 125 0 l 125 972 l 514 972 q 756 901 679 972 q 833 713 833 831 q 794 584 833 638 q 688 507 756 531 q 824 428 774 488 q 875 275 875 369 q 840 132 875 194 q 731 35 806 69 q 536 0 656 0 l 125 0 m 292 144 l 518 144 q 667 179 626 144 q 708 286 708 214 q 667 395 708 357 q 517 433 625 433 l 292 433 l 292 144 m 292 567 l 493 567 q 628 603 590 567 q 667 700 667 639 q 629 795 667 763 q 493 828 592 828 l 292 828 l 292 567 z "},"Г":{"ha":778,"x_min":125,"x_max":750,"o":"m 125 0 l 125 972 l 750 972 l 750 828 l 292 828 l 292 0 l 125 0 z "},"Ѓ":{"ha":778,"x_min":125,"x_max":750,"o":"m 125 0 l 125 972 l 750 972 l 750 828 l 292 828 l 292 0 l 125 0 m 375 1042 l 528 1250 l 722 1250 l 514 1042 l 375 1042 z "},"Ґ":{"ha":778,"x_min":125,"x_max":750,"o":"m 125 0 l 125 972 l 594 972 l 594 1153 l 750 1153 l 750 828 l 292 828 l 292 0 l 125 0 z "},"Ғ":{"ha":792,"x_min":28,"x_max":764,"o":"m 139 568 l 139 972 l 764 972 l 764 828 l 306 828 l 306 568 l 565 568 l 565 424 l 306 424 l 306 0 l 139 0 l 139 424 l 28 424 l 28 568 l 139 568 z "},"Ҕ":{"ha":896,"x_min":125,"x_max":808,"o":"m 125 0 l 125 972 l 729 972 l 729 828 l 296 828 l 296 560 q 375 598 321 576 q 513 619 429 619 q 667 588 601 619 q 771 492 733 557 q 808 324 808 426 l 808 -11 q 793 -125 808 -74 q 744 -213 778 -176 q 655 -270 710 -250 q 521 -290 600 -290 l 461 -290 l 461 -157 l 504 -157 q 612 -121 581 -157 q 643 -7 643 -85 l 643 299 q 599 433 643 392 q 469 474 556 474 q 363 453 407 474 q 296 410 319 432 l 296 0 l 125 0 z "},"Д":{"ha":1028,"x_min":28,"x_max":986,"o":"m 28 -181 l 28 144 l 132 144 q 174 268 158 196 q 199 425 190 340 q 212 597 208 510 q 215 764 215 683 l 215 972 l 874 972 l 874 144 l 986 144 l 986 -181 l 833 -181 l 833 0 l 181 0 l 181 -181 l 28 -181 m 301 144 l 707 144 l 707 828 l 376 828 l 376 736 q 357 393 376 536 q 301 144 338 250 z "},"Е":{"ha":854,"x_min":125,"x_max":778,"o":"m 125 0 l 125 972 l 778 972 l 778 828 l 292 828 l 292 572 l 736 572 l 736 428 l 292 428 l 292 144 l 778 144 l 778 0 l 125 0 z "},"Ё":{"ha":854,"x_min":125,"x_max":778,"o":"m 125 0 l 125 972 l 778 972 l 778 828 l 292 828 l 292 572 l 736 572 l 736 428 l 292 428 l 292 144 l 778 144 l 778 0 l 125 0 m 292 1049 q 222 1076 249 1049 q 194 1146 194 1103 q 222 1216 194 1189 q 292 1243 249 1243 q 362 1216 335 1243 q 389 1146 389 1189 q 362 1076 389 1103 q 292 1049 335 1049 m 611 1049 q 541 1076 568 1049 q 514 1146 514 1103 q 541 1216 514 1189 q 611 1243 568 1243 q 681 1216 654 1243 q 708 1146 708 1189 q 681 1076 708 1103 q 611 1049 654 1049 z "},"Ж":{"ha":1361,"x_min":35,"x_max":1326,"o":"m 35 0 l 382 506 l 49 972 l 229 972 l 514 565 l 597 565 l 597 972 l 764 972 l 764 565 l 847 565 l 1138 972 l 1313 972 l 979 511 l 1326 0 l 1138 0 l 847 435 l 764 435 l 764 0 l 597 0 l 597 435 l 514 435 l 221 0 l 35 0 z "},"З":{"ha":903,"x_min":63,"x_max":840,"o":"m 451 -15 q 245 24 331 -15 q 114 131 160 63 q 63 292 68 200 l 238 292 q 269 208 243 244 q 342 152 296 172 q 451 132 388 132 q 613 171 561 132 q 665 282 665 210 q 643 363 665 329 q 574 415 621 396 q 451 433 528 433 l 333 433 l 333 567 l 451 567 q 585 603 540 567 q 631 704 631 640 q 588 803 631 767 q 451 840 546 840 q 349 824 390 840 q 285 777 307 808 q 258 701 264 746 l 83 701 q 183 910 93 832 q 451 988 274 988 q 717 914 629 988 q 806 711 806 840 q 763 583 806 635 q 647 507 719 531 q 788 428 736 486 q 840 275 840 369 q 797 124 840 190 q 667 22 753 58 q 451 -15 581 -15 z "},"И":{"ha":1056,"x_min":125,"x_max":931,"o":"m 125 0 l 125 972 l 292 972 l 292 264 l 769 972 l 931 972 l 931 0 l 764 0 l 764 708 l 286 0 l 125 0 z "},"Й":{"ha":1056,"x_min":125,"x_max":931,"o":"m 125 0 l 125 972 l 292 972 l 292 264 l 769 972 l 931 972 l 931 0 l 764 0 l 764 708 l 286 0 l 125 0 m 528 1035 q 386 1060 442 1035 q 304 1135 331 1086 q 278 1257 278 1185 l 431 1257 q 455 1167 431 1193 q 528 1140 479 1140 q 601 1167 576 1140 q 625 1257 625 1193 l 778 1257 q 751 1135 778 1185 q 669 1060 725 1086 q 528 1035 614 1035 z "},"К":{"ha":979,"x_min":125,"x_max":944,"o":"m 125 0 l 125 972 l 292 972 l 292 565 l 389 565 l 742 972 l 931 972 l 521 510 l 944 0 l 742 0 l 389 435 l 292 435 l 292 0 l 125 0 z "},"Ќ":{"ha":979,"x_min":125,"x_max":944,"o":"m 125 0 l 125 972 l 292 972 l 292 565 l 389 565 l 742 972 l 931 972 l 521 510 l 944 0 l 742 0 l 389 435 l 292 435 l 292 0 l 125 0 m 449 1042 l 601 1250 l 796 1250 l 588 1042 l 449 1042 z "},"Л":{"ha":1000,"x_min":35,"x_max":875,"o":"m 83 -15 q 59 -15 72 -15 q 35 -11 46 -14 l 35 147 q 56 146 39 146 q 110 158 86 146 q 149 203 133 169 q 176 300 165 236 q 190 467 186 364 q 194 722 194 571 l 194 972 l 875 972 l 875 0 l 708 0 l 708 828 l 356 828 l 356 694 q 344 388 356 513 q 312 183 333 263 q 258 60 290 103 q 181 1 225 17 q 83 -15 138 -15 z "},"М":{"ha":1208,"x_min":125,"x_max":1083,"o":"m 125 0 l 125 972 l 297 972 l 607 396 l 917 972 l 1083 972 l 1083 0 l 917 0 l 917 681 l 660 201 l 549 201 l 292 681 l 292 0 l 125 0 z "},"Н":{"ha":1056,"x_min":125,"x_max":931,"o":"m 125 0 l 125 972 l 292 972 l 292 572 l 764 572 l 764 972 l 931 972 l 931 0 l 764 0 l 764 428 l 292 428 l 292 0 l 125 0 z "},"О":{"ha":1042,"x_min":76,"x_max":965,"o":"m 521 -15 q 352 13 432 -15 q 210 99 272 40 q 112 252 147 158 q 76 479 76 346 l 76 507 q 112 726 76 635 q 210 875 147 817 q 352 960 272 933 q 521 988 432 988 q 690 960 610 988 q 832 875 769 933 q 930 726 894 817 q 965 507 965 635 l 965 479 q 930 252 965 346 q 832 99 894 158 q 690 13 769 40 q 521 -15 610 -15 m 521 132 q 651 165 590 132 q 751 274 713 199 q 790 479 790 350 l 790 507 q 751 702 790 629 q 651 808 713 775 q 521 840 590 840 q 390 808 451 840 q 290 702 328 775 q 251 507 251 629 l 251 479 q 290 274 251 350 q 390 165 328 199 q 521 132 451 132 z "},"П":{"ha":1042,"x_min":125,"x_max":917,"o":"m 125 0 l 125 972 l 917 972 l 917 0 l 750 0 l 750 828 l 292 828 l 292 0 l 125 0 z "},"Р":{"ha":917,"x_min":125,"x_max":861,"o":"m 125 0 l 125 972 l 479 972 q 694 934 610 972 q 820 826 779 896 q 861 663 861 757 q 820 499 861 568 q 694 391 779 429 q 479 353 610 353 l 292 353 l 292 0 l 125 0 m 292 497 l 465 497 q 646 538 597 497 q 694 663 694 579 q 646 786 694 744 q 465 828 597 828 l 292 828 l 292 497 z "},"С":{"ha":958,"x_min":76,"x_max":896,"o":"m 500 -15 q 285 35 381 -15 q 133 195 189 86 q 76 479 76 304 l 76 507 q 110 724 76 633 q 201 874 143 815 q 335 960 258 932 q 500 988 413 988 q 650 967 581 988 q 772 907 719 947 q 857 807 825 867 q 896 667 889 747 l 721 667 q 644 799 703 757 q 500 840 585 840 q 382 809 439 840 q 288 706 325 778 q 251 507 251 633 l 251 479 q 274 312 251 379 q 333 206 296 244 q 413 149 369 167 q 500 132 457 132 q 655 178 600 132 q 721 306 710 225 l 896 306 q 855 158 888 219 q 769 59 822 97 q 647 3 715 21 q 500 -15 579 -15 z "},"Т":{"ha":875,"x_min":28,"x_max":847,"o":"m 354 0 l 354 828 l 28 828 l 28 972 l 847 972 l 847 828 l 521 828 l 521 0 l 354 0 z "},"У":{"ha":944,"x_min":21,"x_max":924,"o":"m 285 -15 q 255 -15 269 -15 q 229 -12 240 -14 l 229 136 q 255 133 240 135 q 285 132 269 132 q 347 140 322 132 q 388 170 371 149 q 421 231 406 192 l 21 972 l 215 972 l 508 410 l 751 972 l 924 972 l 582 206 q 528 105 556 147 q 467 36 500 63 q 390 -3 433 10 q 285 -15 346 -15 z "},"Ў":{"ha":944,"x_min":21,"x_max":924,"o":"m 285 -15 q 255 -15 269 -15 q 229 -12 240 -14 l 229 136 q 255 133 240 135 q 285 132 269 132 q 347 140 322 132 q 388 170 371 149 q 421 231 406 192 l 21 972 l 215 972 l 508 410 l 751 972 l 924 972 l 582 206 q 528 105 556 147 q 467 36 500 63 q 390 -3 433 10 q 285 -15 346 -15 m 483 1035 q 342 1060 397 1035 q 260 1135 286 1086 q 233 1257 233 1185 l 386 1257 q 410 1167 386 1193 q 483 1140 435 1140 q 556 1167 532 1140 q 581 1257 581 1193 l 733 1257 q 707 1135 733 1185 q 625 1060 681 1086 q 483 1035 569 1035 z "},"Ф":{"ha":1222,"x_min":69,"x_max":1153,"o":"m 528 -42 l 528 51 q 278 106 381 51 q 122 259 175 161 q 69 486 69 357 l 69 514 q 122 728 69 638 q 278 870 175 819 q 528 921 381 921 l 528 1014 l 694 1014 l 694 921 q 944 870 842 921 q 1099 728 1046 819 q 1153 514 1153 638 l 1153 486 q 1099 259 1153 357 q 944 106 1046 161 q 694 51 842 51 l 694 -42 l 528 -42 m 978 486 l 978 514 q 947 656 978 599 q 852 744 915 714 q 694 774 789 774 l 694 199 q 853 233 790 199 q 947 331 915 267 q 978 486 978 394 m 244 514 l 244 486 q 276 331 244 394 q 370 233 307 267 q 528 199 433 199 l 528 774 q 370 744 433 774 q 276 656 307 714 q 244 514 244 599 z "},"Х":{"ha":944,"x_min":35,"x_max":910,"o":"m 35 0 l 369 508 l 49 972 l 238 972 l 474 632 l 713 972 l 896 972 l 576 511 l 910 0 l 718 0 l 471 389 l 221 0 l 35 0 z "},"Ч":{"ha":938,"x_min":76,"x_max":813,"o":"m 646 0 l 646 408 q 544 368 610 386 q 396 350 479 350 q 154 428 232 350 q 76 674 76 506 l 76 972 l 243 972 l 243 688 q 288 542 243 588 q 431 497 333 497 q 560 515 506 497 q 646 553 614 532 l 646 972 l 813 972 l 813 0 l 646 0 z "},"Ц":{"ha":1069,"x_min":125,"x_max":1028,"o":"m 872 -181 l 872 0 l 125 0 l 125 972 l 292 972 l 292 144 l 736 144 l 736 972 l 903 972 l 903 144 l 1028 144 l 1028 -181 l 872 -181 z "},"Ш":{"ha":1361,"x_min":125,"x_max":1236,"o":"m 125 0 l 125 972 l 292 972 l 292 144 l 597 144 l 597 972 l 764 972 l 764 144 l 1069 144 l 1069 972 l 1236 972 l 1236 0 l 125 0 z "},"Щ":{"ha":1403,"x_min":125,"x_max":1361,"o":"m 125 0 l 125 972 l 292 972 l 292 144 l 597 144 l 597 972 l 764 972 l 764 144 l 1069 144 l 1069 972 l 1236 972 l 1236 144 l 1361 144 l 1361 -181 l 1206 -181 l 1206 0 l 125 0 z "},"Џ":{"ha":1028,"x_min":125,"x_max":903,"o":"m 436 -181 l 436 0 l 125 0 l 125 972 l 292 972 l 292 144 l 736 144 l 736 972 l 903 972 l 903 0 l 592 0 l 592 -181 l 436 -181 z "},"Ь":{"ha":917,"x_min":125,"x_max":861,"o":"m 125 0 l 125 972 l 292 972 l 292 606 l 479 606 q 768 523 675 606 q 861 303 861 440 q 768 83 861 165 q 479 0 675 0 l 125 0 m 292 144 l 465 144 q 646 185 597 144 q 694 303 694 225 q 646 421 694 381 q 465 461 597 461 l 292 461 l 292 144 z "},"Ы":{"ha":1250,"x_min":125,"x_max":1125,"o":"m 125 0 l 125 972 l 292 972 l 292 606 l 451 606 q 740 523 647 606 q 833 303 833 440 q 740 83 833 165 q 451 0 647 0 l 125 0 m 292 144 l 438 144 q 618 185 569 144 q 667 303 667 225 q 618 421 667 381 q 438 461 569 461 l 292 461 l 292 144 m 958 0 l 958 972 l 1125 972 l 1125 0 l 958 0 z "},"Ъ":{"ha":1028,"x_min":28,"x_max":972,"o":"m 236 0 l 236 828 l 28 828 l 28 972 l 403 972 l 403 606 l 590 606 q 879 523 786 606 q 972 303 972 440 q 879 83 972 165 q 590 0 786 0 l 236 0 m 403 144 l 576 144 q 757 185 708 144 q 806 303 806 225 q 757 421 806 381 q 576 461 708 461 l 403 461 l 403 144 z "},"Љ":{"ha":1472,"x_min":35,"x_max":1417,"o":"m 83 -15 q 59 -15 72 -15 q 35 -11 46 -14 l 35 147 q 56 146 39 146 q 110 158 86 146 q 149 203 133 169 q 176 300 165 236 q 190 467 186 364 q 194 722 194 571 l 194 972 l 861 972 l 861 606 l 1035 606 q 1324 524 1232 606 q 1417 303 1417 442 q 1324 82 1417 164 q 1035 0 1232 0 l 694 0 l 694 828 l 356 828 l 356 694 q 344 388 356 513 q 312 183 333 263 q 258 60 290 103 q 181 1 225 17 q 83 -15 138 -15 m 861 144 l 1021 144 q 1201 185 1153 144 q 1250 303 1250 225 q 1201 421 1250 381 q 1021 461 1153 461 l 861 461 l 861 144 z "},"Њ":{"ha":1528,"x_min":125,"x_max":1472,"o":"m 125 0 l 125 972 l 292 972 l 292 586 l 750 586 l 750 972 l 917 972 l 917 586 l 1097 586 q 1383 508 1294 586 q 1472 293 1472 429 q 1383 78 1472 157 q 1097 0 1294 0 l 750 0 l 750 442 l 292 442 l 292 0 l 125 0 m 917 144 l 1083 144 q 1259 183 1213 144 q 1306 293 1306 221 q 1259 403 1306 365 q 1083 442 1213 442 l 917 442 l 917 144 z "},"Ѕ":{"ha":903,"x_min":69,"x_max":833,"o":"m 451 -15 q 244 21 326 -15 q 120 120 163 57 q 69 264 78 183 l 236 264 q 293 169 247 207 q 451 132 339 132 q 617 170 568 132 q 667 264 667 208 q 639 339 667 310 q 553 390 611 368 q 407 429 496 411 q 238 485 307 451 q 133 576 168 519 q 97 722 97 633 q 138 856 97 796 q 256 951 178 915 q 451 988 335 988 q 641 953 565 988 q 758 860 717 919 q 806 722 799 800 l 639 722 q 583 808 628 775 q 451 840 538 840 q 308 806 351 840 q 264 722 264 771 q 319 622 264 656 q 490 565 375 589 q 640 523 576 547 q 747 465 704 499 q 812 381 790 431 q 833 264 833 332 q 791 120 833 183 q 664 21 749 57 q 451 -15 579 -15 z "},"Є":{"ha":958,"x_min":76,"x_max":896,"o":"m 500 -15 q 334 13 411 -15 q 199 100 257 40 q 108 253 140 160 q 76 479 76 347 l 76 507 q 108 724 76 633 q 199 874 140 815 q 334 960 257 932 q 500 988 411 988 q 650 967 581 988 q 772 907 719 947 q 857 807 825 867 q 896 667 889 747 l 721 667 q 644 799 703 757 q 500 840 585 840 q 381 813 435 840 q 294 726 328 786 q 253 563 261 665 l 618 563 l 618 424 l 253 424 q 281 285 258 342 q 337 195 303 229 q 413 147 371 161 q 500 132 456 132 q 654 178 600 132 q 719 306 708 225 l 896 306 q 855 158 888 219 q 769 59 822 97 q 647 3 715 21 q 500 -15 579 -15 z "},"Э":{"ha":958,"x_min":63,"x_max":882,"o":"m 458 -15 q 311 3 379 -15 q 190 59 243 21 q 103 158 136 97 q 63 306 71 219 l 239 306 q 304 178 250 225 q 458 132 358 132 q 544 147 503 132 q 620 195 586 161 q 676 285 654 229 q 704 424 699 342 l 340 424 l 340 563 l 704 563 q 663 726 697 665 q 576 813 629 786 q 458 840 524 840 q 317 799 378 840 q 238 667 256 757 l 63 667 q 101 807 69 747 q 186 907 133 867 q 308 967 239 947 q 458 988 378 988 q 625 960 549 988 q 760 874 701 932 q 850 724 818 815 q 882 507 882 633 l 882 479 q 850 253 882 347 q 760 100 818 160 q 625 13 701 40 q 458 -15 549 -15 z "},"І":{"ha":444,"x_min":139,"x_max":306,"o":"m 139 0 l 139 972 l 306 972 l 306 0 l 139 0 z "},"Ї":{"ha":444,"x_min":-35,"x_max":479,"o":"m 139 0 l 139 972 l 306 972 l 306 0 l 139 0 m 63 1049 q -8 1076 19 1049 q -35 1146 -35 1103 q -8 1216 -35 1189 q 63 1243 19 1243 q 133 1216 106 1243 q 160 1146 160 1189 q 133 1076 160 1103 q 63 1049 106 1049 m 382 1049 q 312 1076 339 1049 q 285 1146 285 1103 q 312 1216 285 1189 q 382 1243 339 1243 q 452 1216 425 1243 q 479 1146 479 1189 q 452 1076 479 1103 q 382 1049 425 1049 z "},"Ј":{"ha":778,"x_min":28,"x_max":653,"o":"m 333 -15 q 167 19 233 -15 q 66 120 100 54 q 28 278 32 186 l 189 278 q 229 169 194 206 q 333 132 264 132 q 417 151 383 132 q 469 218 451 171 q 486 347 486 265 l 486 972 l 653 972 l 653 347 q 616 137 653 217 q 508 21 579 57 q 333 -15 438 -15 z "},"Ћ":{"ha":1167,"x_min":28,"x_max":1090,"o":"m 354 0 l 354 828 l 28 828 l 28 972 l 847 972 l 847 828 l 521 828 l 521 564 q 622 604 557 586 q 771 622 688 622 q 1013 544 935 622 q 1090 299 1090 467 l 1090 0 l 924 0 l 924 285 q 878 430 924 385 q 736 475 833 475 q 607 458 661 475 q 521 419 553 440 l 521 0 l 354 0 z "},"Ю":{"ha":1326,"x_min":125,"x_max":1250,"o":"m 125 0 l 125 972 l 292 972 l 292 572 l 440 572 q 506 810 451 719 q 647 944 561 901 q 840 988 733 988 q 1052 938 960 988 q 1197 783 1144 889 q 1250 507 1250 678 l 1250 479 q 1197 194 1250 303 q 1052 35 1144 85 q 840 -15 960 -15 q 644 29 732 -15 q 503 172 557 74 q 440 428 449 269 l 292 428 l 292 0 l 125 0 m 840 132 q 960 165 907 132 q 1044 274 1013 199 q 1075 479 1075 350 l 1075 507 q 1044 702 1075 629 q 960 808 1013 775 q 840 840 907 840 q 722 808 775 840 q 637 702 668 775 q 606 507 606 629 l 606 479 q 637 274 606 350 q 722 165 668 199 q 840 132 775 132 z "},"Я":{"ha":944,"x_min":56,"x_max":819,"o":"m 56 0 l 300 392 q 138 497 192 424 q 83 669 83 569 q 125 826 83 758 q 249 933 167 894 q 451 972 331 972 l 819 972 l 819 0 l 653 0 l 653 372 l 449 372 l 233 0 l 56 0 m 250 669 q 301 553 250 594 q 479 511 351 511 l 653 511 l 653 828 l 479 828 q 301 786 351 828 q 250 669 250 744 z "},"Ђ":{"ha":1146,"x_min":28,"x_max":1090,"o":"m 354 0 l 354 828 l 28 828 l 28 972 l 847 972 l 847 828 l 521 828 l 521 564 q 622 604 557 586 q 771 622 688 622 q 1012 546 933 622 q 1090 322 1090 469 l 1090 294 q 1009 69 1090 146 q 750 -7 928 -7 q 715 -6 739 -7 q 681 -3 692 -6 l 681 144 q 708 141 692 142 q 736 140 725 140 q 872 180 829 140 q 915 294 915 219 l 915 322 q 872 435 915 396 q 736 475 829 475 q 607 458 661 475 q 521 419 553 440 l 521 0 l 354 0 z "},"Җ":{"ha":1386,"x_min":35,"x_max":1346,"o":"m 1346 -181 l 1190 -181 l 1190 0 l 1133 0 l 850 435 l 767 435 l 767 0 l 596 0 l 596 435 l 513 435 l 222 0 l 35 0 l 378 503 l 49 972 l 233 972 l 513 565 l 596 565 l 596 972 l 767 972 l 767 565 l 850 565 l 1133 972 l 1313 972 l 983 513 l 1229 144 l 1346 144 l 1346 -181 z "},"Ҙ":{"ha":903,"x_min":63,"x_max":840,"o":"m 533 -7 l 533 -181 l 378 -181 l 378 -6 l 533 -7 m 451 -15 q 245 24 331 -15 q 114 131 160 63 q 63 292 68 200 l 238 292 q 269 208 243 244 q 342 152 296 172 q 451 132 388 132 q 613 171 561 132 q 665 282 665 210 q 643 363 665 329 q 574 415 621 396 q 451 433 528 433 l 333 433 l 333 567 l 451 567 q 585 603 540 567 q 631 704 631 640 q 588 803 631 767 q 451 840 546 840 q 349 824 390 840 q 285 777 307 808 q 258 701 264 746 l 83 701 q 183 910 93 832 q 451 988 274 988 q 717 914 629 988 q 806 711 806 840 q 763 583 806 635 q 647 507 719 531 q 788 428 736 486 q 840 275 840 369 q 797 124 840 190 q 667 22 753 58 q 451 -15 581 -15 z "},"Қ":{"ha":1013,"x_min":125,"x_max":974,"o":"m 974 -181 l 818 -181 l 818 0 l 742 0 l 389 435 l 292 435 l 292 0 l 125 0 l 125 972 l 292 972 l 292 565 l 389 565 l 742 972 l 931 972 l 521 510 l 824 144 l 974 144 l 974 -181 z "},"Ҝ":{"ha":1031,"x_min":125,"x_max":996,"o":"m 125 0 l 125 972 l 296 972 l 296 561 l 365 561 l 365 726 l 507 726 l 507 561 l 535 561 l 774 972 l 956 972 l 671 510 l 996 0 l 793 0 l 535 428 l 507 428 l 507 271 l 365 271 l 365 428 l 296 428 l 296 0 l 125 0 z "},"Ҡ":{"ha":1108,"x_min":28,"x_max":1064,"o":"m 28 836 l 28 972 l 411 972 l 411 565 l 508 565 l 861 972 l 1050 972 l 640 510 l 1064 0 l 861 0 l 508 435 l 411 435 l 411 0 l 244 0 l 244 836 l 28 836 z "},"Ң":{"ha":1082,"x_min":125,"x_max":1042,"o":"m 1042 -181 l 886 -181 l 886 0 l 760 0 l 760 428 l 296 428 l 296 0 l 125 0 l 125 972 l 296 972 l 296 572 l 760 572 l 760 972 l 931 972 l 931 144 l 1042 144 l 1042 -181 z "},"Ҥ":{"ha":1413,"x_min":125,"x_max":1385,"o":"m 296 0 l 125 0 l 125 972 l 296 972 l 296 572 l 760 572 l 760 972 l 1385 972 l 1385 828 l 931 828 l 931 0 l 760 0 l 760 428 l 296 428 l 296 0 z "},"Ҫ":{"ha":958,"x_min":76,"x_max":896,"o":"m 583 -181 l 428 -181 l 428 -10 q 379 -1 403 -7 q 332 13 356 6 q 147 168 218 54 q 76 479 76 282 l 76 507 q 110 724 76 633 q 201 874 143 815 q 335 960 258 932 q 500 988 413 988 q 650 967 581 988 q 772 907 719 947 q 857 807 825 867 q 896 667 889 747 l 721 667 q 644 799 703 757 q 500 840 585 840 q 382 809 439 840 q 288 706 325 778 q 251 507 251 633 l 251 479 q 274 312 251 379 q 333 206 296 244 q 413 149 369 167 q 500 132 457 132 q 655 178 600 132 q 721 306 710 225 l 896 306 q 854 158 888 219 q 768 59 821 97 q 647 3 715 21 q 616 -4 632 -1 q 583 -10 600 -7 l 583 -181 z "},"Ү":{"ha":917,"x_min":14,"x_max":903,"o":"m 557 0 l 388 0 l 388 378 l 14 972 l 210 972 l 474 550 l 719 972 l 903 972 l 557 378 l 557 0 z "},"Ұ":{"ha":879,"x_min":24,"x_max":865,"o":"m 374 0 l 374 272 l 182 272 l 182 417 l 369 417 l 24 972 l 219 972 l 460 574 l 682 972 l 865 972 l 547 417 l 724 417 l 724 272 l 543 272 l 543 0 l 374 0 z "},"Ҳ":{"ha":976,"x_min":31,"x_max":936,"o":"m 936 -181 l 781 -181 l 781 0 l 714 0 l 467 389 l 217 0 l 31 0 l 365 508 l 44 972 l 233 972 l 469 632 l 708 972 l 892 972 l 572 511 l 811 144 l 936 144 l 936 -181 z "},"Ҷ":{"ha":976,"x_min":76,"x_max":938,"o":"m 782 0 l 642 0 l 642 414 q 542 372 606 390 q 396 353 479 353 q 153 429 231 353 q 76 674 76 506 l 76 972 l 247 972 l 247 688 q 291 543 247 586 q 431 500 335 500 q 559 518 508 500 q 642 557 610 536 l 642 972 l 813 972 l 813 144 l 938 144 l 938 -181 l 782 -181 l 782 0 z "},"Ҹ":{"ha":931,"x_min":58,"x_max":806,"o":"m 806 0 l 635 0 l 635 449 q 576 416 610 429 q 507 394 543 403 l 507 249 l 365 249 l 365 382 q 248 398 299 383 q 161 440 197 413 q 102 509 125 468 q 69 603 79 550 q 58 721 58 656 l 58 972 l 228 972 l 228 735 q 257 590 228 640 q 365 526 286 539 l 365 704 l 507 704 l 507 531 q 576 558 544 540 q 635 601 608 575 l 635 972 l 806 972 l 806 0 z "},"Һ":{"ha":917,"x_min":125,"x_max":861,"o":"m 125 972 l 296 972 l 296 586 q 396 629 332 610 q 549 649 460 649 q 785 572 708 649 q 861 326 861 494 l 861 0 l 690 0 l 690 313 q 647 458 690 414 q 503 501 603 501 q 378 483 428 501 q 296 443 328 465 l 296 0 l 125 0 l 125 972 z "},"Ӏ":{"ha":444,"x_min":139,"x_max":306,"o":"m 139 0 l 139 972 l 306 972 l 306 0 l 139 0 z "},"Ӄ":{"ha":928,"x_min":125,"x_max":883,"o":"m 125 0 l 125 972 l 296 972 l 296 561 l 426 561 l 693 972 l 883 972 l 596 554 q 715 508 661 543 q 800 415 768 474 q 832 274 832 357 l 832 -11 q 817 -125 832 -74 q 767 -213 801 -176 q 678 -270 733 -250 q 544 -290 624 -290 l 483 -290 l 483 -157 l 526 -157 q 635 -121 604 -157 q 665 -7 665 -85 l 665 243 q 643 347 665 307 q 578 408 621 388 q 478 428 536 428 l 296 428 l 296 0 l 125 0 z "},"Ӈ":{"ha":1056,"x_min":125,"x_max":931,"o":"m 125 0 l 125 972 l 296 972 l 296 572 l 760 572 l 760 972 l 931 972 l 931 0 q 917 -126 931 -72 q 872 -217 903 -181 q 787 -272 840 -254 q 654 -290 733 -290 l 622 -290 l 622 -151 l 646 -151 q 735 -117 711 -151 q 760 0 760 -83 l 760 428 l 296 428 l 296 0 l 125 0 z "},"Ӌ":{"ha":938,"x_min":76,"x_max":813,"o":"m 521 -181 l 521 144 l 642 144 l 642 414 q 542 372 606 390 q 396 353 479 353 q 153 429 231 353 q 76 674 76 506 l 76 972 l 247 972 l 247 688 q 291 543 247 586 q 431 500 335 500 q 559 518 508 500 q 642 557 610 536 l 642 972 l 813 972 l 813 0 l 676 0 l 676 -181 l 521 -181 z "},"Ӑ":{"ha":944,"x_min":21,"x_max":924,"o":"m 21 0 l 389 972 l 556 972 l 924 0 l 746 0 l 664 219 l 269 219 l 188 0 l 21 0 m 324 364 l 610 364 l 468 764 l 324 364 m 474 1038 q 332 1063 388 1038 q 250 1138 276 1089 q 224 1260 224 1188 l 376 1260 q 401 1169 376 1196 q 474 1143 425 1143 q 547 1169 522 1143 q 571 1260 571 1196 l 724 1260 q 697 1138 724 1188 q 615 1063 671 1089 q 474 1038 560 1038 z "},"Ӓ":{"ha":944,"x_min":21,"x_max":924,"o":"m 21 0 l 389 972 l 556 972 l 924 0 l 746 0 l 664 219 l 269 219 l 188 0 l 21 0 m 324 364 l 610 364 l 468 764 l 324 364 m 313 1049 q 242 1076 269 1049 q 215 1146 215 1103 q 242 1216 215 1189 q 313 1243 269 1243 q 383 1216 356 1243 q 410 1146 410 1189 q 383 1076 410 1103 q 313 1049 356 1049 m 632 1049 q 562 1076 589 1049 q 535 1146 535 1103 q 562 1216 535 1189 q 632 1243 589 1243 q 702 1216 675 1243 q 729 1146 729 1189 q 702 1076 729 1103 q 632 1049 675 1049 z "},"Ӕ":{"ha":1354,"x_min":14,"x_max":1278,"o":"m 14 0 l 583 972 l 1278 972 l 1278 828 l 792 828 l 792 572 l 1236 572 l 1236 428 l 792 428 l 792 144 l 1278 144 l 1278 0 l 625 0 l 625 219 l 319 219 l 192 0 l 14 0 m 401 364 l 625 364 l 625 764 l 401 364 z "},"Ӗ":{"ha":854,"x_min":125,"x_max":778,"o":"m 125 0 l 125 972 l 778 972 l 778 828 l 292 828 l 292 572 l 736 572 l 736 428 l 292 428 l 292 144 l 778 144 l 778 0 l 125 0 m 451 1035 q 310 1060 365 1035 q 228 1135 254 1086 q 201 1257 201 1185 l 354 1257 q 378 1167 354 1193 q 451 1140 403 1140 q 524 1167 500 1140 q 549 1257 549 1193 l 701 1257 q 675 1135 701 1185 q 593 1060 649 1086 q 451 1035 538 1035 z "},"Ә":{"ha":993,"x_min":69,"x_max":917,"o":"m 474 -15 q 308 13 382 -15 q 180 101 233 42 q 98 255 126 161 q 69 479 69 349 l 69 558 l 736 558 q 694 724 731 663 q 603 813 658 786 q 485 840 547 840 q 352 803 410 840 q 269 681 294 765 l 90 681 q 165 849 110 781 q 301 953 219 918 q 482 988 383 988 q 649 959 571 988 q 788 872 728 931 q 883 723 849 814 q 917 507 917 632 l 917 479 q 857 197 917 306 q 697 36 797 88 q 474 -15 596 -15 m 475 132 q 599 161 543 132 q 692 257 656 190 q 736 433 729 324 l 239 433 q 278 255 247 321 q 360 160 310 189 q 475 132 411 132 z "},"Ӛ":{"ha":993,"x_min":69,"x_max":917,"o":"m 474 -15 q 308 13 382 -15 q 180 101 233 42 q 98 255 126 161 q 69 479 69 349 l 69 558 l 736 558 q 694 724 731 663 q 603 813 658 786 q 485 840 547 840 q 352 803 410 840 q 269 681 294 765 l 90 681 q 165 849 110 781 q 301 953 219 918 q 482 988 383 988 q 649 959 571 988 q 788 872 728 931 q 883 723 849 814 q 917 507 917 632 l 917 479 q 857 197 917 306 q 697 36 797 88 q 474 -15 596 -15 m 475 132 q 599 161 543 132 q 692 257 656 190 q 736 433 729 324 l 239 433 q 278 255 247 321 q 360 160 310 189 q 475 132 411 132 m 338 1049 q 267 1076 294 1049 q 240 1146 240 1103 q 267 1216 240 1189 q 338 1243 294 1243 q 408 1216 381 1243 q 435 1146 435 1189 q 408 1076 435 1103 q 338 1049 381 1049 m 657 1049 q 587 1076 614 1049 q 560 1146 560 1103 q 587 1216 560 1189 q 657 1243 614 1243 q 727 1216 700 1243 q 754 1146 754 1189 q 727 1076 754 1103 q 657 1049 700 1049 z "},"Ӝ":{"ha":1361,"x_min":35,"x_max":1326,"o":"m 35 0 l 382 506 l 49 972 l 229 972 l 514 565 l 597 565 l 597 972 l 764 972 l 764 565 l 847 565 l 1138 972 l 1313 972 l 979 511 l 1326 0 l 1138 0 l 847 435 l 764 435 l 764 0 l 597 0 l 597 435 l 514 435 l 221 0 l 35 0 m 521 1049 q 451 1076 478 1049 q 424 1146 424 1103 q 451 1216 424 1189 q 521 1243 478 1243 q 591 1216 564 1243 q 618 1146 618 1189 q 591 1076 618 1103 q 521 1049 564 1049 m 840 1049 q 770 1076 797 1049 q 743 1146 743 1103 q 770 1216 743 1189 q 840 1243 797 1243 q 910 1216 883 1243 q 938 1146 938 1189 q 910 1076 938 1103 q 840 1049 883 1049 z "},"Ӟ":{"ha":903,"x_min":63,"x_max":840,"o":"m 451 -15 q 245 24 331 -15 q 114 131 160 63 q 63 292 68 200 l 238 292 q 269 208 243 244 q 342 152 296 172 q 451 132 388 132 q 613 171 561 132 q 665 282 665 210 q 643 363 665 329 q 574 415 621 396 q 451 433 528 433 l 333 433 l 333 567 l 451 567 q 585 603 540 567 q 631 704 631 640 q 588 803 631 767 q 451 840 546 840 q 349 824 390 840 q 285 777 307 808 q 258 701 264 746 l 83 701 q 183 910 93 832 q 451 988 274 988 q 717 914 629 988 q 806 711 806 840 q 763 583 806 635 q 647 507 719 531 q 788 428 736 486 q 840 275 840 369 q 797 124 840 190 q 667 22 753 58 q 451 -15 581 -15 m 292 1049 q 222 1076 249 1049 q 194 1146 194 1103 q 222 1216 194 1189 q 292 1243 249 1243 q 362 1216 335 1243 q 389 1146 389 1189 q 362 1076 389 1103 q 292 1049 335 1049 m 611 1049 q 541 1076 568 1049 q 514 1146 514 1103 q 541 1216 514 1189 q 611 1243 568 1243 q 681 1216 654 1243 q 708 1146 708 1189 q 681 1076 708 1103 q 611 1049 654 1049 z "},"Ӣ":{"ha":1056,"x_min":125,"x_max":931,"o":"m 125 0 l 125 972 l 292 972 l 292 264 l 769 972 l 931 972 l 931 0 l 764 0 l 764 708 l 286 0 l 125 0 m 319 1081 l 319 1211 l 736 1211 l 736 1081 l 319 1081 z "},"Ӥ":{"ha":1056,"x_min":125,"x_max":931,"o":"m 125 0 l 125 972 l 292 972 l 292 264 l 769 972 l 931 972 l 931 0 l 764 0 l 764 708 l 286 0 l 125 0 m 368 1049 q 298 1076 325 1049 q 271 1146 271 1103 q 298 1216 271 1189 q 368 1243 325 1243 q 438 1216 411 1243 q 465 1146 465 1189 q 438 1076 465 1103 q 368 1049 411 1049 m 688 1049 q 617 1076 644 1049 q 590 1146 590 1103 q 617 1216 590 1189 q 688 1243 644 1243 q 758 1216 731 1243 q 785 1146 785 1189 q 758 1076 785 1103 q 688 1049 731 1049 z "},"Ӧ":{"ha":1042,"x_min":76,"x_max":965,"o":"m 521 -15 q 352 13 432 -15 q 210 99 272 40 q 112 252 147 158 q 76 479 76 346 l 76 507 q 112 726 76 635 q 210 875 147 817 q 352 960 272 933 q 521 988 432 988 q 690 960 610 988 q 832 875 769 933 q 930 726 894 817 q 965 507 965 635 l 965 479 q 930 252 965 346 q 832 99 894 158 q 690 13 769 40 q 521 -15 610 -15 m 521 132 q 651 165 590 132 q 751 274 713 199 q 790 479 790 350 l 790 507 q 751 702 790 629 q 651 808 713 775 q 521 840 590 840 q 390 808 451 840 q 290 702 328 775 q 251 507 251 629 l 251 479 q 290 274 251 350 q 390 165 328 199 q 521 132 451 132 m 361 1049 q 291 1076 318 1049 q 264 1146 264 1103 q 291 1216 264 1189 q 361 1243 318 1243 q 431 1216 404 1243 q 458 1146 458 1189 q 431 1076 458 1103 q 361 1049 404 1049 m 681 1049 q 610 1076 638 1049 q 583 1146 583 1103 q 610 1216 583 1189 q 681 1243 638 1243 q 751 1216 724 1243 q 778 1146 778 1189 q 751 1076 778 1103 q 681 1049 724 1049 z "},"Ө":{"ha":1051,"x_min":76,"x_max":975,"o":"m 525 -15 q 356 13 436 -15 q 212 101 275 42 q 113 254 149 160 q 76 479 76 349 l 76 507 q 113 724 76 633 q 212 874 149 815 q 356 960 275 932 q 525 988 436 988 q 695 960 614 988 q 840 874 776 932 q 939 724 903 815 q 975 507 975 633 l 975 479 q 939 254 975 349 q 840 101 903 160 q 695 13 776 42 q 525 -15 614 -15 m 525 132 q 648 160 590 132 q 745 252 706 188 q 793 424 785 317 l 257 424 q 306 252 267 317 q 402 160 344 188 q 525 132 460 132 m 525 840 q 403 813 461 840 q 306 724 344 785 q 257 563 267 663 l 793 563 q 745 724 785 663 q 648 813 706 785 q 525 840 590 840 z "},"Ӫ":{"ha":1051,"x_min":76,"x_max":975,"o":"m 525 -15 q 356 13 436 -15 q 212 101 275 42 q 113 254 149 160 q 76 479 76 349 l 76 507 q 113 724 76 633 q 212 874 149 815 q 356 960 275 932 q 525 988 436 988 q 695 960 614 988 q 840 874 776 932 q 939 724 903 815 q 975 507 975 633 l 975 479 q 939 254 975 349 q 840 101 903 160 q 695 13 776 42 q 525 -15 614 -15 m 525 132 q 648 160 590 132 q 745 252 706 188 q 793 424 785 317 l 257 424 q 306 252 267 317 q 402 160 344 188 q 525 132 460 132 m 525 840 q 403 813 461 840 q 306 724 344 785 q 257 563 267 663 l 793 563 q 745 724 785 663 q 648 813 706 785 q 525 840 590 840 m 367 1049 q 297 1076 324 1049 q 269 1146 269 1103 q 297 1216 269 1189 q 367 1243 324 1243 q 437 1216 410 1243 q 464 1146 464 1189 q 437 1076 464 1103 q 367 1049 410 1049 m 686 1049 q 616 1076 643 1049 q 589 1146 589 1103 q 616 1216 589 1189 q 686 1243 643 1243 q 756 1216 729 1243 q 783 1146 783 1189 q 756 1076 783 1103 q 686 1049 729 1049 z "},"Ӯ":{"ha":944,"x_min":21,"x_max":924,"o":"m 285 -15 q 255 -15 269 -15 q 229 -12 240 -14 l 229 136 q 255 133 240 135 q 285 132 269 132 q 347 140 322 132 q 388 170 371 149 q 421 231 406 192 l 21 972 l 215 972 l 508 410 l 751 972 l 924 972 l 582 206 q 528 105 556 147 q 467 36 500 63 q 390 -3 433 10 q 285 -15 346 -15 m 264 1081 l 264 1211 l 681 1211 l 681 1081 l 264 1081 z "},"Ӱ":{"ha":944,"x_min":21,"x_max":924,"o":"m 285 -15 q 255 -15 269 -15 q 229 -12 240 -14 l 229 136 q 255 133 240 135 q 285 132 269 132 q 347 140 322 132 q 388 170 371 149 q 421 231 406 192 l 21 972 l 215 972 l 508 410 l 751 972 l 924 972 l 582 206 q 528 105 556 147 q 467 36 500 63 q 390 -3 433 10 q 285 -15 346 -15 m 313 1049 q 242 1076 269 1049 q 215 1146 215 1103 q 242 1216 215 1189 q 313 1243 269 1243 q 383 1216 356 1243 q 410 1146 410 1189 q 383 1076 410 1103 q 313 1049 356 1049 m 632 1049 q 562 1076 589 1049 q 535 1146 535 1103 q 562 1216 535 1189 q 632 1243 589 1243 q 702 1216 675 1243 q 729 1146 729 1189 q 702 1076 729 1103 q 632 1049 675 1049 z "},"Ӳ":{"ha":944,"x_min":21,"x_max":924,"o":"m 285 -15 q 255 -15 269 -15 q 229 -12 240 -14 l 229 136 q 255 133 240 135 q 285 132 269 132 q 347 140 322 132 q 388 170 371 149 q 421 231 406 192 l 21 972 l 215 972 l 508 410 l 751 972 l 924 972 l 582 206 q 528 105 556 147 q 467 36 500 63 q 390 -3 433 10 q 285 -15 346 -15 m 300 1042 l 456 1250 l 614 1250 l 428 1042 l 300 1042 m 518 1042 l 708 1250 l 869 1250 l 646 1042 l 518 1042 z "},"Ӵ":{"ha":938,"x_min":76,"x_max":813,"o":"m 646 0 l 646 408 q 544 368 610 386 q 396 350 479 350 q 154 428 232 350 q 76 674 76 506 l 76 972 l 243 972 l 243 688 q 288 542 243 588 q 431 497 333 497 q 560 515 506 497 q 646 553 614 532 l 646 972 l 813 972 l 813 0 l 646 0 m 310 1049 q 240 1076 267 1049 q 213 1146 213 1103 q 240 1216 213 1189 q 310 1243 267 1243 q 380 1216 353 1243 q 407 1146 407 1189 q 380 1076 407 1103 q 310 1049 353 1049 m 629 1049 q 559 1076 586 1049 q 532 1146 532 1103 q 559 1216 532 1189 q 629 1243 586 1243 q 699 1216 672 1243 q 726 1146 726 1189 q 699 1076 726 1103 q 629 1049 672 1049 z "},"Ӹ":{"ha":1250,"x_min":125,"x_max":1125,"o":"m 125 0 l 125 972 l 292 972 l 292 606 l 451 606 q 740 523 647 606 q 833 303 833 440 q 740 83 833 165 q 451 0 647 0 l 125 0 m 292 144 l 438 144 q 618 185 569 144 q 667 303 667 225 q 618 421 667 381 q 438 461 569 461 l 292 461 l 292 144 m 958 0 l 958 972 l 1125 972 l 1125 0 l 958 0 m 465 1049 q 395 1076 422 1049 q 368 1146 368 1103 q 395 1216 368 1189 q 465 1243 422 1243 q 535 1216 508 1243 q 563 1146 563 1189 q 535 1076 563 1103 q 465 1049 508 1049 m 785 1049 q 715 1076 742 1049 q 688 1146 688 1103 q 715 1216 688 1189 q 785 1243 742 1243 q 855 1216 828 1243 q 882 1146 882 1189 q 855 1076 882 1103 q 785 1049 828 1049 z "},"Ԓ":{"ha":1000,"x_min":35,"x_max":875,"o":"m 567 -290 l 567 -151 l 590 -151 q 680 -117 656 -151 q 704 0 704 -83 l 704 828 l 360 828 l 360 694 q 349 388 360 513 q 315 183 338 263 q 258 60 292 103 q 181 1 225 17 q 83 -15 138 -15 q 59 -15 72 -15 q 35 -11 46 -14 l 35 147 q 56 146 38 146 q 110 158 86 146 q 149 203 133 169 q 176 300 165 236 q 190 467 186 364 q 194 722 194 571 l 194 972 l 875 972 l 875 0 q 861 -127 875 -72 q 816 -218 847 -182 q 731 -272 785 -254 q 597 -290 676 -290 l 567 -290 z "},"а":{"ha":792,"x_min":63,"x_max":710,"o":"m 313 -15 q 177 15 233 -15 q 92 97 121 44 q 63 215 63 150 q 128 378 63 325 q 319 432 193 432 l 549 432 l 549 472 q 512 587 549 556 q 396 618 475 618 q 292 596 325 618 q 253 535 258 574 l 104 535 q 144 647 108 599 q 247 724 181 696 q 403 751 313 751 q 560 724 493 751 q 665 637 628 696 q 701 481 701 578 l 701 188 q 703 85 701 129 q 710 0 704 42 l 571 0 q 565 54 567 32 q 563 110 563 76 q 472 22 536 58 q 313 -15 407 -15 m 354 118 q 451 136 407 118 q 522 190 494 154 q 549 278 549 226 l 549 318 l 347 318 q 253 293 289 318 q 218 219 218 268 q 251 146 218 174 q 354 118 283 118 z "},"б":{"ha":826,"x_min":63,"x_max":771,"o":"m 417 -15 q 236 33 317 -15 q 109 176 156 82 q 63 406 63 271 l 63 433 q 97 717 63 600 q 213 900 131 835 q 440 972 296 965 q 550 977 499 975 q 643 985 601 979 q 715 1007 685 992 l 715 867 q 670 852 701 858 q 588 842 639 846 q 461 836 536 839 q 318 809 375 835 q 231 728 261 783 q 192 576 200 672 q 251 653 214 621 q 342 705 289 686 q 458 724 394 724 q 621 683 550 724 q 731 567 692 643 q 771 385 771 492 l 771 353 q 724 155 771 238 q 598 28 678 72 q 417 -15 518 -15 m 417 118 q 561 178 507 118 q 615 353 615 238 l 615 385 q 560 536 615 482 q 417 590 506 590 q 273 537 328 590 q 218 385 218 483 l 218 353 q 244 226 218 279 q 316 146 271 174 q 417 118 361 118 z "},"в":{"ha":792,"x_min":97,"x_max":736,"o":"m 97 0 l 97 736 l 444 736 q 595 710 538 736 q 681 640 653 685 q 708 536 708 594 q 679 442 708 488 q 597 382 650 397 q 701 319 665 365 q 736 210 736 272 q 672 57 736 114 q 472 0 608 0 l 97 0 m 250 131 l 451 131 q 555 155 526 131 q 583 224 583 179 q 555 291 583 268 q 451 314 526 314 l 250 314 l 250 131 m 250 433 l 431 433 q 528 456 500 433 q 556 519 556 479 q 528 583 556 560 q 431 606 500 606 l 250 606 l 250 433 z "},"г":{"ha":639,"x_min":97,"x_max":611,"o":"m 97 0 l 97 736 l 611 736 l 611 606 l 250 606 l 250 0 l 97 0 z "},"ѓ":{"ha":639,"x_min":97,"x_max":625,"o":"m 97 0 l 97 736 l 611 736 l 611 606 l 250 606 l 250 0 l 97 0 m 292 806 l 444 1028 l 625 1028 l 417 806 l 292 806 z "},"ґ":{"ha":639,"x_min":97,"x_max":611,"o":"m 97 0 l 97 736 l 469 736 l 469 910 l 611 910 l 611 606 l 250 606 l 250 0 l 97 0 z "},"ғ":{"ha":688,"x_min":42,"x_max":660,"o":"m 42 296 l 42 426 l 146 426 l 146 736 l 660 736 l 660 606 l 299 606 l 299 426 l 531 426 l 531 296 l 299 296 l 299 0 l 146 0 l 146 296 l 42 296 z "},"ҕ":{"ha":779,"x_min":97,"x_max":707,"o":"m 97 0 l 97 736 l 611 736 l 611 606 l 250 606 l 250 436 q 326 470 282 456 q 436 485 369 485 q 639 424 571 485 q 707 224 707 364 l 707 0 q 685 -179 707 -115 q 611 -268 663 -243 q 471 -293 560 -293 q 436 -292 456 -293 q 401 -289 417 -292 l 401 -156 q 426 -159 413 -158 q 450 -160 439 -160 q 512 -147 489 -160 q 544 -97 535 -133 q 554 7 554 -61 l 554 203 q 519 319 554 288 q 401 351 485 351 q 304 339 343 351 q 250 314 265 326 l 250 0 l 97 0 z "},"д":{"ha":854,"x_min":28,"x_max":819,"o":"m 28 -174 l 28 131 l 111 131 q 144 222 131 160 q 166 364 158 283 q 174 528 174 444 l 174 736 l 722 736 l 722 131 l 819 131 l 819 -174 l 678 -174 l 678 0 l 169 0 l 169 -174 l 28 -174 m 267 131 l 569 131 l 569 606 l 321 606 l 321 500 q 308 295 321 393 q 267 131 296 197 z "},"е":{"ha":806,"x_min":56,"x_max":750,"o":"m 417 -15 q 238 26 319 -15 q 106 150 156 67 q 56 361 56 233 l 56 389 q 103 592 56 511 q 231 712 151 672 q 403 751 310 751 q 660 661 571 751 q 750 403 750 571 l 750 325 l 211 325 q 243 204 214 250 q 318 138 272 158 q 417 118 364 118 q 533 143 496 118 q 583 208 569 168 l 736 208 q 627 42 714 99 q 417 -15 540 -15 m 410 618 q 314 600 358 618 q 242 543 269 582 q 211 439 214 504 l 597 439 q 571 547 596 508 q 504 602 546 586 q 410 618 463 618 z "},"ё":{"ha":806,"x_min":56,"x_max":750,"o":"m 417 -15 q 238 26 319 -15 q 106 150 156 67 q 56 361 56 233 l 56 389 q 103 592 56 511 q 231 712 151 672 q 403 751 310 751 q 660 661 571 751 q 750 403 750 571 l 750 325 l 211 325 q 243 204 214 250 q 318 138 272 158 q 417 118 364 118 q 533 143 496 118 q 583 208 569 168 l 736 208 q 627 42 714 99 q 417 -15 540 -15 m 410 618 q 314 600 358 618 q 242 543 269 582 q 211 439 214 504 l 597 439 q 571 547 596 508 q 504 602 546 586 q 410 618 463 618 m 258 825 q 192 851 218 825 q 167 917 167 876 q 192 983 167 957 q 258 1008 218 1008 q 324 983 299 1008 q 350 917 350 957 q 324 851 350 876 q 258 825 299 825 m 547 825 q 481 851 507 825 q 456 917 456 876 q 481 983 456 957 q 547 1008 507 1008 q 613 983 588 1008 q 639 917 639 957 q 613 851 639 876 q 547 825 588 825 z "},"ж":{"ha":1125,"x_min":28,"x_max":1097,"o":"m 28 0 l 292 379 l 42 736 l 217 736 l 417 440 l 486 440 l 486 736 l 639 736 l 639 440 l 708 440 l 925 736 l 1083 736 l 819 386 l 1097 0 l 925 0 l 708 310 l 639 310 l 639 0 l 486 0 l 486 310 l 417 310 l 208 0 l 28 0 z "},"з":{"ha":743,"x_min":49,"x_max":688,"o":"m 368 -15 q 199 13 268 -15 q 92 94 129 40 q 49 222 54 147 l 204 222 q 227 165 210 189 q 278 130 244 142 q 365 118 313 118 q 496 149 460 118 q 532 225 532 179 q 501 291 532 267 q 392 315 469 315 l 271 315 l 271 435 l 382 435 q 475 461 446 435 q 504 528 504 488 q 474 591 504 564 q 368 618 443 618 q 256 592 288 618 q 218 521 225 565 l 63 521 q 104 643 68 592 q 207 723 140 694 q 368 751 274 751 q 590 692 519 751 q 660 536 660 632 q 634 443 660 483 q 550 382 608 403 q 658 317 628 363 q 688 211 688 271 q 653 96 688 147 q 547 15 618 44 q 368 -15 476 -15 z "},"и":{"ha":847,"x_min":97,"x_max":750,"o":"m 97 0 l 97 736 l 250 736 l 250 215 l 604 736 l 750 736 l 750 0 l 597 0 l 597 521 l 243 0 l 97 0 z "},"й":{"ha":847,"x_min":97,"x_max":750,"o":"m 97 0 l 97 736 l 250 736 l 250 215 l 604 736 l 750 736 l 750 0 l 597 0 l 597 521 l 243 0 l 97 0 m 424 819 q 255 870 308 819 q 201 1014 201 921 l 343 1014 q 363 942 343 964 q 424 919 383 919 q 484 942 464 919 q 504 1014 504 964 l 646 1014 q 592 870 646 921 q 424 819 538 819 z "},"к":{"ha":806,"x_min":97,"x_max":778,"o":"m 97 0 l 97 736 l 250 736 l 250 438 l 333 438 l 592 736 l 764 736 l 451 385 l 778 0 l 592 0 l 333 313 l 250 313 l 250 0 l 97 0 z "},"ќ":{"ha":806,"x_min":97,"x_max":778,"o":"m 97 0 l 97 736 l 250 736 l 250 438 l 333 438 l 592 736 l 764 736 l 451 385 l 778 0 l 592 0 l 333 313 l 250 313 l 250 0 l 97 0 m 357 806 l 510 1028 l 690 1028 l 482 806 l 357 806 z "},"л":{"ha":819,"x_min":35,"x_max":722,"o":"m 83 -15 q 59 -15 72 -15 q 35 -11 46 -14 l 35 133 q 56 132 39 132 q 119 165 94 132 q 155 281 143 199 q 167 514 167 364 l 167 736 l 722 736 l 722 0 l 569 0 l 569 606 l 314 606 l 314 486 q 299 241 314 339 q 256 88 285 143 q 183 8 226 32 q 83 -15 140 -15 z "},"м":{"ha":1000,"x_min":97,"x_max":903,"o":"m 97 0 l 97 736 l 269 736 l 504 306 l 739 736 l 903 736 l 903 0 l 750 0 l 750 507 l 556 153 l 444 153 l 250 507 l 250 0 l 97 0 z "},"н":{"ha":847,"x_min":97,"x_max":750,"o":"m 97 0 l 97 736 l 250 736 l 250 440 l 597 440 l 597 736 l 750 736 l 750 0 l 597 0 l 597 310 l 250 310 l 250 0 l 97 0 z "},"о":{"ha":833,"x_min":56,"x_max":778,"o":"m 417 -15 q 233 27 315 -15 q 103 153 151 69 q 56 361 56 238 l 56 389 q 103 587 56 506 q 233 710 151 668 q 417 751 315 751 q 601 710 519 751 q 730 587 682 668 q 778 389 778 506 l 778 361 q 730 153 778 238 q 601 27 682 69 q 417 -15 519 -15 m 417 118 q 517 143 469 118 q 593 222 564 168 q 622 361 622 275 l 622 389 q 593 519 622 468 q 517 594 564 569 q 417 618 469 618 q 317 594 364 618 q 240 519 269 569 q 211 389 211 468 l 211 361 q 240 222 211 275 q 317 143 269 168 q 417 118 364 118 z "},"п":{"ha":833,"x_min":97,"x_max":736,"o":"m 97 0 l 97 736 l 736 736 l 736 0 l 583 0 l 583 606 l 250 606 l 250 0 l 97 0 z "},"р":{"ha":854,"x_min":97,"x_max":799,"o":"m 97 -278 l 97 736 l 239 736 l 239 613 q 338 714 272 676 q 488 751 404 751 q 715 661 632 751 q 799 389 799 571 l 799 361 q 760 152 799 236 q 651 26 721 68 q 488 -15 582 -15 q 343 19 408 -15 q 250 117 278 54 l 250 -278 l 97 -278 m 451 118 q 590 178 538 118 q 643 361 643 238 l 643 389 q 592 562 643 506 q 451 618 540 618 q 353 596 400 618 q 278 531 307 574 q 250 424 250 488 l 250 326 q 278 210 250 257 q 353 141 307 164 q 451 118 399 118 z "},"с":{"ha":771,"x_min":56,"x_max":722,"o":"m 403 -15 q 225 26 304 -15 q 101 151 146 68 q 56 361 56 235 l 56 389 q 103 589 56 508 q 231 710 151 669 q 403 751 310 751 q 567 718 500 751 q 673 628 635 685 q 722 500 711 571 l 567 500 q 517 585 553 551 q 403 618 481 618 q 308 594 351 618 q 238 520 264 571 q 211 389 211 469 l 211 361 q 238 220 211 274 q 308 142 264 167 q 403 118 351 118 q 508 147 468 118 q 567 236 549 176 l 722 236 q 665 102 708 158 q 554 15 621 46 q 403 -15 488 -15 z "},"т":{"ha":694,"x_min":28,"x_max":667,"o":"m 271 0 l 271 606 l 28 606 l 28 736 l 667 736 l 667 606 l 424 606 l 424 0 l 271 0 z "},"у":{"ha":806,"x_min":28,"x_max":778,"o":"m 215 -293 q 174 -289 194 -293 l 174 -156 q 215 -160 194 -160 q 265 -145 246 -160 q 301 -96 285 -131 q 340 0 318 -61 l 28 736 l 194 736 l 419 167 l 622 736 l 778 736 l 493 0 q 417 -168 453 -103 q 335 -263 381 -233 q 215 -293 289 -293 z "},"ў":{"ha":806,"x_min":28,"x_max":778,"o":"m 215 -293 q 174 -289 194 -293 l 174 -156 q 215 -160 194 -160 q 265 -145 246 -160 q 301 -96 285 -131 q 340 0 318 -61 l 28 736 l 194 736 l 419 167 l 622 736 l 778 736 l 493 0 q 417 -168 453 -103 q 335 -263 381 -233 q 215 -293 289 -293 m 408 819 q 240 870 293 819 q 186 1014 186 921 l 328 1014 q 348 942 328 964 q 408 919 368 919 q 469 942 449 919 q 489 1014 489 964 l 631 1014 q 576 870 631 921 q 408 819 522 819 z "},"ф":{"ha":1042,"x_min":56,"x_max":986,"o":"m 444 -278 l 444 -15 q 154 82 253 -15 q 56 361 56 179 l 56 389 q 154 657 56 563 q 444 751 253 751 l 444 972 l 597 972 l 597 751 q 887 657 788 751 q 986 389 986 563 l 986 361 q 887 82 986 179 q 597 -15 788 -15 l 597 -278 l 444 -278 m 831 361 l 831 389 q 774 561 831 504 q 594 618 718 618 l 594 118 q 774 178 718 118 q 831 361 831 239 m 211 390 l 211 361 q 268 178 211 239 q 447 118 325 118 l 447 618 q 267 561 324 618 q 211 390 211 504 z "},"х":{"ha":778,"x_min":28,"x_max":750,"o":"m 28 0 l 293 383 l 42 736 l 214 736 l 393 489 l 569 736 l 736 736 l 488 389 l 750 0 l 575 0 l 388 286 l 197 0 l 28 0 z "},"ч":{"ha":778,"x_min":69,"x_max":681,"o":"m 528 0 l 528 282 q 452 247 496 263 q 340 232 408 232 q 139 294 208 232 q 69 493 69 357 l 69 736 l 222 736 l 222 514 q 256 398 222 431 q 375 365 290 365 q 473 378 433 365 q 528 404 513 392 l 528 736 l 681 736 l 681 0 l 528 0 z "},"ц":{"ha":868,"x_min":97,"x_max":833,"o":"m 692 -174 l 692 0 l 97 0 l 97 736 l 250 736 l 250 131 l 569 131 l 569 736 l 722 736 l 722 131 l 833 131 l 833 -174 l 692 -174 z "},"ш":{"ha":1139,"x_min":97,"x_max":1042,"o":"m 97 0 l 97 736 l 250 736 l 250 131 l 493 131 l 493 736 l 646 736 l 646 131 l 889 131 l 889 736 l 1042 736 l 1042 0 l 97 0 z "},"щ":{"ha":1188,"x_min":97,"x_max":1153,"o":"m 1011 -174 l 1011 0 l 97 0 l 97 736 l 250 736 l 250 131 l 493 131 l 493 736 l 646 736 l 646 131 l 889 131 l 889 736 l 1042 736 l 1042 131 l 1153 131 l 1153 -174 l 1011 -174 z "},"џ":{"ha":819,"x_min":97,"x_max":722,"o":"m 339 -174 l 339 0 l 97 0 l 97 736 l 250 736 l 250 131 l 569 131 l 569 736 l 722 736 l 722 0 l 481 0 l 481 -174 l 339 -174 z "},"ь":{"ha":750,"x_min":111,"x_max":708,"o":"m 111 0 l 111 736 l 264 736 l 264 478 l 431 478 q 640 417 572 478 q 708 239 708 357 q 679 111 708 165 q 589 28 650 57 q 431 0 528 0 l 111 0 m 264 131 l 417 131 q 524 158 493 131 q 556 239 556 185 q 524 320 556 293 q 417 347 493 347 l 264 347 l 264 131 z "},"ы":{"ha":1028,"x_min":97,"x_max":917,"o":"m 97 0 l 97 736 l 250 736 l 250 478 l 389 478 q 599 417 531 478 q 667 239 667 357 q 638 111 667 165 q 547 28 608 57 q 389 0 486 0 l 97 0 m 250 131 l 375 131 q 483 158 451 131 q 514 239 514 185 q 483 320 514 293 q 375 347 451 347 l 250 347 l 250 131 m 764 0 l 764 736 l 917 736 l 917 0 l 764 0 z "},"ъ":{"ha":847,"x_min":28,"x_max":806,"o":"m 208 0 l 208 606 l 28 606 l 28 736 l 361 736 l 361 478 l 528 478 q 738 417 669 478 q 806 239 806 357 q 776 111 806 165 q 686 28 747 57 q 528 0 625 0 l 208 0 m 361 131 l 514 131 q 622 158 590 131 q 653 239 653 185 q 622 320 653 293 q 514 347 590 347 l 361 347 l 361 131 z "},"љ":{"ha":1181,"x_min":35,"x_max":1139,"o":"m 83 -15 q 59 -15 72 -15 q 35 -11 46 -14 l 35 133 q 56 132 39 132 q 119 165 94 132 q 155 281 143 199 q 167 514 167 364 l 167 736 l 708 736 l 708 478 l 861 478 q 1071 417 1003 478 q 1139 239 1139 357 q 1110 111 1139 165 q 1019 28 1081 57 q 861 0 958 0 l 556 0 l 556 606 l 314 606 l 314 486 q 299 241 314 339 q 256 88 285 143 q 183 8 226 32 q 83 -15 140 -15 m 708 131 l 847 131 q 955 158 924 131 q 986 239 986 185 q 955 320 986 293 q 847 347 924 347 l 708 347 l 708 131 z "},"њ":{"ha":1222,"x_min":97,"x_max":1181,"o":"m 97 0 l 97 736 l 250 736 l 250 461 l 583 461 l 583 736 l 736 736 l 736 461 l 917 461 q 1114 401 1047 461 q 1181 231 1181 342 q 1152 109 1181 161 q 1065 28 1124 57 q 917 0 1007 0 l 583 0 l 583 331 l 250 331 l 250 0 l 97 0 m 736 131 l 903 131 q 996 156 967 131 q 1025 231 1025 182 q 996 304 1025 278 q 903 331 967 331 l 736 331 l 736 131 z "},"ѕ":{"ha":750,"x_min":56,"x_max":694,"o":"m 375 -15 q 236 3 294 -15 q 140 52 178 21 q 81 124 101 83 q 56 208 61 164 l 208 208 q 256 144 218 169 q 375 118 293 118 q 504 143 467 118 q 542 208 542 168 q 524 253 542 232 q 466 290 507 274 q 353 314 425 306 q 239 338 290 322 q 151 381 188 354 q 96 445 115 407 q 76 535 76 483 q 109 643 76 594 q 208 722 142 692 q 375 751 275 751 q 534 720 472 751 q 628 638 596 689 q 667 528 660 588 l 514 528 q 469 594 503 571 q 375 618 435 618 q 261 593 293 618 q 229 535 229 568 q 265 473 229 499 q 406 436 300 447 q 524 411 471 428 q 615 367 576 394 q 674 301 653 340 q 694 208 694 263 q 659 95 694 146 q 553 15 624 44 q 375 -15 482 -15 z "},"є":{"ha":771,"x_min":56,"x_max":722,"o":"m 403 -15 q 225 26 304 -15 q 101 151 146 68 q 56 361 56 235 l 56 389 q 103 589 56 508 q 231 710 151 669 q 403 751 310 751 q 567 718 500 751 q 673 628 635 685 q 722 500 711 571 l 567 500 q 517 585 553 551 q 403 618 481 618 q 317 599 357 618 q 249 541 276 581 q 214 439 222 501 l 486 439 l 486 311 l 214 311 q 249 199 222 242 q 317 138 276 157 q 403 118 357 118 q 508 147 468 118 q 567 236 549 176 l 722 236 q 665 102 708 158 q 554 15 621 46 q 403 -15 488 -15 z "},"э":{"ha":771,"x_min":49,"x_max":715,"o":"m 368 -15 q 215 15 282 -15 q 106 102 149 46 q 49 236 63 158 l 204 236 q 263 147 222 176 q 368 118 304 118 q 494 163 443 118 q 557 311 546 207 l 285 311 l 285 439 l 557 439 q 493 575 546 532 q 368 618 440 618 q 254 585 290 618 q 204 500 218 551 l 49 500 q 98 628 60 571 q 203 718 136 685 q 368 751 271 751 q 544 710 465 751 q 669 589 622 669 q 715 389 715 508 l 715 361 q 671 151 715 235 q 549 26 626 68 q 368 -15 471 -15 z "},"і":{"ha":375,"x_min":90,"x_max":285,"o":"m 111 0 l 111 736 l 264 736 l 264 0 l 111 0 m 188 819 q 117 847 144 819 q 90 917 90 874 q 117 987 90 960 q 188 1014 144 1014 q 258 987 231 1014 q 285 917 285 960 q 258 847 285 874 q 188 819 231 819 z "},"ї":{"ha":375,"x_min":-49,"x_max":424,"o":"m 111 0 l 111 736 l 264 736 l 264 0 l 111 0 m 43 825 q -23 851 3 825 q -49 917 -49 876 q -23 983 -49 957 q 43 1008 3 1008 q 109 983 83 1008 q 135 917 135 957 q 109 851 135 876 q 43 825 83 825 m 332 825 q 266 851 292 825 q 240 917 240 876 q 266 983 240 957 q 332 1008 292 1008 q 398 983 372 1008 q 424 917 424 957 q 398 851 424 876 q 332 825 372 825 z "},"ј":{"ha":375,"x_min":-42,"x_max":285,"o":"m 28 -293 q -7 -292 13 -293 q -42 -289 -26 -292 l -42 -156 q -17 -159 -31 -158 q 7 -160 -4 -160 q 66 -146 43 -160 q 100 -95 89 -132 q 111 7 111 -58 l 111 736 l 264 736 l 264 0 q 242 -179 264 -115 q 168 -268 219 -243 q 28 -293 117 -293 m 188 819 q 117 847 144 819 q 90 917 90 874 q 117 987 90 960 q 188 1014 144 1014 q 258 987 231 1014 q 285 917 285 960 q 258 847 285 874 q 188 819 231 819 z "},"ћ":{"ha":868,"x_min":28,"x_max":792,"o":"m 153 0 l 153 617 l 28 617 l 28 736 l 153 736 l 153 972 l 306 972 l 306 736 l 611 736 l 611 617 l 306 617 l 306 411 q 351 476 322 446 q 424 524 381 506 q 528 543 468 543 q 725 470 658 543 q 792 257 792 397 l 792 0 l 639 0 l 639 222 q 601 363 639 315 q 479 410 563 410 q 381 383 419 410 q 324 313 342 356 q 306 222 306 271 l 306 0 l 153 0 z "},"ю":{"ha":1076,"x_min":97,"x_max":1021,"o":"m 97 0 l 97 736 l 250 736 l 250 440 l 332 440 q 388 610 342 540 q 509 715 435 679 q 674 751 583 751 q 851 710 772 751 q 975 587 929 668 q 1021 389 1021 506 l 1021 361 q 975 153 1021 238 q 851 27 929 69 q 674 -15 772 -15 q 508 22 582 -15 q 388 131 433 58 q 332 310 342 203 l 250 310 l 250 0 l 97 0 m 674 118 q 767 143 724 118 q 838 222 811 168 q 865 361 865 275 l 865 389 q 838 519 865 468 q 767 594 811 569 q 674 618 724 618 q 580 594 624 618 q 509 519 536 569 q 482 389 482 468 l 482 361 q 509 222 482 275 q 580 143 536 168 q 674 118 624 118 z "},"я":{"ha":799,"x_min":49,"x_max":701,"o":"m 49 0 l 240 279 q 117 361 157 304 q 76 499 76 418 q 108 624 76 571 q 206 707 140 678 q 368 736 271 736 l 701 736 l 701 0 l 549 0 l 549 261 l 390 261 l 226 0 l 49 0 m 232 499 q 267 416 232 440 q 361 392 301 392 l 549 392 l 549 606 l 361 606 q 267 581 301 606 q 232 499 232 557 z "},"ђ":{"ha":868,"x_min":28,"x_max":792,"o":"m 153 0 l 153 617 l 28 617 l 28 736 l 153 736 l 153 972 l 306 972 l 306 736 l 611 736 l 611 617 l 306 617 l 306 411 q 351 476 322 446 q 424 524 381 506 q 528 543 468 543 q 725 470 658 543 q 792 257 792 397 l 792 0 q 769 -179 792 -115 q 696 -268 747 -243 q 556 -293 644 -293 q 521 -292 540 -293 q 486 -289 501 -292 l 486 -156 q 510 -159 497 -158 q 535 -160 524 -160 q 594 -146 571 -160 q 628 -95 617 -132 q 639 7 639 -58 l 639 222 q 601 363 639 315 q 479 410 563 410 q 381 383 419 410 q 324 313 342 356 q 306 222 306 271 l 306 0 l 153 0 z "},"җ":{"ha":1147,"x_min":28,"x_max":1115,"o":"m 1115 -174 l 978 -174 l 978 0 l 918 0 l 706 314 l 636 314 l 636 0 l 483 0 l 483 314 l 413 314 l 199 0 l 28 0 l 294 379 l 42 736 l 208 736 l 414 436 l 483 436 l 483 736 l 636 736 l 636 436 l 706 436 l 918 736 l 1079 736 l 826 388 l 1003 131 l 1115 131 l 1115 -174 z "},"ҙ":{"ha":743,"x_min":49,"x_max":688,"o":"m 443 -3 l 443 -174 l 304 -174 l 304 -3 l 443 -3 m 368 -15 q 199 13 268 -15 q 92 94 129 40 q 49 222 54 147 l 204 222 q 227 165 210 189 q 278 130 244 142 q 365 118 313 118 q 496 149 460 118 q 532 225 532 179 q 501 291 532 267 q 392 315 469 315 l 271 315 l 271 435 l 382 435 q 475 461 446 435 q 504 528 504 488 q 474 591 504 564 q 368 618 443 618 q 256 592 288 618 q 218 521 225 565 l 63 521 q 104 643 68 592 q 207 723 140 694 q 368 751 274 751 q 590 692 519 751 q 660 536 660 632 q 634 443 660 483 q 550 382 608 403 q 658 317 628 363 q 688 211 688 271 q 653 96 688 147 q 547 15 618 44 q 368 -15 476 -15 z "},"қ":{"ha":815,"x_min":97,"x_max":782,"o":"m 782 -174 l 644 -174 l 644 0 l 592 0 l 333 313 l 250 313 l 250 0 l 97 0 l 97 736 l 250 736 l 250 438 l 333 438 l 592 736 l 764 736 l 451 385 l 667 131 l 782 131 l 782 -174 z "},"ҝ":{"ha":867,"x_min":97,"x_max":839,"o":"m 97 0 l 97 736 l 251 736 l 251 438 l 304 438 l 304 565 l 435 565 l 435 438 l 456 438 l 642 736 l 811 736 l 581 383 l 839 0 l 658 0 l 456 313 l 435 313 l 435 178 l 304 178 l 304 313 l 251 313 l 251 0 l 97 0 z "},"ҡ":{"ha":913,"x_min":28,"x_max":885,"o":"m 28 604 l 28 736 l 361 736 l 361 438 l 444 438 l 696 736 l 871 736 l 567 386 l 885 0 l 696 0 l 444 313 l 361 313 l 361 0 l 208 0 l 208 604 l 28 604 z "},"ң":{"ha":879,"x_min":97,"x_max":847,"o":"m 847 -174 l 710 -174 l 710 0 l 597 0 l 597 310 l 250 310 l 250 0 l 97 0 l 97 736 l 250 736 l 250 440 l 597 440 l 597 736 l 750 736 l 750 131 l 847 131 l 847 -174 z "},"ҥ":{"ha":1139,"x_min":97,"x_max":1111,"o":"m 597 0 l 597 310 l 250 310 l 250 0 l 97 0 l 97 736 l 250 736 l 250 440 l 597 440 l 597 736 l 1111 736 l 1111 606 l 750 606 l 750 0 l 597 0 z "},"ҫ":{"ha":771,"x_min":56,"x_max":722,"o":"m 474 -174 l 333 -174 l 333 -10 q 298 -3 315 -7 q 264 7 281 1 q 113 131 171 43 q 56 361 56 219 l 56 389 q 103 589 56 508 q 231 710 151 669 q 403 751 310 751 q 567 718 500 751 q 673 628 635 685 q 722 500 711 571 l 567 500 q 517 585 553 551 q 403 618 481 618 q 308 594 351 618 q 238 520 264 571 q 211 389 211 469 l 211 361 q 238 220 211 274 q 308 142 264 167 q 403 118 351 118 q 508 147 468 118 q 567 236 549 176 l 722 236 q 653 89 706 149 q 519 1 601 29 q 497 -3 508 -1 q 474 -8 485 -6 l 474 -174 z "},"ү":{"ha":796,"x_min":24,"x_max":774,"o":"m 489 -318 l 336 -318 l 336 -14 l 24 736 l 193 736 l 414 165 l 615 736 l 774 736 l 489 -11 l 489 -318 z "},"ұ":{"ha":774,"x_min":24,"x_max":751,"o":"m 143 0 l 143 129 l 285 129 l 24 736 l 193 736 l 403 214 l 592 736 l 751 736 l 511 129 l 661 129 l 661 0 l 479 0 l 479 -318 l 326 -318 l 326 0 l 143 0 z "},"ҳ":{"ha":804,"x_min":28,"x_max":772,"o":"m 772 -174 l 633 -174 l 633 0 l 575 0 l 388 286 l 197 0 l 28 0 l 293 383 l 42 736 l 214 736 l 393 489 l 569 736 l 736 736 l 488 389 l 661 131 l 772 131 l 772 -174 z "},"ҷ":{"ha":822,"x_min":67,"x_max":789,"o":"m 651 -174 l 651 0 l 525 0 l 525 282 q 449 247 493 263 q 338 232 406 232 q 135 292 204 232 q 67 493 67 353 l 67 736 l 219 736 l 219 514 q 254 398 219 431 q 372 365 289 365 q 470 378 431 365 q 525 403 510 390 l 525 736 l 678 736 l 678 131 l 789 131 l 789 -174 l 651 -174 z "},"ҹ":{"ha":808,"x_min":67,"x_max":706,"o":"m 553 0 l 553 319 q 508 299 533 308 q 451 282 483 289 l 451 151 l 321 151 l 321 271 q 181 304 238 276 q 95 388 124 332 q 67 531 67 443 l 67 736 l 219 736 l 219 551 q 243 451 219 483 q 321 408 267 418 l 321 538 l 451 538 l 451 408 q 515 423 488 414 q 553 440 542 432 l 553 736 l 706 736 l 706 0 l 553 0 z "},"һ":{"ha":840,"x_min":97,"x_max":750,"o":"m 97 0 l 97 972 l 250 972 l 250 619 q 297 684 267 654 q 372 733 326 714 q 479 751 417 751 q 682 678 614 751 q 750 465 750 606 l 750 0 l 597 0 l 597 431 q 558 571 597 524 q 431 618 519 618 q 327 591 367 618 q 269 522 288 564 q 250 431 250 479 l 250 0 l 97 0 z "},"ӏ":{"ha":361,"x_min":104,"x_max":257,"o":"m 257 0 l 104 0 l 104 972 l 257 972 l 257 0 z "},"ӄ":{"ha":775,"x_min":97,"x_max":729,"o":"m 410 -278 l 410 -147 q 432 -151 421 -150 q 454 -153 443 -153 q 517 -117 499 -153 q 536 7 536 -81 l 536 153 q 496 274 536 236 q 382 313 456 313 l 251 313 l 251 0 l 97 0 l 97 736 l 251 736 l 251 438 l 354 438 l 560 736 l 729 736 l 503 424 q 642 342 594 404 q 690 171 690 279 l 690 -24 q 669 -172 690 -114 q 603 -258 649 -231 q 482 -286 557 -286 q 447 -284 465 -286 q 410 -278 428 -282 z "},"ӈ":{"ha":847,"x_min":97,"x_max":750,"o":"m 97 0 l 97 736 l 250 736 l 250 440 l 597 440 l 597 736 l 750 736 l 750 -24 q 728 -172 750 -114 q 662 -258 707 -231 q 543 -286 617 -286 q 507 -284 525 -286 q 469 -278 489 -282 l 469 -147 q 493 -151 482 -150 q 514 -153 504 -153 q 578 -117 560 -153 q 597 7 597 -81 l 597 310 l 250 310 l 250 0 l 97 0 z "},"ӌ":{"ha":781,"x_min":67,"x_max":678,"o":"m 431 -174 l 431 124 l 525 124 l 525 290 q 449 256 493 271 q 338 242 406 242 q 135 302 204 242 q 67 503 67 363 l 67 736 l 219 736 l 219 524 q 254 407 219 439 q 372 375 289 375 q 470 387 431 375 q 525 413 510 399 l 525 736 l 678 736 l 678 0 l 568 0 l 568 -174 l 431 -174 z "},"ӑ":{"ha":792,"x_min":63,"x_max":710,"o":"m 313 -15 q 177 15 233 -15 q 92 97 121 44 q 63 215 63 150 q 128 378 63 325 q 319 432 193 432 l 549 432 l 549 472 q 512 587 549 556 q 396 618 475 618 q 292 596 325 618 q 253 535 258 574 l 104 535 q 144 647 108 599 q 247 724 181 696 q 403 751 313 751 q 560 724 493 751 q 665 637 628 696 q 701 481 701 578 l 701 188 q 703 85 701 129 q 710 0 704 42 l 571 0 q 565 54 567 32 q 563 110 563 76 q 472 22 536 58 q 313 -15 407 -15 m 354 118 q 451 136 407 118 q 522 190 494 154 q 549 278 549 226 l 549 318 l 347 318 q 253 293 289 318 q 218 219 218 268 q 251 146 218 174 q 354 118 283 118 m 403 821 q 234 872 288 821 q 181 1015 181 922 l 322 1015 q 342 943 322 965 q 403 921 363 921 q 463 943 443 921 q 483 1015 483 965 l 625 1015 q 571 872 625 922 q 403 821 517 821 z "},"ӓ":{"ha":792,"x_min":63,"x_max":710,"o":"m 313 -15 q 177 15 233 -15 q 92 97 121 44 q 63 215 63 150 q 128 378 63 325 q 319 432 193 432 l 549 432 l 549 472 q 512 587 549 556 q 396 618 475 618 q 292 596 325 618 q 253 535 258 574 l 104 535 q 144 647 108 599 q 247 724 181 696 q 403 751 313 751 q 560 724 493 751 q 665 637 628 696 q 701 481 701 578 l 701 188 q 703 85 701 129 q 710 0 704 42 l 571 0 q 565 54 567 32 q 563 110 563 76 q 472 22 536 58 q 313 -15 407 -15 m 354 118 q 451 136 407 118 q 522 190 494 154 q 549 278 549 226 l 549 318 l 347 318 q 253 293 289 318 q 218 219 218 268 q 251 146 218 174 q 354 118 283 118 m 258 825 q 192 851 218 825 q 167 917 167 876 q 192 983 167 957 q 258 1008 218 1008 q 324 983 299 1008 q 350 917 350 957 q 324 851 350 876 q 258 825 299 825 m 547 825 q 481 851 507 825 q 456 917 456 876 q 481 983 456 957 q 547 1008 507 1008 q 613 983 588 1008 q 639 917 639 957 q 613 851 639 876 q 547 825 588 825 z "},"ӕ":{"ha":1299,"x_min":63,"x_max":1243,"o":"m 313 -15 q 177 15 233 -15 q 92 97 121 44 q 63 215 63 150 q 128 377 63 325 q 319 429 193 429 l 549 429 l 549 472 q 512 587 549 556 q 396 618 475 618 q 292 596 325 618 q 253 535 258 574 l 104 535 q 144 647 108 599 q 247 724 181 696 q 403 751 313 751 q 551 722 486 751 q 647 638 615 692 q 755 726 692 700 q 896 751 818 751 q 1153 661 1064 751 q 1243 403 1243 571 l 1243 317 l 704 317 q 736 202 707 246 q 811 138 765 158 q 910 118 857 118 q 1026 143 989 118 q 1076 208 1063 168 l 1229 208 q 1120 42 1207 100 q 910 -15 1033 -15 q 740 21 814 -15 q 625 128 665 57 q 508 22 585 60 q 313 -15 431 -15 m 354 118 q 451 136 407 118 q 522 190 494 154 q 549 276 549 225 l 549 318 l 347 318 q 253 293 289 318 q 218 219 218 268 q 251 146 218 174 q 354 118 283 118 m 903 618 q 807 600 851 618 q 735 542 763 582 q 704 433 707 501 l 1090 433 q 1064 545 1089 506 q 997 601 1039 585 q 903 618 956 618 z "},"ӗ":{"ha":806,"x_min":56,"x_max":750,"o":"m 417 -15 q 238 26 319 -15 q 106 150 156 67 q 56 361 56 233 l 56 389 q 103 592 56 511 q 231 712 151 672 q 403 751 310 751 q 660 661 571 751 q 750 403 750 571 l 750 325 l 211 325 q 243 204 214 250 q 318 138 272 158 q 417 118 364 118 q 533 143 496 118 q 583 208 569 168 l 736 208 q 627 42 714 99 q 417 -15 540 -15 m 410 618 q 314 600 358 618 q 242 543 269 582 q 211 439 214 504 l 597 439 q 571 547 596 508 q 504 602 546 586 q 410 618 463 618 m 404 819 q 235 870 289 819 q 182 1014 182 921 l 324 1014 q 344 942 324 964 q 404 919 364 919 q 465 942 444 919 q 485 1014 485 964 l 626 1014 q 572 870 626 921 q 404 819 518 819 z "},"ә":{"ha":810,"x_min":56,"x_max":754,"o":"m 392 751 q 572 710 490 751 q 704 586 654 669 q 754 375 754 503 l 754 347 q 707 144 754 225 q 581 24 660 64 q 406 -15 501 -15 q 145 75 235 -15 q 56 333 56 165 l 56 411 l 600 411 q 569 533 600 488 q 490 600 538 579 q 392 621 442 621 q 274 597 315 621 q 215 528 232 572 l 69 528 q 178 695 92 639 q 392 751 265 751 m 600 297 l 203 297 q 231 190 206 231 q 301 133 257 150 q 399 115 344 115 q 495 134 449 115 q 571 193 542 153 q 600 297 600 233 z "},"ӛ":{"ha":810,"x_min":56,"x_max":754,"o":"m 392 751 q 572 710 490 751 q 704 586 654 669 q 754 375 754 503 l 754 347 q 707 144 754 225 q 581 24 660 64 q 406 -15 501 -15 q 145 75 235 -15 q 56 333 56 165 l 56 411 l 600 411 q 569 533 600 488 q 490 600 538 579 q 392 621 442 621 q 274 597 315 621 q 215 528 232 572 l 69 528 q 178 695 92 639 q 392 751 265 751 m 600 297 l 203 297 q 231 190 206 231 q 301 133 257 150 q 399 115 344 115 q 495 134 449 115 q 571 193 542 153 q 600 297 600 233 m 261 825 q 195 851 221 825 q 169 917 169 876 q 195 983 169 957 q 261 1008 221 1008 q 327 983 301 1008 q 353 917 353 957 q 327 851 353 876 q 261 825 301 825 m 550 825 q 484 851 510 825 q 458 917 458 876 q 484 983 458 957 q 550 1008 510 1008 q 616 983 590 1008 q 642 917 642 957 q 616 851 642 876 q 550 825 590 825 z "},"ӝ":{"ha":1125,"x_min":28,"x_max":1097,"o":"m 28 0 l 292 379 l 42 736 l 217 736 l 417 440 l 486 440 l 486 736 l 639 736 l 639 440 l 708 440 l 925 736 l 1083 736 l 819 386 l 1097 0 l 925 0 l 708 310 l 639 310 l 639 0 l 486 0 l 486 310 l 417 310 l 208 0 l 28 0 m 418 825 q 352 851 378 825 q 326 917 326 876 q 352 983 326 957 q 418 1008 378 1008 q 484 983 458 1008 q 510 917 510 957 q 484 851 510 876 q 418 825 458 825 m 707 825 q 641 851 667 825 q 615 917 615 876 q 641 983 615 957 q 707 1008 667 1008 q 773 983 747 1008 q 799 917 799 957 q 773 851 799 876 q 707 825 747 825 z "},"ӟ":{"ha":743,"x_min":49,"x_max":688,"o":"m 368 -15 q 199 13 268 -15 q 92 94 129 40 q 49 222 54 147 l 204 222 q 227 165 210 189 q 278 130 244 142 q 365 118 313 118 q 496 149 460 118 q 532 225 532 179 q 501 291 532 267 q 392 315 469 315 l 271 315 l 271 435 l 382 435 q 475 461 446 435 q 504 528 504 488 q 474 591 504 564 q 368 618 443 618 q 256 592 288 618 q 218 521 225 565 l 63 521 q 104 643 68 592 q 207 723 140 694 q 368 751 274 751 q 590 692 519 751 q 660 536 660 632 q 634 443 660 483 q 550 382 608 403 q 658 317 628 363 q 688 211 688 271 q 653 96 688 147 q 547 15 618 44 q 368 -15 476 -15 m 228 825 q 162 851 188 825 q 136 917 136 876 q 162 983 136 957 q 228 1008 188 1008 q 294 983 268 1008 q 319 917 319 957 q 294 851 319 876 q 228 825 268 825 m 517 825 q 451 851 476 825 q 425 917 425 876 q 451 983 425 957 q 517 1008 476 1008 q 583 983 557 1008 q 608 917 608 957 q 583 851 608 876 q 517 825 557 825 z "},"ӣ":{"ha":847,"x_min":97,"x_max":750,"o":"m 97 0 l 97 736 l 250 736 l 250 215 l 604 736 l 750 736 l 750 0 l 597 0 l 597 521 l 243 0 l 97 0 m 229 858 l 229 975 l 618 975 l 618 858 l 229 858 z "},"ӥ":{"ha":847,"x_min":97,"x_max":750,"o":"m 97 0 l 97 736 l 250 736 l 250 215 l 604 736 l 750 736 l 750 0 l 597 0 l 597 521 l 243 0 l 97 0 m 279 825 q 213 851 239 825 q 188 917 188 876 q 213 983 188 957 q 279 1008 239 1008 q 345 983 319 1008 q 371 917 371 957 q 345 851 371 876 q 279 825 319 825 m 568 825 q 502 851 528 825 q 476 917 476 876 q 502 983 476 957 q 568 1008 528 1008 q 634 983 608 1008 q 660 917 660 957 q 634 851 660 876 q 568 825 608 825 z "},"ӧ":{"ha":833,"x_min":56,"x_max":778,"o":"m 417 -15 q 233 27 315 -15 q 103 153 151 69 q 56 361 56 238 l 56 389 q 103 587 56 506 q 233 710 151 668 q 417 751 315 751 q 601 710 519 751 q 730 587 682 668 q 778 389 778 506 l 778 361 q 730 153 778 238 q 601 27 682 69 q 417 -15 519 -15 m 417 118 q 517 143 469 118 q 593 222 564 168 q 622 361 622 275 l 622 389 q 593 519 622 468 q 517 594 564 569 q 417 618 469 618 q 317 594 364 618 q 240 519 269 569 q 211 389 211 468 l 211 361 q 240 222 211 275 q 317 143 269 168 q 417 118 364 118 m 272 825 q 206 851 232 825 q 181 917 181 876 q 206 983 181 957 q 272 1008 232 1008 q 338 983 313 1008 q 364 917 364 957 q 338 851 364 876 q 272 825 313 825 m 561 825 q 495 851 521 825 q 469 917 469 876 q 495 983 469 957 q 561 1008 521 1008 q 627 983 601 1008 q 653 917 653 957 q 627 851 653 876 q 561 825 601 825 z "},"ө":{"ha":843,"x_min":56,"x_max":788,"o":"m 421 -15 q 240 26 324 -15 q 106 151 157 67 q 56 361 56 235 l 56 389 q 106 589 56 508 q 240 710 157 669 q 421 751 324 751 q 603 710 519 751 q 737 589 686 669 q 788 389 788 508 l 788 361 q 737 151 788 235 q 603 26 686 68 q 421 -15 519 -15 m 421 118 q 518 140 474 118 q 592 206 563 161 q 629 324 622 251 l 214 324 q 249 206 219 251 q 324 140 279 161 q 421 118 369 118 m 421 618 q 327 599 371 618 q 254 539 283 579 q 215 436 225 499 l 626 436 q 588 539 618 499 q 515 599 558 579 q 421 618 471 618 z "},"ӫ":{"ha":843,"x_min":56,"x_max":788,"o":"m 421 -15 q 240 26 324 -15 q 106 151 157 67 q 56 361 56 235 l 56 389 q 106 589 56 508 q 240 710 157 669 q 421 751 324 751 q 603 710 519 751 q 737 589 686 669 q 788 389 788 508 l 788 361 q 737 151 788 235 q 603 26 686 68 q 421 -15 519 -15 m 421 118 q 518 140 474 118 q 592 206 563 161 q 629 324 622 251 l 214 324 q 249 206 219 251 q 324 140 279 161 q 421 118 369 118 m 421 618 q 327 599 371 618 q 254 539 283 579 q 215 436 225 499 l 626 436 q 588 539 618 499 q 515 599 558 579 q 421 618 471 618 m 278 825 q 212 851 238 825 q 186 917 186 876 q 212 983 186 957 q 278 1008 238 1008 q 344 983 318 1008 q 369 917 369 957 q 344 851 369 876 q 278 825 318 825 m 567 825 q 501 851 526 825 q 475 917 475 876 q 501 983 475 957 q 567 1008 526 1008 q 633 983 607 1008 q 658 917 658 957 q 633 851 658 876 q 567 825 607 825 z "},"ӯ":{"ha":806,"x_min":28,"x_max":778,"o":"m 215 -293 q 174 -289 194 -293 l 174 -156 q 215 -160 194 -160 q 265 -145 246 -160 q 301 -96 285 -131 q 340 0 318 -61 l 28 736 l 194 736 l 419 167 l 622 736 l 778 736 l 493 0 q 417 -168 453 -103 q 335 -263 381 -233 q 215 -293 289 -293 m 208 858 l 208 975 l 597 975 l 597 858 l 208 858 z "},"ӱ":{"ha":806,"x_min":28,"x_max":778,"o":"m 215 -293 q 174 -289 194 -293 l 174 -156 q 215 -160 194 -160 q 265 -145 246 -160 q 301 -96 285 -131 q 340 0 318 -61 l 28 736 l 194 736 l 419 167 l 622 736 l 778 736 l 493 0 q 417 -168 453 -103 q 335 -263 381 -233 q 215 -293 289 -293 m 258 825 q 192 851 218 825 q 167 917 167 876 q 192 983 167 957 q 258 1008 218 1008 q 324 983 299 1008 q 350 917 350 957 q 324 851 350 876 q 258 825 299 825 m 547 825 q 481 851 507 825 q 456 917 456 876 q 481 983 456 957 q 547 1008 507 1008 q 613 983 588 1008 q 639 917 639 957 q 613 851 639 876 q 547 825 588 825 z "},"ӳ":{"ha":806,"x_min":28,"x_max":813,"o":"m 215 -293 q 174 -289 194 -293 l 174 -156 q 215 -160 194 -160 q 265 -145 246 -160 q 301 -96 285 -131 q 340 0 318 -61 l 28 736 l 194 736 l 419 167 l 622 736 l 778 736 l 493 0 q 417 -168 453 -103 q 335 -263 381 -233 q 215 -293 289 -293 m 307 806 l 192 806 l 325 1028 l 497 1028 l 307 806 m 581 806 l 460 806 l 636 1028 l 813 1028 l 581 806 z "},"ӵ":{"ha":778,"x_min":69,"x_max":681,"o":"m 528 0 l 528 282 q 452 247 496 263 q 340 232 408 232 q 139 294 208 232 q 69 493 69 357 l 69 736 l 222 736 l 222 514 q 256 398 222 431 q 375 365 290 365 q 473 378 433 365 q 528 404 513 392 l 528 736 l 681 736 l 681 0 l 528 0 m 244 825 q 178 851 204 825 q 153 917 153 876 q 178 983 153 957 q 244 1008 204 1008 q 310 983 285 1008 q 336 917 336 957 q 310 851 336 876 q 244 825 285 825 m 533 825 q 467 851 493 825 q 442 917 442 876 q 467 983 442 957 q 533 1008 493 1008 q 599 983 574 1008 q 625 917 625 957 q 599 851 625 876 q 533 825 574 825 z "},"ӹ":{"ha":1028,"x_min":97,"x_max":917,"o":"m 97 0 l 97 736 l 250 736 l 250 478 l 389 478 q 599 417 531 478 q 667 239 667 357 q 638 111 667 165 q 547 28 608 57 q 389 0 486 0 l 97 0 m 250 131 l 375 131 q 483 158 451 131 q 514 239 514 185 q 483 320 514 293 q 375 347 451 347 l 250 347 l 250 131 m 764 0 l 764 736 l 917 736 l 917 0 l 764 0 m 367 825 q 301 851 326 825 q 275 917 275 876 q 301 983 275 957 q 367 1008 326 1008 q 433 983 407 1008 q 458 917 458 957 q 433 851 458 876 q 367 825 407 825 m 656 825 q 590 851 615 825 q 564 917 564 876 q 590 983 564 957 q 656 1008 615 1008 q 722 983 696 1008 q 747 917 747 957 q 722 851 747 876 q 656 825 696 825 z "},"ԓ":{"ha":817,"x_min":32,"x_max":719,"o":"m 439 -278 l 439 -147 q 463 -151 451 -150 q 483 -153 474 -153 q 548 -117 529 -153 q 567 7 567 -81 l 567 606 l 313 606 l 313 486 q 298 241 313 339 q 254 88 283 143 q 181 8 225 32 q 81 -15 138 -15 q 56 -15 69 -15 q 32 -11 43 -14 l 32 132 q 53 131 35 131 q 116 164 92 131 q 152 281 140 197 q 164 514 164 365 l 164 736 l 719 736 l 719 -24 q 698 -172 719 -114 q 631 -258 676 -231 q 513 -286 586 -286 q 476 -284 494 -286 q 439 -278 458 -282 z "},"⁄":{"ha":250,"x_min":-292,"x_max":542,"o":"m -292 0 l 375 972 l 542 972 l -125 0 l -292 0 z "},"½":{"ha":1125,"x_min":28,"x_max":1090,"o":"m 172 528 l 172 925 l 28 822 l 28 975 l 181 1083 l 319 1083 l 319 528 l 172 528 m 69 0 l 736 972 l 903 972 l 236 0 l 69 0 m 646 0 l 646 101 l 858 272 q 922 335 908 313 q 936 389 936 358 q 921 428 936 413 q 868 444 906 444 q 817 427 833 444 q 800 382 800 410 l 653 382 q 708 519 653 467 q 868 571 764 571 q 1028 521 972 571 q 1083 396 1083 471 q 1070 328 1083 360 q 1028 266 1057 297 q 951 199 1000 235 l 850 122 l 1090 122 l 1090 0 l 646 0 z "},"¼":{"ha":1153,"x_min":28,"x_max":1104,"o":"m 172 528 l 172 925 l 28 822 l 28 975 l 181 1083 l 319 1083 l 319 528 l 172 528 m 69 0 l 736 972 l 903 972 l 236 0 l 69 0 m 901 0 l 901 107 l 632 107 l 632 206 l 888 556 l 1049 556 l 1049 226 l 1104 226 l 1104 107 l 1049 107 l 1049 0 l 901 0 m 778 226 l 901 226 l 901 406 l 778 226 z "},"¾":{"ha":1319,"x_min":35,"x_max":1271,"o":"m 264 513 q 92 564 149 513 q 35 694 35 615 l 182 694 q 199 651 182 665 q 264 638 217 638 q 326 655 307 638 q 346 699 346 672 q 328 744 346 726 q 263 761 311 761 l 201 761 l 201 864 l 263 864 q 316 881 300 864 q 332 922 332 897 q 315 961 332 949 q 264 974 299 974 q 213 960 231 974 q 196 924 196 947 l 49 924 q 102 1051 49 1003 q 264 1099 156 1099 q 427 1053 375 1099 q 479 939 479 1008 q 452 859 479 885 q 389 819 425 833 q 459 774 425 806 q 493 683 493 742 q 436 563 493 613 q 264 513 379 513 m 236 0 l 903 972 l 1069 972 l 403 0 l 236 0 m 1068 0 l 1068 107 l 799 107 l 799 206 l 1054 556 l 1215 556 l 1215 226 l 1271 226 l 1271 107 l 1215 107 l 1215 0 l 1068 0 m 944 226 l 1068 226 l 1068 406 l 944 226 z "},"₁":{"ha":361,"x_min":28,"x_max":319,"o":"m 172 0 l 172 397 l 28 294 l 28 447 l 181 556 l 319 556 l 319 0 l 172 0 z "},"₂":{"ha":514,"x_min":35,"x_max":479,"o":"m 35 0 l 35 101 l 247 272 q 311 335 297 313 q 325 389 325 358 q 310 428 325 413 q 257 444 294 444 q 206 427 222 444 q 189 382 189 410 l 42 382 q 97 519 42 467 q 257 571 153 571 q 417 521 361 571 q 472 396 472 471 q 459 328 472 360 q 417 266 446 297 q 340 199 389 235 l 239 122 l 479 122 l 479 0 l 35 0 z "},"₃":{"ha":528,"x_min":35,"x_max":493,"o":"m 264 -15 q 92 36 149 -15 q 35 167 35 88 l 182 167 q 199 124 182 138 q 264 110 217 110 q 326 127 307 110 q 346 171 346 144 q 328 216 346 199 q 263 233 311 233 l 201 233 l 201 336 l 263 336 q 316 353 300 336 q 332 394 332 369 q 315 433 332 421 q 264 446 299 446 q 213 433 231 446 q 196 396 196 419 l 49 396 q 102 523 49 475 q 264 571 156 571 q 427 526 375 571 q 479 411 479 481 q 452 331 479 357 q 389 292 425 306 q 459 246 425 278 q 493 156 493 214 q 436 35 493 85 q 264 -15 379 -15 z "},"₄":{"ha":542,"x_min":21,"x_max":493,"o":"m 290 0 l 290 107 l 21 107 l 21 206 l 276 556 l 438 556 l 438 226 l 493 226 l 493 107 l 438 107 l 438 0 l 290 0 m 167 226 l 290 226 l 290 406 l 167 226 z "},"¹":{"ha":361,"x_min":28,"x_max":319,"o":"m 172 528 l 172 925 l 28 822 l 28 975 l 181 1083 l 319 1083 l 319 528 l 172 528 z "},"²":{"ha":514,"x_min":35,"x_max":479,"o":"m 35 528 l 35 629 l 247 800 q 311 863 297 840 q 325 917 325 886 q 310 956 325 940 q 257 972 294 972 q 206 955 222 972 q 189 910 189 938 l 42 910 q 97 1047 42 994 q 257 1099 153 1099 q 417 1049 361 1099 q 472 924 472 999 q 459 856 472 888 q 417 794 446 825 q 340 726 389 763 l 239 650 l 479 650 l 479 528 l 35 528 z "},"³":{"ha":528,"x_min":35,"x_max":493,"o":"m 264 513 q 92 564 149 513 q 35 694 35 615 l 182 694 q 199 651 182 665 q 264 638 217 638 q 326 655 307 638 q 346 699 346 672 q 328 744 346 726 q 263 761 311 761 l 201 761 l 201 864 l 263 864 q 316 881 300 864 q 332 922 332 897 q 315 961 332 949 q 264 974 299 974 q 213 960 231 974 q 196 924 196 947 l 49 924 q 102 1051 49 1003 q 264 1099 156 1099 q 427 1053 375 1099 q 479 939 479 1008 q 452 859 479 885 q 389 819 425 833 q 459 774 425 806 q 493 683 493 742 q 436 563 493 613 q 264 513 379 513 z "},"⁴":{"ha":542,"x_min":21,"x_max":493,"o":"m 290 528 l 290 635 l 21 635 l 21 733 l 276 1083 l 438 1083 l 438 754 l 493 754 l 493 635 l 438 635 l 438 528 l 290 528 m 167 754 l 290 754 l 290 933 l 167 754 z "},"﻿":{"ha":0,"x_min":0,"x_max":0,"o":""},"\r":{"ha":347,"x_min":0,"x_max":0,"o":""},"\u0000":{"ha":0,"x_min":0,"x_max":0,"o":""}," ":{"ha":347,"x_min":0,"x_max":0,"o":""}," ":{"ha":347,"x_min":0,"x_max":0,"o":""}," ":{"ha":214,"x_min":0,"x_max":0,"o":""}," ":{"ha":214,"x_min":0,"x_max":0,"o":""},".":{"ha":431,"x_min":104,"x_max":326,"o":"m 215 -15 q 159 -1 185 -15 q 119 40 133 14 q 104 96 104 65 q 136 176 104 144 q 215 207 168 207 q 294 176 263 207 q 326 96 326 144 q 312 40 326 65 q 272 -1 297 14 q 215 -15 247 -15 z "},",":{"ha":431,"x_min":69,"x_max":306,"o":"m 69 -215 l 125 0 l 125 175 l 306 175 l 306 0 l 153 -215 l 69 -215 z "},":":{"ha":431,"x_min":104,"x_max":326,"o":"m 215 -15 q 159 -1 185 -15 q 119 40 133 14 q 104 96 104 65 q 136 176 104 144 q 215 207 168 207 q 294 176 263 207 q 326 96 326 144 q 312 40 326 65 q 272 -1 297 14 q 215 -15 247 -15 m 215 529 q 159 544 185 529 q 119 584 133 558 q 104 640 104 610 q 136 720 104 689 q 215 751 168 751 q 294 720 263 751 q 326 640 326 689 q 312 584 326 610 q 272 544 297 558 q 215 529 247 529 z "},";":{"ha":431,"x_min":69,"x_max":326,"o":"m 69 -215 l 125 0 l 125 175 l 306 175 l 306 0 l 153 -215 l 69 -215 m 215 529 q 159 544 185 529 q 119 584 133 558 q 104 640 104 610 q 136 720 104 689 q 215 751 168 751 q 294 720 263 751 q 326 640 326 689 q 312 584 326 610 q 272 544 297 558 q 215 529 247 529 z "},"…":{"ha":1347,"x_min":104,"x_max":1243,"o":"m 215 -15 q 159 -1 185 -15 q 119 40 133 14 q 104 96 104 65 q 136 176 104 144 q 215 207 168 207 q 294 176 263 207 q 326 96 326 144 q 312 40 326 65 q 272 -1 297 14 q 215 -15 247 -15 m 674 -15 q 617 -1 643 -15 q 577 40 592 14 q 563 96 563 65 q 594 176 563 144 q 674 207 626 207 q 753 176 721 207 q 785 96 785 144 q 770 40 785 65 q 731 -1 756 14 q 674 -15 706 -15 m 1132 -15 q 1076 -1 1101 -15 q 1035 40 1050 14 q 1021 96 1021 65 q 1053 176 1021 144 q 1132 207 1085 207 q 1211 176 1179 207 q 1243 96 1243 144 q 1228 40 1243 65 q 1189 -1 1214 14 q 1132 -15 1164 -15 z "},"!":{"ha":431,"x_min":104,"x_max":326,"o":"m 139 313 l 139 972 l 292 972 l 292 313 l 139 313 m 215 -15 q 159 -1 185 -15 q 119 40 133 14 q 104 96 104 65 q 136 176 104 144 q 215 207 168 207 q 294 176 263 207 q 326 96 326 144 q 312 40 326 65 q 272 -1 297 14 q 215 -15 247 -15 z "},"¡":{"ha":431,"x_min":104,"x_max":326,"o":"m 139 -278 l 139 424 l 292 424 l 292 -278 l 139 -278 m 215 529 q 159 544 185 529 q 119 584 133 558 q 104 640 104 610 q 136 720 104 689 q 215 751 168 751 q 294 720 263 751 q 326 640 326 689 q 312 584 326 610 q 272 544 297 558 q 215 529 247 529 z "},"?":{"ha":722,"x_min":56,"x_max":667,"o":"m 285 313 l 285 361 q 295 430 285 400 q 331 490 306 460 q 399 556 356 519 q 481 640 451 601 q 511 722 511 679 q 471 816 511 778 q 361 854 431 854 q 251 815 292 854 q 211 708 211 775 l 56 708 q 94 851 56 788 q 201 951 132 914 q 361 988 269 988 q 525 953 457 988 q 630 858 593 918 q 667 722 667 797 q 649 626 667 669 q 599 547 631 583 q 526 474 568 510 q 476 427 496 447 q 447 388 457 407 q 438 340 438 368 l 438 313 l 285 313 m 361 -15 q 305 -1 331 -15 q 265 40 279 14 q 250 96 250 65 q 282 176 250 144 q 361 207 314 207 q 440 176 408 207 q 472 96 472 144 q 458 40 472 65 q 418 -1 443 14 q 361 -15 393 -15 z "},"¿":{"ha":722,"x_min":56,"x_max":667,"o":"m 361 -293 q 198 -258 267 -293 q 92 -162 129 -222 q 56 -28 56 -103 q 74 69 56 26 q 124 148 92 111 q 196 221 156 185 q 246 268 226 249 q 275 308 265 288 q 285 354 285 328 l 285 424 l 438 424 l 438 333 q 427 265 438 296 q 392 206 417 235 q 324 139 368 176 q 241 54 271 93 q 211 -28 211 15 q 251 -122 211 -83 q 361 -160 292 -160 q 471 -120 431 -160 q 511 -14 511 -81 l 667 -14 q 628 -156 667 -92 q 522 -256 590 -219 q 361 -293 453 -293 m 361 529 q 305 544 331 529 q 265 584 279 558 q 250 640 250 610 q 282 720 250 689 q 361 751 314 751 q 440 720 408 751 q 472 640 472 689 q 458 584 472 610 q 418 544 443 558 q 361 529 393 529 z "},"·":{"ha":431,"x_min":104,"x_max":326,"o":"m 215 271 q 159 285 185 271 q 119 326 133 300 q 104 382 104 351 q 136 462 104 431 q 215 493 168 493 q 294 462 263 493 q 326 382 326 431 q 312 326 326 351 q 272 285 297 300 q 215 271 247 271 z "},"•":{"ha":556,"x_min":97,"x_max":458,"o":"m 278 201 q 187 226 228 201 q 122 291 146 250 q 97 382 97 332 q 122 474 97 433 q 187 538 146 514 q 278 563 228 563 q 369 538 329 563 q 434 474 410 514 q 458 382 458 433 q 434 291 458 332 q 369 226 410 250 q 278 201 329 201 z "},"*":{"ha":625,"x_min":69,"x_max":556,"o":"m 254 486 l 265 649 l 129 556 l 69 658 l 219 729 l 69 800 l 128 903 l 265 810 l 254 972 l 371 972 l 360 810 l 497 903 l 556 800 l 406 729 l 556 658 l 496 556 l 360 649 l 371 486 l 254 486 z "},"#":{"ha":944,"x_min":76,"x_max":868,"o":"m 139 0 l 188 267 l 76 267 l 76 386 l 210 386 l 247 586 l 131 586 l 131 706 l 269 706 l 319 972 l 461 972 l 411 706 l 614 706 l 664 972 l 806 972 l 756 706 l 868 706 l 868 586 l 733 586 l 696 386 l 814 386 l 814 267 l 674 267 l 625 0 l 483 0 l 532 267 l 329 267 l 281 0 l 139 0 m 351 386 l 554 386 l 592 586 l 389 586 l 351 386 z "},"/":{"ha":667,"x_min":42,"x_max":625,"o":"m 42 -278 l 483 972 l 625 972 l 183 -278 l 42 -278 z "},"\\":{"ha":667,"x_min":42,"x_max":625,"o":"m 483 -278 l 42 972 l 183 972 l 625 -278 l 483 -278 z "},"-":{"ha":528,"x_min":49,"x_max":479,"o":"m 49 317 l 49 461 l 479 461 l 479 317 l 49 317 z "},"­":{"ha":528,"x_min":49,"x_max":479,"o":"m 49 317 l 49 461 l 479 461 l 479 317 l 49 317 z "},"–":{"ha":736,"x_min":49,"x_max":688,"o":"m 49 317 l 49 461 l 688 461 l 688 317 l 49 317 z "},"—":{"ha":1014,"x_min":49,"x_max":965,"o":"m 49 317 l 49 461 l 965 461 l 965 317 l 49 317 z "},"‒":{"ha":819,"x_min":74,"x_max":746,"o":"m 74 428 l 74 572 l 746 572 l 746 428 l 74 428 z "},"_":{"ha":694,"x_min":0,"x_max":694,"o":"m 0 -199 l 0 -79 l 694 -79 l 694 -199 l 0 -199 z "},"‐":{"ha":528,"x_min":49,"x_max":479,"o":"m 49 317 l 49 461 l 479 461 l 479 317 l 49 317 z "},"‑":{"ha":528,"x_min":49,"x_max":479,"o":"m 49 317 l 49 461 l 479 461 l 479 317 l 49 317 z "},"(":{"ha":528,"x_min":111,"x_max":514,"o":"m 111 333 l 111 361 q 148 615 111 503 q 229 807 185 726 q 285 895 256 854 q 347 972 314 936 l 514 972 q 447 895 479 936 q 388 807 415 854 q 301 615 340 726 q 261 361 261 503 l 261 333 q 301 80 261 193 q 388 -112 340 -33 q 447 -201 415 -160 q 514 -278 479 -242 l 342 -278 q 281 -201 310 -242 q 226 -112 251 -160 q 147 79 182 -33 q 111 333 111 192 z "},")":{"ha":528,"x_min":14,"x_max":417,"o":"m 417 361 l 417 333 q 380 81 417 192 q 299 -112 343 -31 q 243 -201 272 -160 q 181 -278 214 -242 l 14 -278 q 81 -201 50 -242 q 140 -112 113 -160 q 228 81 189 -31 q 267 333 267 192 l 267 361 q 228 615 267 501 q 140 807 189 728 q 81 895 113 854 q 14 972 50 936 l 186 972 q 247 895 218 936 q 301 807 276 854 q 381 615 346 728 q 417 361 417 503 z "},"{":{"ha":528,"x_min":111,"x_max":458,"o":"m 458 -278 l 389 -278 q 235 -224 289 -278 q 181 -69 181 -169 l 181 218 q 162 269 181 250 q 111 288 143 288 l 111 407 q 162 426 143 407 q 181 476 181 444 l 181 764 q 235 918 181 864 q 389 972 289 972 l 458 972 l 458 853 l 403 853 q 342 833 363 853 q 322 772 322 813 l 322 444 q 303 381 322 403 q 253 347 285 358 q 303 314 285 336 q 322 250 322 292 l 322 -78 q 342 -138 322 -118 q 403 -158 363 -158 l 458 -158 l 458 -278 z "},"}":{"ha":528,"x_min":69,"x_max":417,"o":"m 69 972 l 139 972 q 293 918 239 972 q 347 764 347 864 l 347 476 q 366 426 347 444 q 417 407 385 407 l 417 288 q 366 269 385 288 q 347 218 347 250 l 347 -69 q 293 -224 347 -169 q 139 -278 239 -278 l 69 -278 l 69 -158 l 125 -158 q 185 -138 165 -158 q 206 -78 206 -118 l 206 250 q 224 314 206 292 q 275 347 243 336 q 224 381 243 358 q 206 444 206 403 l 206 772 q 185 833 206 813 q 125 853 165 853 l 69 853 l 69 972 z "},"[":{"ha":528,"x_min":167,"x_max":444,"o":"m 167 -278 l 167 972 l 444 972 l 444 853 l 308 853 l 308 -158 l 444 -158 l 444 -278 l 167 -278 z "},"]":{"ha":528,"x_min":83,"x_max":361,"o":"m 361 972 l 361 -278 l 83 -278 l 83 -158 l 219 -158 l 219 853 l 83 853 l 83 972 l 361 972 z "},"〈":{"ha":528,"x_min":69,"x_max":514,"o":"m 350 -278 l 69 347 l 353 972 l 514 972 l 231 347 l 514 -278 l 350 -278 z "},"〉":{"ha":528,"x_min":14,"x_max":458,"o":"m 178 972 l 458 347 l 175 -278 l 14 -278 l 297 347 l 14 972 l 178 972 z "},"‚":{"ha":431,"x_min":69,"x_max":306,"o":"m 69 -215 l 125 0 l 125 175 l 306 175 l 306 0 l 153 -215 l 69 -215 z "},"„":{"ha":722,"x_min":69,"x_max":597,"o":"m 69 -215 l 125 0 l 125 175 l 306 175 l 306 0 l 153 -215 l 69 -215 m 361 -215 l 417 0 l 417 175 l 597 175 l 597 0 l 444 -215 l 361 -215 z "},"“":{"ha":722,"x_min":125,"x_max":653,"o":"m 361 972 l 306 757 l 306 582 l 125 582 l 125 757 l 278 972 l 361 972 m 653 972 l 597 757 l 597 582 l 417 582 l 417 757 l 569 972 l 653 972 z "},"”":{"ha":722,"x_min":69,"x_max":597,"o":"m 69 582 l 125 797 l 125 972 l 306 972 l 306 797 l 153 582 l 69 582 m 361 582 l 417 797 l 417 972 l 597 972 l 597 797 l 444 582 l 361 582 z "},"‘":{"ha":431,"x_min":125,"x_max":361,"o":"m 361 972 l 306 757 l 306 582 l 125 582 l 125 757 l 278 972 l 361 972 z "},"’":{"ha":431,"x_min":69,"x_max":306,"o":"m 69 582 l 125 797 l 125 972 l 306 972 l 306 797 l 153 582 l 69 582 z "},"«":{"ha":757,"x_min":49,"x_max":681,"o":"m 354 56 l 49 318 l 49 446 l 354 708 l 354 542 l 167 385 l 354 228 l 354 56 m 681 56 l 375 318 l 375 446 l 681 708 l 681 542 l 493 385 l 681 228 l 681 56 z "},"»":{"ha":757,"x_min":76,"x_max":708,"o":"m 76 708 l 382 446 l 382 318 l 76 56 l 76 222 l 264 379 l 76 536 l 76 708 m 403 708 l 708 446 l 708 318 l 403 56 l 403 222 l 590 379 l 403 536 l 403 708 z "},"‹":{"ha":431,"x_min":49,"x_max":354,"o":"m 354 56 l 49 318 l 49 446 l 354 708 l 354 542 l 167 385 l 354 228 l 354 56 z "},"›":{"ha":431,"x_min":76,"x_max":382,"o":"m 76 708 l 382 446 l 382 318 l 76 56 l 76 222 l 264 379 l 76 536 l 76 708 z "},"\"":{"ha":556,"x_min":83,"x_max":472,"o":"m 83 667 l 83 972 l 222 972 l 222 667 l 83 667 m 333 667 l 333 972 l 472 972 l 472 667 l 333 667 z "},"'":{"ha":306,"x_min":83,"x_max":222,"o":"m 83 667 l 83 972 l 222 972 l 222 667 l 83 667 z "},"ƒ":{"ha":514,"x_min":-14,"x_max":486,"o":"m 63 -292 q 29 -291 51 -292 q -14 -287 7 -290 l -14 -154 q 17 -158 -3 -157 q 49 -158 38 -158 q 118 -137 97 -158 q 139 -62 139 -115 l 139 606 l 42 606 l 42 736 l 139 736 l 139 757 q 163 880 139 831 q 242 954 188 929 q 382 979 296 979 q 429 978 403 979 q 486 975 456 978 l 486 842 q 441 845 465 844 q 396 846 417 846 q 315 824 338 846 q 292 750 292 803 l 292 736 l 472 736 l 472 606 l 292 606 l 292 -69 q 268 -192 292 -142 q 194 -267 244 -242 q 63 -292 143 -292 z "},"@":{"ha":1375,"x_min":76,"x_max":1299,"o":"m 704 -293 q 450 -248 565 -293 q 251 -119 335 -203 q 122 83 168 -35 q 76 347 76 201 q 123 609 76 492 q 253 811 169 726 q 447 942 336 896 q 688 988 558 988 q 940 946 828 988 q 1133 828 1053 904 q 1256 646 1213 751 q 1299 411 1299 540 q 1260 205 1299 288 q 1157 81 1222 122 q 1008 40 1092 40 q 899 66 946 40 q 836 171 853 92 q 761 76 807 111 q 636 40 715 40 q 447 118 517 40 q 376 354 376 196 l 376 382 q 445 619 376 542 q 632 696 514 696 q 717 682 683 696 q 771 645 750 668 q 803 597 792 622 l 803 681 l 942 681 l 942 296 q 960 199 942 225 q 1017 174 978 174 q 1088 197 1056 174 q 1138 272 1119 219 q 1157 411 1157 324 q 1119 612 1157 526 q 1016 754 1082 697 q 866 840 950 811 q 688 868 782 868 q 503 833 589 868 q 354 730 418 797 q 254 566 290 663 q 218 347 218 469 q 280 67 218 183 q 451 -112 342 -50 q 704 -174 561 -174 q 890 -152 814 -174 q 1015 -100 965 -131 l 1015 -231 q 889 -276 963 -258 q 704 -293 815 -293 m 663 174 q 765 214 726 174 q 803 324 803 254 l 803 414 q 765 523 803 483 q 661 563 728 563 q 566 520 600 563 q 532 382 532 478 l 532 354 q 567 216 532 258 q 663 174 601 174 z "},"&":{"ha":951,"x_min":76,"x_max":938,"o":"m 403 -15 q 231 21 304 -15 q 117 120 157 57 q 76 264 76 183 q 92 369 76 321 q 147 462 108 417 q 249 554 185 507 q 188 640 208 603 q 160 709 167 676 q 153 778 153 742 q 182 885 153 838 q 264 960 211 932 q 389 988 317 988 q 514 960 461 988 q 596 885 567 932 q 625 778 625 838 q 610 703 625 739 q 558 626 594 667 q 460 536 522 586 l 664 307 q 685 381 678 343 q 692 465 692 418 l 847 465 q 828 311 847 379 q 772 185 808 243 l 938 0 l 751 0 l 679 79 q 552 9 622 33 q 403 -15 482 -15 m 403 118 q 501 135 456 118 q 583 185 546 151 l 344 447 q 273 381 297 410 q 240 326 249 353 q 232 264 232 299 q 277 160 232 201 q 403 118 322 118 m 306 778 q 317 718 306 744 q 369 642 328 692 q 440 701 418 678 q 467 743 461 725 q 472 778 472 761 q 449 832 472 810 q 389 854 426 854 q 328 832 351 854 q 306 778 306 810 z "},"¶":{"ha":875,"x_min":56,"x_max":750,"o":"m 264 -278 l 264 425 q 158 479 206 440 q 83 574 111 518 q 56 694 56 631 q 94 833 56 771 q 195 934 132 896 q 333 972 258 972 l 750 972 l 750 -278 l 608 -278 l 608 842 l 406 842 l 406 -278 l 264 -278 z "},"§":{"ha":806,"x_min":83,"x_max":722,"o":"m 403 -293 q 246 -262 306 -293 q 159 -178 186 -232 q 132 -56 132 -125 l 307 -56 q 331 -123 307 -100 q 403 -146 356 -146 q 475 -122 451 -146 q 499 -62 499 -97 q 484 -19 499 -40 q 424 27 469 3 q 288 83 379 51 q 141 181 199 114 q 83 347 83 249 q 125 493 83 431 q 238 590 167 556 q 160 664 189 619 q 132 764 132 708 q 159 877 132 826 q 246 958 186 928 q 403 988 306 988 q 560 957 500 988 q 647 873 619 926 q 674 750 674 819 l 499 750 q 471 819 499 797 q 403 840 443 840 q 333 817 358 840 q 307 757 307 793 q 323 708 307 731 q 385 663 339 686 q 525 608 432 640 q 667 511 613 579 q 722 347 722 443 q 681 201 722 264 q 568 103 639 139 q 645 29 617 74 q 674 -69 674 -15 q 647 -183 674 -132 q 560 -263 619 -233 q 403 -293 500 -293 m 403 214 q 507 251 467 214 q 547 347 547 289 q 508 444 547 408 q 403 481 468 481 q 298 443 338 481 q 258 347 258 406 q 298 251 258 289 q 403 214 338 214 z "},"©":{"ha":1153,"x_min":69,"x_max":1083,"o":"m 576 -22 q 377 16 469 -22 q 216 122 285 54 q 108 283 147 190 q 69 486 69 376 q 108 687 69 594 q 217 849 147 779 q 378 956 286 918 q 576 994 471 994 q 776 956 683 994 q 937 850 868 918 q 1044 689 1006 782 q 1083 486 1083 596 q 1044 288 1083 381 q 936 126 1006 196 q 774 17 867 56 q 576 -22 682 -22 m 576 97 q 770 148 683 97 q 908 287 857 199 q 960 486 960 375 q 908 685 960 597 q 770 824 857 772 q 576 875 683 875 q 383 824 469 875 q 244 685 296 772 q 193 486 193 597 q 244 288 193 376 q 383 149 296 200 q 576 97 469 97 m 576 193 q 441 226 499 193 q 351 324 383 260 q 319 479 319 388 l 319 493 q 352 646 319 582 q 443 744 385 710 q 576 779 501 779 q 703 755 651 779 q 784 686 754 731 q 819 583 814 642 l 683 583 q 651 647 676 624 q 576 671 625 671 q 490 627 524 671 q 456 493 456 583 l 456 479 q 490 345 456 389 q 576 301 525 301 q 650 326 626 301 q 683 396 674 350 l 819 396 q 784 292 814 338 q 701 219 754 246 q 576 193 649 193 z "},"®":{"ha":903,"x_min":56,"x_max":847,"o":"m 451 193 q 298 224 369 193 q 172 309 226 254 q 86 435 117 364 q 56 590 56 507 q 86 745 56 674 q 172 872 117 817 q 298 957 226 926 q 451 988 369 988 q 605 957 533 988 q 731 872 676 926 q 817 745 786 817 q 847 590 847 674 q 817 435 847 507 q 731 309 786 364 q 605 224 676 254 q 451 193 533 193 m 451 283 q 603 323 536 283 q 710 432 671 363 q 749 590 749 501 q 710 749 749 681 q 603 858 671 818 q 451 897 536 897 q 299 858 367 897 q 193 749 232 818 q 154 590 154 681 q 193 432 154 501 q 299 323 232 363 q 451 283 367 283 m 299 382 l 299 799 l 451 799 q 591 763 550 799 q 632 664 632 728 q 610 587 632 618 q 538 542 588 556 l 632 382 l 521 382 l 438 532 l 401 532 l 401 382 l 299 382 m 401 613 l 446 613 q 512 626 494 613 q 529 664 529 640 q 512 701 529 688 q 446 715 494 715 l 401 715 l 401 613 z "},"™":{"ha":1243,"x_min":28,"x_max":1201,"o":"m 190 417 l 190 850 l 28 850 l 28 972 l 500 972 l 500 850 l 338 850 l 338 417 l 190 417 m 590 417 l 590 972 l 740 972 l 897 679 l 1054 972 l 1201 972 l 1201 417 l 1068 417 l 1068 782 l 935 535 l 857 535 l 724 782 l 724 417 l 590 417 z "},"°":{"ha":542,"x_min":49,"x_max":493,"o":"m 271 543 q 159 573 210 543 q 78 653 108 603 q 49 765 49 704 q 78 877 49 826 q 159 958 108 928 q 271 988 210 988 q 383 958 332 988 q 463 877 433 928 q 493 765 493 826 q 463 653 493 704 q 383 573 433 603 q 271 543 332 543 m 271 668 q 340 697 311 668 q 368 765 368 725 q 340 834 368 806 q 271 863 311 863 q 202 834 231 863 q 174 765 174 806 q 202 697 174 725 q 271 668 231 668 z "},"|":{"ha":472,"x_min":165,"x_max":307,"o":"m 165 -278 l 165 972 l 307 972 l 307 -278 l 165 -278 z "},"¦":{"ha":472,"x_min":165,"x_max":307,"o":"m 165 -278 l 165 236 l 307 236 l 307 -278 l 165 -278 m 165 458 l 165 972 l 307 972 l 307 458 l 165 458 z "},"†":{"ha":764,"x_min":56,"x_max":708,"o":"m 311 -278 l 311 617 l 56 617 l 56 736 l 311 736 l 311 972 l 453 972 l 453 736 l 708 736 l 708 617 l 453 617 l 453 -278 l 311 -278 z "},"‡":{"ha":764,"x_min":56,"x_max":708,"o":"m 311 -278 l 311 0 l 56 0 l 56 119 l 311 119 l 311 617 l 56 617 l 56 736 l 311 736 l 311 972 l 453 972 l 453 736 l 708 736 l 708 617 l 453 617 l 453 119 l 708 119 l 708 0 l 453 0 l 453 -278 l 311 -278 z "},"№":{"ha":1528,"x_min":125,"x_max":1486,"o":"m 125 0 l 125 972 l 286 972 l 764 278 l 764 972 l 931 972 l 931 0 l 769 0 l 292 694 l 292 0 l 125 0 m 1257 513 q 1091 576 1154 513 q 1028 743 1028 640 l 1028 757 q 1056 878 1028 826 q 1137 958 1085 929 q 1257 988 1189 988 q 1376 958 1325 988 q 1457 878 1428 929 q 1486 757 1486 826 l 1486 743 q 1423 576 1486 640 q 1257 513 1360 513 m 1257 638 q 1317 663 1294 638 q 1339 744 1339 688 l 1339 757 q 1317 838 1339 813 q 1257 863 1294 863 q 1197 838 1219 863 q 1175 757 1175 813 l 1175 744 q 1197 663 1175 688 q 1257 638 1219 638 m 1042 314 l 1042 436 l 1472 436 l 1472 314 l 1042 314 z "},"€":{"ha":944,"x_min":35,"x_max":882,"o":"m 514 -15 q 342 19 421 -15 q 209 127 264 53 q 132 319 154 201 l 35 319 l 35 450 l 118 450 q 118 465 118 458 q 118 479 118 471 l 118 507 q 118 522 118 515 q 118 536 118 528 l 35 536 l 35 667 l 133 667 q 213 850 158 779 q 346 954 268 921 q 514 988 424 988 q 653 967 589 988 q 766 907 717 947 q 845 807 815 867 q 882 667 875 747 l 707 667 q 669 766 696 728 q 603 822 642 804 q 514 840 564 840 q 397 801 453 840 q 313 667 340 763 l 576 667 l 576 536 l 293 536 q 293 522 293 528 q 293 507 293 515 l 293 479 q 293 465 293 471 q 293 450 293 458 l 576 450 l 576 319 l 311 319 q 363 208 331 249 q 436 149 396 167 q 514 132 476 132 q 613 153 574 132 q 676 213 653 174 q 707 306 700 253 l 882 306 q 843 158 874 219 q 764 59 813 97 q 651 3 715 21 q 514 -15 588 -15 z "},"¢":{"ha":771,"x_min":56,"x_max":722,"o":"m 340 -167 l 340 -11 q 135 99 215 6 q 56 361 56 193 l 56 389 q 94 569 56 494 q 197 689 132 644 q 340 746 261 733 l 340 875 l 479 875 l 479 744 q 603 697 553 732 q 684 612 654 663 q 722 500 714 561 l 567 500 q 517 585 553 551 q 403 618 481 618 q 308 594 351 618 q 238 520 264 571 q 211 389 211 469 l 211 361 q 238 220 211 274 q 308 142 264 167 q 403 118 351 118 q 508 147 468 118 q 567 236 549 176 l 722 236 q 640 74 704 138 q 479 -8 575 11 l 479 -167 l 340 -167 z "},"¤":{"ha":778,"x_min":49,"x_max":729,"o":"m 144 160 l 49 256 l 150 357 q 121 425 131 389 q 111 500 111 461 q 121 574 111 539 q 150 642 131 610 l 49 744 l 144 840 l 246 738 q 313 767 278 757 q 389 778 349 778 q 463 767 428 778 q 531 738 499 757 l 633 840 l 729 744 l 626 642 q 656 574 646 610 q 667 500 667 539 q 656 424 667 460 q 626 357 646 389 l 729 256 l 633 160 l 531 261 q 463 232 499 242 q 389 222 428 222 q 314 232 350 222 q 246 261 278 242 l 144 160 m 389 364 q 484 403 446 364 q 522 500 522 442 q 484 597 522 558 q 389 636 446 636 q 294 597 332 636 q 256 500 256 558 q 294 403 256 442 q 389 364 332 364 z "},"$":{"ha":903,"x_min":69,"x_max":833,"o":"m 382 -167 l 382 -11 q 154 79 229 4 q 69 264 79 154 l 236 264 q 293 169 247 207 q 451 132 339 132 q 617 170 568 132 q 667 264 667 208 q 639 339 667 310 q 553 390 611 368 q 407 429 496 411 q 238 485 307 451 q 133 576 168 519 q 97 722 97 633 q 169 893 97 819 q 382 983 242 967 l 382 1111 l 521 1111 l 521 983 q 726 897 656 968 q 806 722 796 825 l 639 722 q 583 808 628 775 q 451 840 538 840 q 308 806 351 840 q 264 722 264 771 q 319 622 264 656 q 490 565 375 589 q 640 523 576 547 q 747 465 704 499 q 812 381 790 431 q 833 264 833 332 q 756 79 833 156 q 521 -11 678 3 l 521 -167 l 382 -167 z "},"£":{"ha":889,"x_min":76,"x_max":813,"o":"m 76 0 l 76 144 l 201 144 l 201 407 l 90 407 l 90 538 l 201 538 l 201 694 q 238 853 201 788 q 344 953 275 918 q 511 988 414 988 q 672 954 607 988 q 774 862 738 921 q 813 722 810 803 l 646 722 q 608 810 640 781 q 511 840 576 840 q 403 804 439 840 q 368 694 368 768 l 368 538 l 611 538 l 611 407 l 368 407 l 368 144 l 813 144 l 813 0 l 76 0 z "},"₴":{"ha":847,"x_min":69,"x_max":778,"o":"m 69 540 l 69 671 l 506 671 q 533 713 525 693 q 540 757 540 733 q 515 816 540 792 q 424 840 489 840 q 340 820 365 840 q 307 764 314 800 l 146 764 q 181 883 150 833 q 272 960 213 933 q 424 988 332 988 q 577 960 515 988 q 670 886 639 932 q 701 785 701 840 q 696 724 701 749 q 675 671 690 699 l 778 671 l 778 540 l 69 540 m 424 -15 q 259 11 324 -15 q 163 85 194 38 q 132 194 132 133 q 142 268 132 239 q 168 324 151 297 l 69 324 l 69 454 l 778 454 l 778 324 l 356 324 q 318 269 329 296 q 307 215 307 243 q 331 154 307 176 q 424 132 354 132 q 508 152 482 132 q 540 208 535 172 l 715 208 q 682 94 713 144 q 589 14 651 43 q 424 -15 526 -15 z "},"₸":{"ha":875,"x_min":28,"x_max":847,"o":"m 28 828 l 28 972 l 847 972 l 847 828 l 28 828 m 522 0 l 353 0 l 353 583 l 28 583 l 28 728 l 847 728 l 847 583 l 522 583 l 522 0 z "},"₽":{"ha":903,"x_min":35,"x_max":840,"o":"m 160 0 l 160 136 l 35 136 l 35 267 l 160 267 l 160 353 l 35 353 l 35 497 l 160 497 l 160 972 l 486 972 q 682 934 603 972 q 801 826 761 896 q 840 663 840 757 q 801 499 840 568 q 682 391 761 429 q 486 353 603 353 l 326 353 l 326 267 l 646 267 l 646 136 l 326 136 l 326 0 l 160 0 m 326 497 l 472 497 q 628 538 583 497 q 674 663 674 579 q 628 787 674 746 q 472 828 583 828 l 326 828 l 326 497 z "}}}
